<?xml version="1.0" standalone="no"?>
<!DOCTYPE svg PUBLIC "-//W3C//DTD SVG 1.1//EN" "http://www.w3.org/Graphics/SVG/1.1/DTD/svg11.dtd" >
<svg xmlns="http://www.w3.org/2000/svg" xmlns:xlink="http://www.w3.org/1999/xlink" version="1.1">
<metadata>
Created by FontForge 20170731 at Thu May 18 21:27:49 2017
 By Aleksey,,,
Copyright (c) 2013 Schick Toikka. All rights reserved. Saol Display is a trademark of Schick Toikka. Unauthorised copying or modification of any of its data is illegal.
</metadata>
<defs>
<font id="SaolDisplay-LightItalic" horiz-adv-x="277" >
  <font-face 
    font-family="Saol Display"
    font-weight="300"
    font-style="italic"
    font-stretch="normal"
    units-per-em="1000"
    panose-1="0 0 4 0 0 0 0 0 0 0"
    ascent="800"
    descent="-200"
    x-height="497"
    cap-height="681"
    bbox="-294 -250 1365 1053"
    underline-thickness="50"
    underline-position="-350"
    slope="-12"
    unicode-range="U+000D-FB02"
  />
<missing-glyph horiz-adv-x="547" 
d="M319 -226h-444l383 1002h445zM261 757l-368 -962l390 480zM294 272l22 -478l368 958zM270 766l23 -479l389 479h-412zM284 260l-387 -476h410z" />
    <glyph glyph-name="fi" unicode="fi" horiz-adv-x="526" 
d="M479 354l-111 -229q-34 -66 -34 -93q0 -18 17 -18q31 0 113 111l6 -4q-94 -129 -148 -129q-23 0 -35 13.5t-12 32.5q0 32 32 98l111 229q34 76 34 93q0 18 -17 18q-28 0 -113 -111l-6 4q94 129 148 129q23 0 35 -13.5t12 -32.5q0 -32 -32 -98zM492 699q40 0 40 -26
q0 -28 -35 -28q-14 0 -49 11t-60 11q-50 0 -83 -29.5t-74 -132.5l-6 -15h123v-8h-126l-119 -359q-56 -170 -162 -264.5t-200 -94.5q-15 0 -25 7.5t-10 19.5q0 27 35 27q11 0 43 -8t49 -8q48 0 96.5 66t86.5 181l120 362q16 48 28 71h-89v8h93q56 104 132.5 156.5t191.5 52.5
z" />
    <glyph glyph-name="fl" unicode="fl" horiz-adv-x="502" 
d="M222 482l-119 -359q-56 -170 -162 -264.5t-200 -94.5q-15 0 -25 7.5t-10 19.5q0 27 35 27q11 0 43 -8t49 -8q48 0 96.5 66t86.5 181l120 362q16 48 28 71h-89v8h93q90 210 231 210q35 0 62.5 -15t38.5 -32q34 12 50 25.5t31 44.5l5 -2l-239 -595q-3 -9 -12.5 -31.5
t-15 -38.5t-5.5 -24q0 -18 17 -18q31 0 113 111l6 -4q-94 -129 -148 -129q-23 0 -35 13.5t-12 32.5q0 11 3.5 25.5t7 23.5t10.5 26.5t9 21.5l206 514q-9 18 -34.5 30t-57.5 12q-63 0 -95 -40.5t-75 -150.5l-4 -10h124v-8h-127z" />
    <glyph glyph-name="fb" unicode="fb" horiz-adv-x="724" 
d="M231 -6l252 653q-13 18 -37 31t-51 13q-63 0 -92.5 -39t-73.5 -152l-4 -10h124v-8h-127l-119 -359q-56 -170 -162 -264.5t-200 -94.5q-15 0 -25 7.5t-10 19.5q0 27 35 27q11 0 43 -8t49 -8q48 0 96.5 66t86.5 181l120 362q16 48 28 71h-89v8h93q90 210 227 210
q32 0 57.5 -15t36.5 -32q34 12 51.5 26t32.5 44l5 -2l-239 -622l178 269q45 68 77.5 99t65.5 31q25 0 42.5 -15.5t17.5 -50.5q0 -59 -40.5 -161.5t-110 -190.5t-135.5 -88q-63 0 -109 76q-34 -14 -52.5 -28.5t-35.5 -47.5zM629 476q-28 0 -106 -113l-192 -289
q18 -30 42.5 -51t48.5 -21q48 0 104 90t90.5 193t34.5 154q0 37 -22 37z" />
    <glyph glyph-name="fh" unicode="fh" horiz-adv-x="762" 
d="M589 721l-278 -692l225 309q69 95 102 127.5t67 32.5q22 0 33.5 -13.5t11.5 -32.5q0 -34 -34 -104l-109 -223q-35 -68 -35 -93q0 -18 17 -18q28 0 113 111l6 -4q-94 -129 -148 -129q-23 0 -35 13.5t-12 32.5q0 31 32 97l106 217q40 82 40 102q0 22 -19 22
q-13 0 -41 -29.5t-89 -113.5l-243 -333q-5 0 -16 1t-16 1t-16 -1t-17 -1l260 647q-12 18 -38 31t-57 13q-63 0 -95 -40.5t-75 -150.5l-4 -10h124v-8h-127l-119 -359q-56 -170 -162 -264.5t-200 -94.5q-15 0 -25 7.5t-10 19.5q0 27 35 27q11 0 43 -8t49 -8q48 0 96.5 66
t86.5 181l120 362q16 48 28 71h-89v8h93q90 210 231 210q35 0 62.5 -15t38.5 -32q35 12 52 25.5t32 44.5z" />
    <glyph glyph-name="fj" unicode="fj" horiz-adv-x="519" 
d="M492 699q40 0 40 -26q0 -28 -35 -28q-14 0 -49 11t-60 11q-50 0 -83 -29.5t-74 -132.5l-6 -15h123v-8h-126l-119 -359q-56 -170 -162 -264.5t-200 -94.5q-15 0 -25 7.5t-10 19.5q0 27 35 27q11 0 43 -8t49 -8q48 0 96.5 66t86.5 181l120 362q16 48 28 71h-89v8h93
q56 104 132.5 156.5t191.5 52.5zM303 49l114 316q2 5 12 30.5t14.5 40t4.5 22.5q0 18 -17 18q-30 0 -114 -111l-6 4q93 129 149 129q23 0 35.5 -13.5t12.5 -32.5q0 -23 -28 -98l-90 -236q-44 -115 -108 -197.5t-128.5 -119.5t-125.5 -37q-15 0 -25 7.5t-10 19.5q0 27 35 27
q11 0 43 -8t49 -8q93 0 183 247z" />
    <glyph glyph-name="fk" unicode="fk" horiz-adv-x="722" 
d="M588 721l-179 -446h11q50 0 88 29.5t72 80.5q41 60 72.5 86.5t76.5 26.5q35 0 35 -26q0 -27 -31 -27q-12 0 -28.5 6t-30.5 6q-19 0 -37.5 -16t-48.5 -61q-31 -47 -61 -73.5t-71 -34.5q102 -7 102 -73q0 -25 -7 -77t-7 -74q0 -35 22 -35q40 0 124 112l6 -4
q-96 -129 -151 -129q-28 0 -45 16t-17 50q0 17 7 68t7 70q0 38 -13 54.5t-60 16.5h-18l-107 -267q-5 0 -16 1t-16 1t-16 -1t-17 -1l260 647q-12 18 -38 31t-57 13q-63 0 -95 -40.5t-75 -150.5l-4 -10h124v-8h-127l-119 -359q-56 -170 -162 -264.5t-200 -94.5q-15 0 -25 7.5
t-10 19.5q0 27 35 27q11 0 43 -8t49 -8q48 0 96.5 66t86.5 181l120 362q16 48 28 71h-89v8h93q90 210 231 210q35 0 62.5 -15t38.5 -32q33 11 50 25.5t33 44.5z" />
    <glyph glyph-name="gf" unicode="gf" horiz-adv-x="695" 
d="M111 -236q-95 0 -167 18.5t-72 61.5q0 51 163 121l45 19l-34 16q-34 16 -51.5 31t-17.5 39q0 26 22 43.5t77 38.5l32 12q-33 30 -33 96q0 85 64 161.5t151 76.5q35 0 71 -32l5 5q73 73 118 73q13 0 22.5 -7t9.5 -19q0 -27 -32 -27q-10 0 -26 5.5t-28 5.5q-22 0 -58 -36
l-6 -6q25 -31 25 -88q0 -86 -65 -161.5t-150 -75.5q-27 0 -62 24l-35 -13q-59 -23 -59 -47q0 -14 12 -23.5t43 -23.5l148 -68q75 -36 104 -60t29 -53q0 -22 -14 -42q31 24 51 67t55 153l120 362q16 48 28 71h-89v8h93q49 98 129.5 153.5t168.5 55.5q15 0 25 -7.5t10 -19.5
q0 -27 -35 -27q-11 0 -43 8t-49 8q-50 0 -77.5 -31t-67.5 -130l-4 -10h123v-8h-126l-119 -359q-22 -67 -42 -112.5t-54.5 -96t-76.5 -80.5t-106 -50t-145 -20zM111 -229q99 0 147.5 20t48.5 54q0 22 -24 39.5t-87 46.5l-106 49l-51 -22q-42 -17 -72 -46t-30 -62
q0 -40 49 -59.5t125 -19.5zM174 142q36 0 77 50.5t67 119.5t26 123q0 56 -52 56q-36 0 -77 -50t-67 -118.5t-26 -121.5q0 -30 12 -44.5t40 -14.5z" />
    <glyph glyph-name="gg" unicode="gg" horiz-adv-x="864" 
d="M111 -236q-95 0 -167 18.5t-72 61.5q0 51 163 121l45 19l-34 16q-34 16 -51.5 31t-17.5 39q0 26 22 43.5t77 38.5l32 12q-33 30 -33 96q0 85 64 161.5t151 76.5q35 0 71 -32l5 5q73 73 118 73q13 0 22.5 -7t9.5 -19q0 -27 -32 -27q-10 0 -26 5.5t-28 5.5q-22 0 -58 -36
l-6 -6q25 -31 25 -88q0 -86 -65 -161.5t-150 -75.5q-27 0 -62 24l-35 -13q-59 -23 -59 -47q0 -14 10.5 -22t44.5 -25l118 -58q67 -33 95 -59.5t28 -58.5q0 -52 -63.5 -82t-141.5 -30zM111 -229q71 0 113.5 23t42.5 56q0 25 -22 43.5t-79 47.5l-76 39l-51 -22
q-42 -17 -72 -46t-30 -62q0 -40 49 -59.5t125 -19.5zM174 142q36 0 77 50.5t67 119.5t26 123q0 56 -52 56q-36 0 -77 -50t-67 -118.5t-26 -121.5q0 -30 12 -44.5t40 -14.5zM553 -236q-35 0 -70 3.5t-70 12t-57 25t-22 39.5q0 48 153 127l25 13l-34 16q-34 16 -51.5 31
t-17.5 39q0 26 22 43.5t77 38.5l32 12q-33 30 -33 96q0 85 64 161.5t151 76.5q35 0 71 -32l5 5q73 73 118 73q13 0 22.5 -7t9.5 -19q0 -27 -32 -27q-10 0 -26 5.5t-28 5.5q-22 0 -58 -36l-6 -6q25 -31 25 -88q0 -86 -65 -161.5t-150 -75.5q-27 0 -62 24l-35 -13
q-59 -23 -59 -47q0 -14 12 -23.5t43 -23.5l148 -68q75 -36 104 -60t29 -53q0 -107 -235 -107zM553 -229q186 0 186 74q0 22 -24 39.5t-87 46.5l-106 49l-31 -16q-97 -51 -97 -114q0 -39 48 -59t111 -20zM606 142q36 0 77 50.5t67 119.5t26 123q0 56 -52 56q-36 0 -77 -50
t-67 -118.5t-26 -121.5q0 -30 12 -44.5t40 -14.5z" />
    <glyph glyph-name="ggf" unicode="ggf" horiz-adv-x="1127" 
d="M111 -236q-95 0 -167 18.5t-72 61.5q0 51 163 121l45 19l-34 16q-34 16 -51.5 31t-17.5 39q0 26 22 43.5t77 38.5l32 12q-33 30 -33 96q0 85 64 161.5t151 76.5q35 0 71 -32l5 5q73 73 118 73q13 0 22.5 -7t9.5 -19q0 -27 -32 -27q-10 0 -26 5.5t-28 5.5q-22 0 -58 -36
l-6 -6q25 -31 25 -88q0 -86 -65 -161.5t-150 -75.5q-27 0 -62 24l-35 -13q-59 -23 -59 -47q0 -14 10.5 -22t44.5 -25l118 -58q67 -33 95 -59.5t28 -58.5q0 -52 -63.5 -82t-141.5 -30zM111 -229q71 0 113.5 23t42.5 56q0 25 -22 43.5t-79 47.5l-76 39l-51 -22
q-42 -17 -72 -46t-30 -62q0 -40 49 -59.5t125 -19.5zM174 142q36 0 77 50.5t67 119.5t26 123q0 56 -52 56q-36 0 -77 -50t-67 -118.5t-26 -121.5q0 -30 12 -44.5t40 -14.5zM543 -229q99 0 147.5 20t48.5 54q0 22 -24 39.5t-87 46.5l-106 49l-31 -16q-97 -51 -97 -114
q0 -38 47 -58.5t102 -20.5zM606 142q36 0 77 50.5t67 119.5t26 123q0 56 -52 56q-36 0 -77 -50t-67 -118.5t-26 -121.5q0 -30 12 -44.5t40 -14.5zM543 -236q-72 0 -140.5 19t-68.5 61q0 48 153 127l25 13l-34 16q-34 16 -51.5 31t-17.5 39q0 26 22 43.5t77 38.5l32 12
q-33 30 -33 96q0 85 64 161.5t151 76.5q35 0 71 -32l5 5q73 73 118 73q13 0 22.5 -7t9.5 -19q0 -27 -32 -27q-10 0 -26 5.5t-28 5.5q-22 0 -58 -36l-6 -6q25 -31 25 -88q0 -86 -65 -161.5t-150 -75.5q-27 0 -62 24l-35 -13q-59 -23 -59 -47q0 -14 12 -23.5t43 -23.5l148 -68
q75 -36 104 -60t29 -53q0 -22 -14 -42q31 24 51 67t55 153l120 362q16 48 28 71h-89v8h93q49 98 129.5 153.5t168.5 55.5q15 0 25 -7.5t10 -19.5q0 -27 -35 -27q-11 0 -43 8t-49 8q-50 0 -77.5 -31t-67.5 -130l-4 -10h123v-8h-126l-117 -352q-19 -58 -35.5 -97.5t-41.5 -86
t-55 -76t-71.5 -55.5t-97.5 -38.5t-125 -12.5z" />
    <glyph glyph-name="ggj" unicode="ggj" horiz-adv-x="1120" 
d="M111 -236q-95 0 -167 18.5t-72 61.5q0 51 163 121l45 19l-34 16q-34 16 -51.5 31t-17.5 39q0 26 22 43.5t77 38.5l32 12q-33 30 -33 96q0 85 64 161.5t151 76.5q35 0 71 -32l5 5q73 73 118 73q13 0 22.5 -7t9.5 -19q0 -27 -32 -27q-10 0 -26 5.5t-28 5.5q-22 0 -58 -36
l-6 -6q25 -31 25 -88q0 -86 -65 -161.5t-150 -75.5q-27 0 -62 24l-35 -13q-59 -23 -59 -47q0 -14 10.5 -22t44.5 -25l118 -58q67 -33 95 -59.5t28 -58.5q0 -52 -63.5 -82t-141.5 -30zM111 -229q71 0 113.5 23t42.5 56q0 25 -22 43.5t-79 47.5l-76 39l-51 -22
q-42 -17 -72 -46t-30 -62q0 -40 49 -59.5t125 -19.5zM174 142q36 0 77 50.5t67 119.5t26 123q0 56 -52 56q-36 0 -77 -50t-67 -118.5t-26 -121.5q0 -30 12 -44.5t40 -14.5zM788 -129q0 -26 -18 -47q69 48 134 225l114 316q2 5 12 30.5t14.5 40t4.5 22.5q0 18 -17 18
q-30 0 -114 -111l-6 4q93 129 149 129q23 0 35.5 -13.5t12.5 -32.5q0 -23 -28 -98l-90 -236q-101 -261 -267 -326q-66 -28 -181 -28q-74 0 -141.5 19t-67.5 61q0 48 153 127l25 13l-34 16q-34 16 -51.5 31t-17.5 39q0 26 22 43.5t77 38.5l32 12q-33 30 -33 96q0 85 64 161.5
t151 76.5q35 0 71 -32l5 5q73 73 118 73q13 0 22.5 -7t9.5 -19q0 -27 -32 -27q-10 0 -26 5.5t-28 5.5q-22 0 -58 -36l-6 -6q25 -31 25 -88q0 -86 -65 -161.5t-150 -75.5q-27 0 -62 24l-35 -13q-59 -23 -59 -47q0 -14 12 -23.5t43 -23.5l148 -68q75 -36 104 -60t29 -53z
M606 142q36 0 77 50.5t67 119.5t26 123q0 56 -52 56q-36 0 -77 -50t-67 -118.5t-26 -121.5q0 -30 12 -44.5t40 -14.5zM739 -155q0 22 -24 39.5t-87 46.5l-106 49l-31 -16q-97 -51 -97 -114q0 -38 46.5 -58.5t102.5 -20.5q99 0 147.5 20t48.5 54zM1139 596q-20 0 -33 13
t-13 33t13 33.5t33 13.5t33.5 -13.5t13.5 -33.5t-13.5 -33t-33.5 -13z" />
    <glyph glyph-name="ggy" unicode="ggy" horiz-adv-x="1292" 
d="M111 -236q-95 0 -167 18.5t-72 61.5q0 51 163 121l45 19l-34 16q-34 16 -51.5 31t-17.5 39q0 26 22 43.5t77 38.5l32 12q-33 30 -33 96q0 85 64 161.5t151 76.5q35 0 71 -32l5 5q73 73 118 73q13 0 22.5 -7t9.5 -19q0 -27 -32 -27q-10 0 -26 5.5t-28 5.5q-22 0 -58 -36
l-6 -6q25 -31 25 -88q0 -86 -65 -161.5t-150 -75.5q-27 0 -62 24l-35 -13q-59 -23 -59 -47q0 -14 10.5 -22t44.5 -25l118 -58q67 -33 95 -59.5t28 -58.5q0 -52 -63.5 -82t-141.5 -30zM111 -229q71 0 113.5 23t42.5 56q0 25 -22 43.5t-79 47.5l-76 39l-51 -22
q-42 -17 -72 -46t-30 -62q0 -40 49 -59.5t125 -19.5zM174 142q36 0 77 50.5t67 119.5t26 123q0 56 -52 56q-36 0 -77 -50t-67 -118.5t-26 -121.5q0 -30 12 -44.5t40 -14.5zM543 -229q99 0 147.5 20t48.5 54q0 22 -24 39.5t-87 46.5l-106 49l-31 -16q-97 -51 -97 -114
q0 -38 46.5 -58.5t102.5 -20.5zM606 142q36 0 77 50.5t67 119.5t26 123q0 56 -52 56q-36 0 -77 -50t-67 -118.5t-26 -121.5q0 -30 12 -44.5t40 -14.5zM543 -236q-74 0 -141.5 19t-67.5 61q0 48 153 127l25 13l-34 16q-34 16 -51.5 31t-17.5 39q0 26 22 43.5t77 38.5l32 12
q-33 30 -33 96q0 85 64 161.5t151 76.5q35 0 71 -32l5 5q73 73 118 73q13 0 22.5 -7t9.5 -19q0 -27 -32 -27q-10 0 -26 5.5t-28 5.5q-22 0 -58 -36l-6 -6q25 -31 25 -88q0 -86 -65 -161.5t-150 -75.5q-27 0 -62 24l-35 -13q-59 -23 -59 -47q0 -14 12 -23.5t43 -23.5l148 -68
q75 -36 104 -60t29 -53q0 -28 -22 -50q115 62 227 181q24 182 24 358q0 28 -0.5 42t-3 32t-9.5 25.5t-18 7.5q-14 0 -34.5 -26.5t-59.5 -89.5l-6 4q29 47 45 71t42.5 48t48.5 24q20 0 32.5 -11t17.5 -33t6 -39.5t1 -46.5q0 -130 -17 -291q114 130 155.5 199.5t41.5 128.5
q0 6 -2.5 27t-2.5 29q0 37 28 37t28 -31q0 -52 -58 -153.5t-191 -249.5l-7 -64q-6 0 -15 1t-15 1q-4 0 -11 -1t-11 -1q-73 -80 -165.5 -145t-168.5 -80q-58 -11 -125 -11z" />
    <glyph glyph-name="gj" unicode="gj" horiz-adv-x="688" 
d="M472 49l114 316q2 5 12 30.5t14.5 40t4.5 22.5q0 18 -17 18q-30 0 -114 -111l-6 4q93 129 149 129q23 0 35.5 -13.5t12.5 -32.5q0 -23 -28 -98l-90 -236q-101 -261 -267 -326q-66 -28 -181 -28q-95 0 -167 18.5t-72 61.5q0 51 163 121l45 19l-34 16q-34 16 -51.5 31
t-17.5 39q0 26 22 43.5t77 38.5l32 12q-33 30 -33 96q0 85 64 161.5t151 76.5q35 0 71 -32l5 5q73 73 118 73q13 0 22.5 -7t9.5 -19q0 -27 -32 -27q-10 0 -26 5.5t-28 5.5q-22 0 -58 -36l-6 -6q25 -31 25 -88q0 -86 -65 -161.5t-150 -75.5q-27 0 -62 24l-35 -13
q-59 -23 -59 -47q0 -14 12 -23.5t43 -23.5l148 -68q75 -36 104 -60t29 -53q0 -26 -18 -47q69 48 134 225zM111 -229q99 0 147.5 20t48.5 54q0 22 -24 39.5t-87 46.5l-106 49l-51 -22q-42 -17 -72 -46t-30 -62q0 -40 49 -59.5t125 -19.5zM174 142q36 0 77 50.5t67 119.5
t26 123q0 56 -52 56q-36 0 -77 -50t-67 -118.5t-26 -121.5q0 -30 12 -44.5t40 -14.5zM707 596q-20 0 -33 13t-13 33t13 33.5t33 13.5t33.5 -13.5t13.5 -33.5t-13.5 -33t-33.5 -13z" />
    <glyph glyph-name="gy" unicode="gy" horiz-adv-x="860" 
d="M590 498q20 0 32.5 -11t17.5 -33t6 -39.5t1 -46.5q0 -130 -17 -291q114 130 155.5 199.5t41.5 128.5q0 6 -2.5 27t-2.5 29q0 37 28 37t28 -31q0 -52 -58 -153.5t-191 -249.5l-7 -64q-6 0 -15 1t-15 1q-4 0 -11 -1t-11 -1q-73 -80 -165.5 -145t-168.5 -80
q-58 -11 -125 -11q-95 0 -167 18.5t-72 61.5q0 51 163 121l45 19l-34 16q-34 16 -51.5 31t-17.5 39q0 26 22 43.5t77 38.5l32 12q-33 30 -33 96q0 85 64 161.5t151 76.5q35 0 71 -32l5 5q73 73 118 73q13 0 22.5 -7t9.5 -19q0 -27 -32 -27q-10 0 -26 5.5t-28 5.5
q-22 0 -58 -36l-6 -6q25 -31 25 -88q0 -86 -65 -161.5t-150 -75.5q-27 0 -62 24l-35 -13q-59 -23 -59 -47q0 -14 12 -23.5t43 -23.5l148 -68q75 -36 104 -60t29 -53q0 -28 -22 -50q115 62 227 181q24 182 24 358q0 28 -0.5 42t-3 32t-9.5 25.5t-18 7.5q-14 0 -34.5 -26.5
t-59.5 -89.5l-6 4q29 47 45 71t42.5 48t48.5 24zM111 -229q99 0 147.5 20t48.5 54q0 22 -24 39.5t-87 46.5l-106 49l-51 -22q-42 -17 -72 -46t-30 -62q0 -40 49 -59.5t125 -19.5zM174 142q36 0 77 50.5t67 119.5t26 123q0 56 -52 56q-36 0 -77 -50t-67 -118.5t-26 -121.5
q0 -30 12 -44.5t40 -14.5z" />
    <glyph glyph-name="qf" unicode="qf" horiz-adv-x="722" 
d="M265 -226h-10q-14 0 -34.5 1.5t-39.5 1.5t-43 -1.5t-36 -1.5h-43v7h44q24 0 38.5 10t26.5 38l218 562l-179 -269q-45 -68 -77.5 -99t-65.5 -31q-25 0 -42.5 15.5t-17.5 50.5q0 43 24.5 116t63 145.5t93 125.5t106.5 53q63 0 109 -76q36 14 53.5 29t33.5 47l6 -2
l-260 -663q-8 -18 -8 -29q0 -23 31 -23h9q35 0 63 12t47 32t35.5 52.5t28.5 65.5t27 78q2 6 3 9.5t3 9t3 9.5l120 362q16 48 28 71h-89v8h93q49 98 129.5 153.5t168.5 55.5q15 0 25 -7.5t10 -19.5q0 -27 -35 -27q-11 0 -43 8t-49 8q-50 0 -77.5 -31t-67.5 -130l-4 -10h123
v-8h-126l-119 -359q-60 -182 -132 -265.5t-165 -83.5zM95 14q28 0 106 113l193 289q-15 27 -41.5 49.5t-49.5 22.5q-50 0 -106.5 -90t-90 -192.5t-33.5 -154.5q0 -37 22 -37z" />
    <glyph glyph-name="qj" unicode="qj" horiz-adv-x="715" 
d="M499 49l114 316q2 5 12 30.5t14.5 40t4.5 22.5q0 18 -17 18q-30 0 -114 -111l-6 4q93 129 149 129q23 0 35.5 -13.5t12.5 -32.5q0 -23 -28 -98l-90 -236q-67 -175 -151 -259.5t-175 -84.5h-5q-14 0 -34.5 1.5t-39.5 1.5t-43 -1.5t-36 -1.5h-43v7h44q25 0 39.5 10t25.5 38
l218 562l-179 -269q-45 -68 -77.5 -99t-65.5 -31q-25 0 -42.5 15.5t-17.5 50.5q0 43 24.5 116t63 145.5t93 125.5t106.5 53q63 0 109 -76q36 14 53.5 29t33.5 47l6 -2l-260 -663q-8 -18 -8 -29q0 -23 31 -23h4q85 2 135 61.5t104 206.5zM95 14q28 0 106 113l193 289
q-15 27 -41.5 49.5t-49.5 22.5q-50 0 -106.5 -90t-90 -192.5t-33.5 -154.5q0 -37 22 -37zM734 596q-20 0 -33 13t-13 33t13 33.5t33 13.5t33.5 -13.5t13.5 -33.5t-13.5 -33t-33.5 -13z" />
    <glyph glyph-name=".notdef" horiz-adv-x="547" 
d="M319 -226h-444l383 1002h445zM261 757l-368 -962l390 480zM294 272l22 -478l368 958zM270 766l23 -479l389 479h-412zM284 260l-387 -476h410z" />
    <glyph glyph-name=".null" horiz-adv-x="0" 
 />
    <glyph glyph-name="nonmarkingreturn" horiz-adv-x="333" 
 />
    <glyph glyph-name="NULL" horiz-adv-x="0" 
 />
    <glyph glyph-name="NULL" horiz-adv-x="0" 
 />
    <glyph glyph-name="CR" unicode="&#xd;" horiz-adv-x="250" 
 />
    <glyph glyph-name="space" unicode=" " horiz-adv-x="168" 
 />
    <glyph glyph-name="exclam" unicode="!" horiz-adv-x="245" 
d="M104 206l-8 3l15 38q16 40 55 170q49 179 73 246q8 25 33 25q13 0 23.5 -8.5t10.5 -23.5q0 -9 -7 -29t-20.5 -48t-26 -54t-30 -60.5t-26.5 -53.5q-57 -116 -77 -167zM38 -8q-21 0 -36.5 15t-15.5 37t15.5 37t36.5 15t36.5 -15t15.5 -37t-15.5 -37t-36.5 -15z" />
    <glyph glyph-name="quotedbl" unicode="&#x22;" horiz-adv-x="301" 
d="M167 462l-6 2l4 12q21 65 27.5 122.5t8.5 63.5q7 29 36 29q17 0 27.5 -10t10.5 -28q0 -15 -15 -34t-41.5 -57t-46.5 -88zM294 462l-6 2l4 12q21 65 27.5 122.5t8.5 63.5q7 29 36 29q17 0 27.5 -10t10.5 -28q0 -15 -15 -34t-41.5 -57t-46.5 -88z" />
    <glyph glyph-name="numbersign" unicode="#" horiz-adv-x="550" 
d="M191 458v9h118l132 204l8 -5l-128 -199h142l132 204l8 -5l-128 -199h114v-9h-120l-151 -236h112v-9h-118l-131 -204l-9 5l128 199h-142l-131 -204l-9 5l128 199h-114v9h120l151 236h-112zM315 458l-151 -236h142l151 236h-142z" />
    <glyph glyph-name="dollar" unicode="$" horiz-adv-x="491" 
d="M127 -74l-9 3l30 77q-64 16 -106.5 58.5t-42.5 95.5q0 41 32 41q14 0 22 -9t8 -22q0 -8 -1.5 -18.5t-1.5 -20.5q0 -95 93 -116l120 312l-18 17q-82 79 -82 152q0 83 56.5 134t139.5 51q13 0 38 -5l30 78l9 -3l-30 -78q48 -15 83.5 -50.5t35.5 -73.5q0 -40 -33 -40
q-14 0 -21.5 9t-7.5 21q0 4 1.5 16.5t1.5 20.5q0 69 -63 89l-108 -280l27 -26q50 -50 70.5 -83.5t20.5 -79.5q0 -59 -35.5 -105t-84.5 -68.5t-98 -22.5q-29 0 -46 4zM278 321l-118 -308q19 -3 43 -3q69 0 120 39t51 100q0 82 -96 172zM215 540q0 -36 18 -69.5t63 -78.5
l106 276q-15 4 -35 4q-69 0 -110.5 -36t-41.5 -96z" />
    <glyph glyph-name="percent" unicode="%" horiz-adv-x="640" 
d="M218 346q-40 0 -65.5 29.5t-25.5 76.5q0 46 24.5 99.5t74 95t108.5 41.5q42 0 64 -36q27 -43 75 -43q90 0 181 78l7 -7l-614 -690l-7 6l587 659q-81 -55 -154 -55q-40 0 -66 26q3 -10 3 -23q0 -81 -58.5 -169t-133.5 -88zM385 -8q-40 0 -65.5 29.5t-25.5 76.5
q0 46 24.5 99.5t74 95t108.5 41.5q35 0 55.5 -24t20.5 -61q0 -81 -58.5 -169t-133.5 -88zM385 1q69 0 126 85t57 163q0 34 -17.5 55t-49.5 21q-36 0 -81 -58q-34 -45 -58.5 -105.5t-24.5 -101.5q0 -59 48 -59zM218 355q69 0 126 85t57 163q0 34 -17.5 55t-49.5 21
q-36 0 -82 -59q-34 -44 -58 -104.5t-24 -101.5q0 -59 48 -59z" />
    <glyph glyph-name="ampersand" unicode="&#x26;" horiz-adv-x="754" 
d="M414 683q-66 0 -107.5 -55.5t-41.5 -129.5q0 -30 6 -52q39 11 71 11q92 0 92 -46q0 -17 -19 -30t-53 -13q-74 0 -120 52q-53 -31 -85 -90.5t-32 -142.5q0 -89 54 -138t142 -49q70 0 127.5 21t92 53t53 68t18.5 70q0 49 -27.5 80.5t-62.5 31.5t-68.5 -29.5t-33.5 -69.5
q0 -23 11.5 -36.5t29.5 -13.5q38 0 53 38l6 -2q-20 -44 -64 -44q-31 0 -55 20.5t-24 56.5q0 81 119 126l138 52q126 48 169 85.5t43 82.5q0 34 -24.5 56t-55.5 22q-27 0 -50 -16.5t-23 -41.5q0 -14 21 -31t21 -35q0 -14 -8.5 -21.5t-20.5 -7.5q-18 0 -28.5 16t-10.5 43
q0 45 29.5 73t69.5 28q36 0 62.5 -25.5t26.5 -66.5q0 -135 -199 -204l-132 -48q37 0 66.5 -33.5t29.5 -85.5q0 -35 -18.5 -72t-53.5 -71t-94.5 -55.5t-132.5 -21.5q-46 0 -91.5 13t-86 37.5t-65.5 65.5t-25 93q0 75 52.5 136.5t127.5 94.5q-24 34 -24 78q0 80 63.5 130.5
t141.5 50.5q60 0 108.5 -39.5t48.5 -80.5q0 -36 -31 -36q-13 0 -21.5 9t-8.5 23q0 8 1 17t1 15q0 34 -22 59t-76 25zM342 449q-38 0 -68 -13q22 -60 88 -60q29 0 46 10t17 25q0 38 -83 38z" />
    <glyph glyph-name="quotesingle" unicode="'" horiz-adv-x="174" 
d="M167 462l-6 2l4 12q21 65 27.5 122.5t8.5 63.5q7 29 36 29q17 0 27.5 -10t10.5 -28q0 -15 -15 -34t-41.5 -57t-46.5 -88z" />
    <glyph glyph-name="parenleft" unicode="(" horiz-adv-x="282" 
d="M446 728l4 -7q-170 -113 -267.5 -304t-97.5 -399q0 -109 31 -189l-7 -4q-26 58 -47 144.5t-21 143.5q0 365 405 615z" />
    <glyph glyph-name="parenright" unicode=")" horiz-adv-x="282" 
d="M-142 -175l-4 7q170 113 267.5 304t97.5 399q0 109 -31 189l7 4q26 -58 47 -144.5t21 -143.5q0 -365 -405 -615z" />
    <glyph glyph-name="asterisk" unicode="*" horiz-adv-x="365" 
d="M307 400q-12 0 -20.5 8.5t-8.5 20.5q0 17 13 57.5t13 70.5q-25 -15 -53.5 -45.5t-43.5 -39.5q-8 -5 -17 -5q-12 0 -19.5 9t-7.5 21q0 15 14 24q14 8 56.5 17t68.5 24q-26 14 -68 23.5t-57 18.5q-14 9 -14 25q0 12 8 20.5t20 8.5q8 0 16 -5q15 -9 43.5 -40t53.5 -46
q0 30 -13 70.5t-13 57.5q0 12 8.5 20.5t20.5 8.5t20.5 -8.5t8.5 -20.5q0 -17 -13 -57.5t-13 -70.5q25 15 53.5 46t43.5 40q8 5 16 5q12 0 20 -8.5t8 -20.5q0 -16 -14 -25q-15 -9 -57 -18.5t-68 -23.5q26 -15 68.5 -24t56.5 -17q14 -9 14 -24q0 -12 -7.5 -21t-19.5 -9
q-9 0 -17 5q-15 9 -43.5 39.5t-53.5 45.5q0 -30 13 -70.5t13 -57.5q0 -12 -8.5 -20.5t-20.5 -8.5z" />
    <glyph glyph-name="plus" unicode="+" horiz-adv-x="493" 
d="M368 541l-82 -214h191v-9h-195l-82 -215l-9 3l81 212h-191v9h195l83 217z" />
    <glyph glyph-name="comma" unicode="," horiz-adv-x="226" 
d="M35 -3q-21 0 -34.5 14t-13.5 34q0 21 14 35.5t37 14.5t38 -14.5t15 -42.5q0 -57 -43 -96t-94 -48l-1 6q46 9 83 40.5t44 76.5q-18 -20 -45 -20z" />
    <glyph glyph-name="hyphen" unicode="-" horiz-adv-x="304" 
d="M247 262h-155v39h155v-39z" />
    <glyph glyph-name="period" unicode="." horiz-adv-x="219" 
d="M35 -6q-20 0 -35 14.5t-15 35.5t15 35.5t35 14.5t35 -14.5t15 -35.5t-15 -35.5t-35 -14.5z" />
    <glyph glyph-name="slash" unicode="/" horiz-adv-x="328" 
d="M481 719l-612 -893l-8 5l612 893z" />
    <glyph glyph-name="zero" unicode="0" horiz-adv-x="571" 
d="M202 -2q64 0 128.5 68.5t108.5 162.5t71.5 187t27.5 147q0 120 -99 120q-64 0 -128.5 -68.5t-108.5 -162.5t-71.5 -187t-27.5 -147q0 -120 99 -120zM442 691q65 0 104 -57t39 -132q0 -81 -31.5 -171.5t-83 -166t-124.5 -125t-147 -49.5q-65 0 -104 57t-39 132
q0 81 31.5 171.5t83 166t124.5 125t147 49.5z" />
    <glyph glyph-name="one" unicode="1" horiz-adv-x="324" 
d="M61 63l191 497q3 8 3 12q0 11 -12 11q-11 0 -42 -14l-21 -9l-3 8q64 28 119 64t68 64l6 -2l-243 -632q-7 -18 -7 -30q0 -24 32 -24h19v-8h-34q-9 0 -30 1.5t-36 1.5t-35.5 -1.5t-30.5 -1.5h-40v8h23q29 0 44.5 11.5t28.5 43.5z" />
    <glyph glyph-name="two" unicode="2" horiz-adv-x="500" 
d="M389 62l-73 -125l-6 3q12 26 12 35q0 25 -38 25h-329v4l113 87q68 53 117 93t109.5 97t98 105t64 103t26.5 103q0 91 -90 91q-51 0 -90 -32.5t-75 -94.5q-13 -25 -35 -25q-29 0 -29 31q0 39 78 84t152 45q56 0 105 -36t49 -96q0 -29 -14 -61.5t-45 -68.5t-61.5 -66.5
t-82 -72t-86.5 -68.5t-95.5 -72.5t-89.5 -67.5l-26 -20h341z" />
    <glyph glyph-name="three" unicode="3" horiz-adv-x="541" 
d="M417 683q-54 0 -94 -32t-75 -95q-13 -25 -34 -25q-13 0 -21.5 8.5t-8.5 21.5q0 41 80.5 85.5t152.5 44.5q55 0 101 -33t46 -84q0 -60 -57 -109t-140 -82q41 3 80 -31.5t39 -92.5q0 -97 -95.5 -183t-206.5 -86q-86 0 -133 49t-47 107q0 44 35 44q12 0 21 -9t9 -23
q0 -9 -1.5 -26t-1.5 -29q0 -105 120 -105q61 0 117 53t87 125t31 136q0 62 -52 62q-18 0 -56 -16l-80 -37l-4 8l108 50q70 32 117 91t47 128q0 85 -84 85z" />
    <glyph glyph-name="four" unicode="4" horiz-adv-x="525" 
d="M286 205l167 438l-441 -438h274zM231 63l51 133h-287v5l483 480q7 0 16 -0.5t12 -0.5t13 0.5t16 0.5l-183 -475h9q32 0 65.5 25t107.5 105l5 -4l-80 -136h-110l-52 -134q-7 -15 -7 -30q0 -24 32 -24h19v-8h-34q-9 0 -30 1.5t-36 1.5t-35.5 -1.5t-30.5 -1.5h-38v8h21
q29 0 44.5 11.5t28.5 43.5z" />
    <glyph glyph-name="five" unicode="5" horiz-adv-x="530" 
d="M10 124q0 17 9.5 27t24.5 10q13 0 21.5 -9t8.5 -22q0 -5 -0.5 -18t-0.5 -20q0 -36 25.5 -65t77.5 -29q66 0 120.5 55.5t81.5 128.5t27 137q0 122 -91 122q-99 0 -186 -103l-7 5l86 169l61 119l26 50h248q34 0 51 8t34 34l6 -3l-62 -101h-298l-126 -248q79 78 167 78
q64 0 109.5 -44.5t45.5 -112.5q0 -117 -89 -209.5t-205 -92.5q-72 0 -118.5 42t-46.5 92z" />
    <glyph glyph-name="six" unicode="6" horiz-adv-x="530" 
d="M565 692v-6q-245 -20 -387 -300q70 63 146 63q64 0 110 -43t46 -118q0 -112 -88 -205t-196 -93q-63 0 -102.5 53.5t-39.5 135.5q0 190 147 342.5t364 170.5zM322 441q-78 0 -152 -73q-34 -73 -51.5 -142t-17.5 -110q0 -48 21.5 -83.5t73.5 -35.5q62 0 114.5 56.5t79 129
t26.5 133.5q0 125 -94 125z" />
    <glyph glyph-name="seven" unicode="7" horiz-adv-x="456" 
d="M177 25q-7 -31 -40 -31q-15 0 -26 10.5t-11 27.5q0 10 12 43q133 339 397 544h-258q-35 0 -59 -16t-48 -53l-6 3l96 169l6 -3q-9 -20 -9 -26q0 -12 18 -12h344v-4q-103 -79 -171.5 -149.5t-115 -150.5t-74 -158t-55.5 -194z" />
    <glyph glyph-name="eight" unicode="8" horiz-adv-x="538" 
d="M556 544q0 -130 -183 -193q38 -44 58 -81t20 -83q0 -90 -66.5 -143.5t-153.5 -53.5q-85 0 -141.5 47t-56.5 126q0 166 226 224q-51 69 -51 131q0 79 52 126t129 47q66 0 116.5 -41t50.5 -106zM315 323l-52 58q-86 -26 -125.5 -91t-39.5 -145q0 -65 31 -106t102 -41
q75 0 120 42t45 114q0 36 -13 69t-26.5 50.5t-41.5 49.5zM318 412l50 -56q133 56 133 204q0 60 -29 91.5t-83 31.5q-63 0 -98.5 -35t-35.5 -95q0 -71 63 -141z" />
    <glyph glyph-name="nine" unicode="9" horiz-adv-x="530" 
d="M33 -11v6q245 20 387 300q-70 -63 -146 -63q-64 0 -110 43t-46 118q0 112 88 205t196 93q63 0 102.5 -53.5t39.5 -135.5q0 -190 -147 -342.5t-364 -170.5zM276 240q78 0 152 73q34 73 51.5 142t17.5 110q0 48 -21.5 83.5t-73.5 35.5q-62 0 -114.5 -56.5t-79 -129
t-26.5 -133.5q0 -125 94 -125z" />
    <glyph glyph-name="colon" unicode=":" horiz-adv-x="229" 
d="M185 372q-20 0 -35 14.5t-15 35.5t15 35.5t35 14.5t35 -14.5t15 -35.5t-15 -35.5t-35 -14.5zM40 -6q-20 0 -35 14.5t-15 35.5t15 35.5t35 14.5t35 -14.5t15 -35.5t-15 -35.5t-35 -14.5z" />
    <glyph glyph-name="semicolon" unicode=";" horiz-adv-x="236" 
d="M185 372q-20 0 -35 14.5t-15 35.5t15 35.5t35 14.5t35 -14.5t15 -35.5t-15 -35.5t-35 -14.5zM40 -3q-21 0 -34.5 14t-13.5 34q0 21 14 35.5t37 14.5t38 -14.5t15 -42.5q0 -57 -43 -96t-94 -48l-1 6q46 9 83 40.5t44 76.5q-17 -20 -45 -20z" />
    <glyph glyph-name="less" unicode="&#x3c;" horiz-adv-x="438" 
d="M82 327l405 174l4 -8l-398 -171l263 -170l-5 -8l-271 175z" />
    <glyph glyph-name="equal" unicode="=" horiz-adv-x="493" 
d="M116 409v9h396v-9h-396zM47 229v9h396v-9h-396z" />
    <glyph glyph-name="greater" unicode="&#x3e;" horiz-adv-x="438" 
d="M424 319l-405 -174l-4 8l398 171l-263 170l5 8l271 -175z" />
    <glyph glyph-name="question" unicode="?" horiz-adv-x="326" 
d="M125 206l-8 3l77 202q89 35 141 74.5t52 90.5q0 27 -17.5 42.5t-47.5 15.5q-22 0 -46 -6.5t-32 -6.5q-14 0 -23 8t-9 21q0 38 69 38q49 0 81.5 -30t32.5 -81q0 -143 -224 -250zM56 -8q-21 0 -36.5 15t-15.5 37t15.5 37t36.5 15t36.5 -15t15.5 -37t-15.5 -37t-36.5 -15z
" />
    <glyph glyph-name="at" unicode="@" horiz-adv-x="849" 
d="M480 481q57 0 102 -70q38 14 54.5 27.5t29.5 42.5l6 -2l-122 -293q-39 -95 -39 -123q0 -42 40 -42q62 0 116.5 45.5t84.5 111.5t30 129q0 142 -100.5 231.5t-242.5 89.5q-155 0 -263.5 -112.5t-108.5 -270.5q0 -162 108 -271.5t266 -109.5q109 0 202.5 56.5t130.5 153.5
l8 -3q-37 -99 -133.5 -157.5t-207.5 -58.5q-161 0 -272 112.5t-111 277.5q0 161 111.5 276.5t269.5 115.5q146 0 249 -92t103 -238q0 -105 -71.5 -200.5t-170.5 -95.5q-39 0 -64 22t-25 59q0 47 37 125l70 161l-173 -247q-40 -56 -73 -88t-64 -32q-55 0 -55 61q0 35 24 102
t60.5 136t90 120t103.5 51zM289 38q29 0 99 98l189 269q-40 66 -85 66q-49 0 -103.5 -86t-86.5 -180.5t-32 -137.5q0 -29 19 -29z" />
    <glyph glyph-name="A" unicode="A" horiz-adv-x="592" 
d="M512 0h-30q-6 0 -27 1.5t-36 1.5q-17 0 -43 -1.5t-30 -1.5h-20v8h11q25 1 40.5 16.5t16.5 41.5l2 123h-297l-50 -67q-34 -45 -35 -71q0 -43 48 -43h11v-8h-24q-11 0 -36 1.5t-35 1.5q-8 0 -35 -1.5t-34 -1.5h-19v8h7q31 0 64 28t80 91l358 476l-2 78q8 0 18.5 -1t16.5 -1
t15.5 1t16.5 1l-7 -616q0 -31 12 -44t40 -13h3v-8zM396 198l4 392l-294 -392h290z" />
    <glyph glyph-name="B" unicode="B" horiz-adv-x="565" 
d="M220 0h-124q-11 0 -30 0.5t-34 0.5q-14 0 -35 -0.5t-31 -0.5h-28v7h12q29 0 44.5 12t27.5 44l214 556q7 15 7 30q0 25 -32 25h-19v7h34q10 0 30 -0.5t35 -0.5t34.5 0.5t29.5 0.5h85q156 0 156 -119q0 -85 -72 -146.5t-162 -70.5q61 -4 101.5 -35t40.5 -86
q0 -91 -77.5 -157.5t-206.5 -66.5zM67 9h158q46 0 85 21.5t62.5 52t40 66.5t23 62.5t6.5 42.5q0 48 -23 66.5t-91 18.5h-133zM198 348h132q52 0 94.5 30t66 72.5t35.5 80.5t12 61q0 46 -20.5 63t-81.5 17h-113z" />
    <glyph glyph-name="C" unicode="C" horiz-adv-x="579" 
d="M228 -10q-72 0 -122 56.5t-50 151.5q0 113 55.5 228t147 190t186.5 75q27 0 67 -9.5t49 -9.5q28 0 26 32l6 1l30 -227l-6 -1q-12 41 -17.5 58t-21 52t-30.5 51t-40.5 30t-57.5 14q-80 0 -155.5 -71t-120 -179t-44.5 -215q0 -88 36.5 -135.5t105.5 -47.5q52 0 112 36
t116 112l6 -5q-61 -86 -135 -136.5t-143 -50.5z" />
    <glyph glyph-name="D" unicode="D" horiz-adv-x="612" 
d="M192 0h-96q-11 0 -30 0.5t-34 0.5q-14 0 -35 -0.5t-31 -0.5h-28v8h10q30 0 46 11.5t28 43.5l214 556q7 15 7 30q0 24 -32 24h-19v8h34q10 0 30 -0.5t35 -0.5t34.5 0.5t29.5 0.5h59q92 0 148.5 -47t56.5 -156q0 -47 -14.5 -106t-48 -125.5t-81 -121t-121.5 -90t-162 -35.5
zM68 9h131q61 0 116.5 33t94 85t70 113.5t50.5 122.5t28.5 107.5t9.5 72.5q0 72 -40 100.5t-121 28.5h-85z" />
    <glyph glyph-name="E" unicode="E" horiz-adv-x="572" 
d="M371 -32l-6 2q6 12 1.5 21t-18.5 9h-251q-11 0 -30 0.5t-34 0.5q-14 0 -35.5 -0.5t-31.5 -0.5h-28v8h11q30 0 45.5 11.5t27.5 43.5l214 556q7 15 7 30q0 24 -32 24h-19v8h35q9 0 29 -0.5t36 -0.5q15 0 34.5 0.5t29.5 0.5h203q37 0 41 30h6l9 -231l-6 -1q-27 106 -46 153
q-9 23 -20 31.5t-37 8.5h-183l-125 -322h123q42 0 72 34t61 99l7 -2l-108 -280l-7 2q18 52 18 85q0 53 -46 53h-123l-127 -332h194q33 0 54 10t55 43q56 53 140 147l5 -4z" />
    <glyph glyph-name="F" unicode="F" horiz-adv-x="526" 
d="M161 0h-63q-10 0 -29.5 1.5t-35.5 1.5q-14 0 -35.5 -1.5t-31.5 -1.5h-28v8h12q28 0 44 12t28 43l214 556q7 15 7 30q0 24 -32 24h-19v8h34q10 0 30 -0.5t36 -0.5q15 0 34.5 0.5t29.5 0.5h203q37 0 41 30l6 1l9 -231l-6 -1q-18 73 -46 152q-9 23 -20 31.5t-37 8.5h-183
l-129 -333h123q42 0 72 34t61 99l7 -2l-108 -280l-7 2q18 47 18 85q0 53 -46 53h-123l-103 -268q-7 -15 -7 -30q0 -24 32 -24h48v-8z" />
    <glyph glyph-name="G" unicode="G" horiz-adv-x="624" 
d="M447 -8l-6 2q15 54 -22 83q-109 -87 -195 -87q-78 0 -123 58t-45 155q0 60 19 127.5t56.5 131t86 115t113 83t133.5 31.5q25 0 62.5 -9.5t48.5 -9.5q26 0 24 32l6 1l30 -227l-6 -1q-8 31 -14 50.5t-20.5 52.5t-30 52.5t-42 35t-58.5 15.5q-93 0 -173 -90
q-80 -89 -130.5 -229t-50.5 -223q0 -61 28.5 -100.5t94.5 -39.5q46 0 98 27.5t86 58.5l59 152q7 18 7 30q0 24 -32 24h-19v8h33q9 0 31 -1.5t38 -1.5q14 0 34 1.5t30 1.5h28v-8h-11q-30 0 -45.5 -11.5t-27.5 -43.5z" />
    <glyph glyph-name="H" unicode="H" horiz-adv-x="651" 
d="M526 0h-34q-10 0 -30 1.5t-36 1.5q-15 0 -35.5 -1.5t-30.5 -1.5h-28v8h11q29 0 44.5 11.5t28.5 43.5l108 279h-328l-108 -280q-7 -15 -7 -30q0 -24 32 -24h19v-8h-34q-10 0 -30 1.5t-36 1.5q-15 0 -35.5 -1.5t-30.5 -1.5h-28v8h11q29 0 44.5 11.5t28.5 43.5l214 556
q7 15 7 30q0 24 -32 24h-19v8h34q10 0 30 -1.5t36 -1.5q15 0 35.5 1.5t30.5 1.5h28v-8h-11q-29 0 -44.5 -11.5t-28.5 -43.5l-103 -267h328l103 268q7 15 7 30q0 24 -32 24h-19v8h34q10 0 30 -1.5t36 -1.5q15 0 35.5 1.5t30.5 1.5h28v-8h-11q-29 0 -44.5 -11.5t-28.5 -43.5
l-214 -556q-7 -15 -7 -30q0 -24 32 -24h19v-8z" />
    <glyph glyph-name="I" unicode="I" horiz-adv-x="257" 
d="M132 0h-34q-10 0 -30 1.5t-36 1.5q-15 0 -35.5 -1.5t-30.5 -1.5h-28v8h11q29 0 44.5 11.5t28.5 43.5l214 556q7 15 7 30q0 24 -32 24h-19v8h34q10 0 30 -1.5t36 -1.5q15 0 35.5 1.5t30.5 1.5h28v-8h-11q-29 0 -44.5 -11.5t-28.5 -43.5l-214 -556q-7 -15 -7 -30
q0 -24 32 -24h19v-8z" />
    <glyph glyph-name="J" unicode="J" horiz-adv-x="297" 
d="M-117 -98q-15 0 -25 7.5t-10 20.5q1 29 37 29q11 0 36 -9.5t40 -9.5q29 0 51 26.5t46 92.5l208 560q7 18 7 30q0 24 -32 24h-19v8h34q10 0 30 -1.5t36 -1.5q15 0 35.5 1.5t30.5 1.5h28v-8h-11q-30 0 -45.5 -11.5t-27.5 -43.5l-158 -428q-55 -148 -136.5 -218t-154.5 -70z
" />
    <glyph glyph-name="K" unicode="K" horiz-adv-x="609" 
d="M511 0h-41q-5 0 -24.5 1.5t-35.5 1.5q-15 0 -36.5 -1.5t-25.5 -1.5h-34v8h10q54 0 54 34q0 18 -2 27l-55 293l-173 -144l-60 -156q-7 -15 -7 -30q0 -24 32 -24h19v-8h-34q-10 0 -30 1.5t-36 1.5q-15 0 -35.5 -1.5t-30.5 -1.5h-28v8h11q29 0 44.5 11.5t28.5 43.5l214 556
q7 15 7 30q0 24 -32 24h-19v8h34q10 0 30 -1.5t36 -1.5q15 0 35.5 1.5t30.5 1.5h28v-8h-11q-29 0 -44.5 -11.5t-28.5 -43.5l-148 -384l165 138l-8 42q6 0 16 -1t14 -1q11 0 27 2l207 174q38 32 39 56q0 29 -34 29h-10v8h27q8 0 32 -1.5t32 -1.5q13 0 34.5 1.5t27.5 1.5h29
v-8h-11q-50 0 -160 -92l-206 -173l68 -354q5 -26 18.5 -36t40.5 -10h9v-8z" />
    <glyph glyph-name="L" unicode="L" horiz-adv-x="510" 
d="M331 -32l-5 2q9 30 -18 30h-211q-11 0 -30 0.5t-34 0.5q-14 0 -35.5 -0.5t-31.5 -0.5h-28v8h12q29 0 44.5 12t27.5 43l214 556q7 15 7 30q0 24 -32 24h-19v8h34q10 0 30 -1.5t36 -1.5q15 0 35.5 1.5t30.5 1.5h28v-8h-11q-29 0 -44.5 -11.5t-28.5 -43.5l-234 -609h151
q35 0 57 10.5t56 44.5q64 64 148 158l5 -4z" />
    <glyph glyph-name="M" unicode="M" horiz-adv-x="786" 
d="M661 8v-8h-34q-10 0 -30.5 1.5t-35.5 1.5t-35.5 -1.5t-30.5 -1.5h-28v8h11q30 0 45.5 11.5t27.5 43.5l232 601l-445 -586l4 -78q-10 0 -19 0.5t-13 0.5q-6 0 -14 -0.5t-17 -0.5l-33 606l-181 -471q-18 -44 -18 -75q0 -52 50 -52h9v-8h-35q-4 0 -24.5 1.5t-34.5 1.5
q-15 0 -32.5 -1.5t-21.5 -1.5h-33v8h14q40 0 67 35t50 94l188 488q-2 48 -45 48h-18v8h31q10 0 25 -0.5t23 -0.5q10 0 23 0.5t22 0.5l32 -588l447 588q4 0 17 -0.5t19 -0.5q15 0 35.5 0.5t31.5 0.5h28v-8h-11q-29 0 -44.5 -11.5t-28.5 -43.5l-214 -556q-7 -15 -7 -30
q0 -24 32 -24h19z" />
    <glyph glyph-name="N" unicode="N" horiz-adv-x="629" 
d="M456 74l19 -74q-10 0 -19 0.5t-14 0.5q-6 0 -14.5 -0.5t-16.5 -0.5l-162 613l-184 -478q-18 -44 -18 -75q0 -51 49 -52h10v-8h-35q-4 0 -24.5 1.5t-34.5 1.5q-15 0 -32.5 -1.5t-21.5 -1.5h-33v8h14q40 0 67 35t50 94l188 487q-6 25 -16 37t-32 12h-20v8h36q10 0 24 -0.5
t22 -0.5q10 0 19 0.5t19 0.5l156 -592l176 457q18 44 18 75q0 51 -49 52h-10v8h35q5 0 25 -1.5t35 -1.5q16 0 32.5 1.5t21.5 1.5h32v-8h-13q-71 0 -118 -129z" />
    <glyph glyph-name="O" unicode="O" horiz-adv-x="627" 
d="M226 -10q-74 0 -122 57.5t-48 152.5q0 73 30 157.5t81 159.5t130 124.5t167 49.5q75 0 123 -57.5t48 -152.5q0 -73 -30 -157.5t-81 -159.5t-130.5 -124.5t-167.5 -49.5zM230 -2q63 0 122 45.5t100 114t72 146t46 142.5t15 103q0 134 -124 134q-63 0 -122 -45.5t-100 -114
t-72 -146t-46 -142.5t-15 -103q0 -134 124 -134z" />
    <glyph glyph-name="P" unicode="P" horiz-adv-x="542" 
d="M132 0h-34q-10 0 -29.5 1.5t-35.5 1.5q-14 0 -35.5 -1.5t-31.5 -1.5h-28v8h11q29 0 44.5 11.5t28.5 43.5l214 556q7 18 7 30q0 24 -32 24h-19v8h34q10 0 30 -0.5t36 -0.5q15 0 34.5 0.5t29.5 0.5h102q72 0 113.5 -33.5t41.5 -93.5q0 -91 -79 -166t-205 -75h-144l-97 -251
q-7 -15 -7 -30q0 -24 32 -24h19v-8zM189 322h144q58 0 104.5 33.5t70.5 80.5t36 86.5t12 63.5q0 46 -22 66t-80 20h-131z" />
    <glyph glyph-name="Q" unicode="Q" horiz-adv-x="627" 
d="M226 -10q-5 0 -12 0.5t-8 0.5l-141 -106q71 33 120 33q39 0 73 -32l40 -38q48 -48 89 -48q19 0 39.5 16.5t58.5 58.5l6 -5q-57 -61 -86.5 -83t-66.5 -22q-36 0 -84 43l-38 36q-54 50 -87 50q-25 0 -102 -36l-5 8l171 127q-61 12 -99 67.5t-38 139.5q0 73 30 157.5
t81 159.5t130 124.5t167 49.5q75 0 123 -57.5t48 -152.5q0 -73 -30 -157.5t-81 -159.5t-130.5 -124.5t-167.5 -49.5zM230 -2q63 0 122 45.5t100 114t72 146t46 142.5t15 103q0 134 -124 134q-63 0 -122 -45.5t-100 -114t-72 -146t-46 -142.5t-15 -103q0 -134 124 -134z" />
    <glyph glyph-name="R" unicode="R" horiz-adv-x="591" 
d="M610 553q0 -95 -82.5 -163.5t-196.5 -68.5h-6q6 -28 17 -38.5t44 -10.5l30 -175q9 -58 21.5 -72.5t46.5 -16.5h11v-8h-11q-20 0 -36 1.5t-34 1.5q-10 0 -24 -1.5t-21 -1.5l-54 321h-126l-101 -259q-7 -15 -7 -30q0 -24 32 -24h19v-8h-34q-10 0 -30 1.5t-36 1.5
q-14 0 -35 -1.5t-31 -1.5h-28v8h11q30 0 45.5 11.5t27.5 43.5l214 556q7 15 7 30q0 24 -32 24h-19v8h34q10 0 30 -0.5t36 -0.5q15 0 34.5 0.5t29.5 0.5h114q66 0 103 -34t37 -94zM323 672l-130 -342h129q54 0 97.5 22t67.5 53t40 68.5t21.5 64.5t5.5 45q0 47 -17.5 68
t-74.5 21h-139z" />
    <glyph glyph-name="S" unicode="S" horiz-adv-x="512" 
d="M222 -10q-31 0 -82.5 15t-60.5 15q-26 0 -26 -30l-6 -1l-32 236l6 1q65 -228 201 -228q70 0 110.5 38t40.5 108t-91 174l-28 32q-71 79 -71 161q0 75 53 127.5t125 52.5q23 0 63 -9.5t48 -9.5q25 0 23 31l6 1l41 -211l-6 -2q-57 192 -175 192q-57 0 -94.5 -36t-37.5 -88
q0 -78 73 -161l29 -33q33 -38 49.5 -59.5t31.5 -54t15 -62.5q0 -85 -62.5 -142t-142.5 -57z" />
    <glyph glyph-name="T" unicode="T" horiz-adv-x="572" 
d="M286 0h-34q-10 0 -30 1.5t-35 1.5t-36 -1.5t-31 -1.5h-28v8h11q29 0 44.5 11.5t28.5 43.5l234 609h-82q-28 0 -44 -7t-38 -33q-10 -11 -33 -39t-52.5 -62.5t-64.5 -73.5l-5 4l145 251l5 -2q-10 -29 19 -29h100q6 0 36 -0.5t50 -0.5q18 0 44 0.5t32 0.5h93q39 0 44 30h6
l-22 -252h-6q-16 128 -26 174q-5 24 -14 31.5t-34 7.5h-87l-234 -610q-7 -15 -7 -30q0 -24 32 -24h19v-8z" />
    <glyph glyph-name="U" unicode="U" horiz-adv-x="593" 
d="M216 -8q-77 0 -120 34.5t-43 97.5q0 46 30 123l143 372q7 18 7 30q0 24 -32 24h-19v8h34q10 0 30 -1.5t35 -1.5t35.5 1.5t31.5 1.5h28v-8h-10q-30 0 -46 -11.5t-28 -43.5l-142 -369q-34 -91 -34 -138q0 -49 29 -77t85 -28q79 0 142.5 55.5t105.5 163.5l125 321
q18 44 18 75q0 51 -49 52h-9v8h34q5 0 25 -1.5t35 -1.5q16 0 32.5 1.5t20.5 1.5h33v-8h-15q-40 0 -66.5 -35.5t-49.5 -93.5l-125 -323q-88 -229 -271 -229z" />
    <glyph glyph-name="V" unicode="V" horiz-adv-x="574" 
d="M256 78l-1 -78q-8 0 -17 1t-15 1q-5 0 -14.5 -1t-16.5 -1l8 616q1 30 -12 43.5t-41 13.5h-3v8h30q6 0 28.5 -1.5t37.5 -1.5q16 0 41 1.5t30 1.5h20v-8h-12q-25 -1 -40.5 -16t-16.5 -43l-7 -523l340 468q34 45 35 71q0 43 -48 43h-11v8h24q11 0 36 -1.5t35 -1.5
q8 0 35 1.5t34 1.5h19v-8h-7q-31 0 -64 -28t-80 -91z" />
    <glyph glyph-name="W" unicode="W" horiz-adv-x="907" 
d="M602 78l-1 -78q-9 0 -18 1t-14 1q-6 0 -15.5 -1t-16.5 -1l19 521l-307 -443l-1 -78q-8 0 -17 1t-15 1t-15.5 -1t-16.5 -1l22 616q4 57 -53 57h-3v8h30q6 0 27.5 -1.5t36.5 -1.5q16 0 42 1.5t31 1.5h20v-8h-11q-54 -2 -58 -58l-20 -524l308 447l3 78q4 57 -53 57h-3v8h30
q6 0 28 -1.5t37 -1.5q17 0 42.5 1.5t29.5 1.5h20v-8h-11q-54 -2 -58 -59l-20 -523l319 464q37 51 38 75q0 43 -48 43h-11v8h24q11 0 36 -1.5t35 -1.5q8 0 35 1.5t34 1.5h19v-8h-7q-61 0 -147 -123z" />
    <glyph glyph-name="X" unicode="X" horiz-adv-x="590" 
d="M487 0h-41q-5 0 -24.5 1.5t-35.5 1.5q-15 0 -35.5 -1.5t-25.5 -1.5h-34v8h10q54 0 54 34q0 18 -2 27l-47 247l-202 -194q-58 -53 -58 -84q0 -30 35 -30h9v-8h-18q-9 0 -35 1.5t-36 1.5q-6 0 -33.5 -1.5t-34.5 -1.5h-25v8h9q25 0 59 20.5t57 40.5t65 60l206 198l-57 300
q-5 26 -18.5 36t-40.5 10h-9v8h41q4 0 25 -1.5t37 -1.5t34.5 1.5t23.5 1.5h33v-8h-9q-54 0 -54 -34q0 -19 2 -27l46 -243l184 190q48 52 55 69q3 8 3 15q0 30 -35 30h-9v8h18q9 0 35 -1.5t36 -1.5q6 0 33.5 1.5t34.5 1.5h25v-8h-9q-64 0 -181 -121l-188 -194l58 -304
q5 -26 19 -36t41 -10h9v-8z" />
    <glyph glyph-name="Y" unicode="Y" horiz-adv-x="561" 
d="M283 0h-34q-9 0 -29 1.5t-36 1.5q-15 0 -35.5 -1.5t-30.5 -1.5h-28v8h11q29 0 44.5 11.5t28.5 43.5l100 261l-65 303q-6 27 -18 36.5t-39 9.5h-10v8h42q4 0 24 -1.5t36 -1.5t36 1.5t24 1.5h34v-8h-10q-54 0 -54 -34q0 -14 3 -27l59 -280l208 227q48 52 55 69q3 8 3 15
q0 30 -35 30h-9v8h18q17 0 39.5 -1.5t31.5 -1.5q11 0 36 1.5t32 1.5h25v-8h-8q-66 0 -182 -122l-213 -233l-98 -256q-7 -18 -7 -30q0 -24 32 -24h19v-8z" />
    <glyph glyph-name="Z" unicode="Z" horiz-adv-x="557" 
d="M356 -32l-5 2q9 30 -19 30h-390v4l643 669h-186q-31 0 -54.5 -12t-56.5 -45q-59 -59 -138 -144l-5 4l146 237l5 -2q-8 -30 19 -30h355v-4l-644 -669h220q31 0 54 11t56 44q70 70 149 159l5 -4z" />
    <glyph glyph-name="bracketleft" unicode="[" horiz-adv-x="269" 
d="M-73 -173l346 899q52 -3 144 -3v-8q-39 0 -83.5 -1.5t-52.5 -1.5q-1 -4 -4 -27.5t-7 -42.5q-35 -175 -108 -366q-87 -228 -216 -435q11 0 51.5 -1.5t79.5 -1.5v-8q-94 0 -150 -3z" />
    <glyph glyph-name="backslash" unicode="\" horiz-adv-x="328" 
d="M141 -170l72 893h9l-72 -893h-9z" />
    <glyph glyph-name="bracketright" unicode="]" horiz-adv-x="269" 
d="M373 726l-346 -899q-51 3 -144 3v8q40 0 85.5 1.5t50.5 1.5q11 74 18 106q32 153 101 330q87 228 216 435q-2 0 -46.5 1.5t-84.5 1.5v8q94 0 150 3z" />
    <glyph glyph-name="asciicircum" unicode="^" horiz-adv-x="421" 
d="M402 321h-9l-8 367l-295 -374l-7 6l303 385l8 -1z" />
    <glyph glyph-name="underscore" unicode="_" horiz-adv-x="415" 
d="M284 -88h-380v9h380v-9z" />
    <glyph glyph-name="grave" unicode="`" horiz-adv-x="226" 
d="M330 540l-7 -2q-11 40 -36.5 90t-25.5 67q0 12 7.5 20t19.5 8q22 0 27 -23q5 -18 5.5 -67.5t9.5 -92.5z" />
    <glyph glyph-name="a" unicode="a" horiz-adv-x="502" 
d="M306 -8q-23 0 -35 13.5t-12 32.5q0 22 30 98l97 255l-179 -269q-45 -68 -77.5 -99t-65.5 -31q-25 0 -42.5 15.5t-17.5 50.5q0 43 24.5 116t63 145.5t93 125.5t106.5 53q63 0 109 -76q37 14 54 29.5t33 46.5l6 -2l-143 -371q-3 -8 -12.5 -31.5t-14.5 -38.5t-5 -23
q0 -18 17 -18q28 0 113 111l6 -4q-94 -129 -148 -129zM95 14q28 0 106 113l193 289q-16 28 -41.5 50t-49.5 22q-50 0 -106.5 -90t-90 -192.5t-33.5 -154.5q0 -37 22 -37z" />
    <glyph glyph-name="b" unicode="b" horiz-adv-x="461" 
d="M75 99l179 269q45 68 77.5 99t65.5 31q25 0 42.5 -15.5t17.5 -50.5q0 -43 -24.5 -116t-63 -145.5t-93 -125.5t-106.5 -53q-63 0 -109 76q-34 -14 -52 -28.5t-35 -47.5l-6 2l244 632q8 22 8 29q0 19 -36 19h-34v7h15q35 0 55.5 1.5t49 11.5t41.5 29l5 -2zM366 476
q-28 0 -106 -113l-193 -289q18 -30 42.5 -51t48.5 -21q50 0 106.5 90t90 192.5t33.5 154.5q0 37 -22 37z" />
    <glyph glyph-name="c" unicode="c" horiz-adv-x="400" 
d="M113 -8q-41 0 -68.5 35t-27.5 91q0 79 40 167.5t107 150.5t137 62q43 0 69.5 -34t26.5 -75q0 -59 -32 -59q-11 0 -18 7.5t-7 18.5q0 10 9 34.5t9 43.5q0 25 -15 41t-41 16q-52 0 -103.5 -59t-82 -141.5t-30.5 -153.5q0 -107 62 -107q74 0 172 128l5 -4
q-117 -162 -212 -162z" />
    <glyph glyph-name="d" unicode="d" horiz-adv-x="499" 
d="M399 424l75 202q8 22 8 29q0 19 -36 19h-34v7h15q35 0 55.5 1.5t49 11.5t41.5 29l5 -2l-230 -595q-2 -7 -12.5 -31t-15.5 -39t-5 -24q0 -18 17 -18q31 0 113 111l6 -4q-94 -129 -148 -129q-23 0 -35 13t-12 34q0 9 3.5 21.5t7 22.5t10.5 27.5t10 25.5l99 255l-179 -269
q-45 -68 -77.5 -99t-65.5 -31q-25 0 -42.5 15.5t-17.5 50.5q0 43 24.5 116t63 145.5t93 125.5t106.5 53q59 0 108 -74zM95 14q28 0 106 113l193 289q-15 27 -41.5 49.5t-49.5 22.5q-50 0 -106.5 -90t-90 -192.5t-33.5 -154.5q0 -37 22 -37z" />
    <glyph glyph-name="e" unicode="e" horiz-adv-x="398" 
d="M116 -8q-44 0 -71 35.5t-27 90.5q0 83 43 172t112.5 148.5t139.5 59.5q43 0 70 -18t27 -48q0 -39 -52 -81t-122 -69t-130 -33q-19 -63 -19 -114q0 -105 64 -105q72 0 170 128l5 -4q-118 -162 -210 -162zM353 451q0 40 -38 40q-63 0 -120 -69.5t-87 -164.5q99 10 172 68
t73 126z" />
    <glyph glyph-name="f" unicode="f" horiz-adv-x="263" 
d="M-259 -236q-15 0 -25 7.5t-10 19.5q0 27 35 27q11 0 43 -8t49 -8q48 0 96.5 66t86.5 181l120 362q16 48 28 71h-89v8h93q49 98 129.5 153.5t168.5 55.5q15 0 25 -7.5t10 -19.5q0 -27 -35 -27q-11 0 -43 8t-49 8q-50 0 -77.5 -31t-67.5 -130l-4 -10h123v-8h-126l-119 -359
q-56 -170 -162 -264.5t-200 -94.5z" />
    <glyph glyph-name="g" unicode="g" horiz-adv-x="432" 
d="M111 -236q-95 0 -167 18.5t-72 61.5q0 51 163 121l45 19l-34 16q-34 16 -51.5 31t-17.5 39q0 26 22 43.5t77 38.5l32 12q-33 30 -33 96q0 85 64 161.5t151 76.5q35 0 71 -32l5 5q73 73 118 73q13 0 22.5 -7t9.5 -19q0 -27 -32 -27q-10 0 -26 5.5t-28 5.5q-22 0 -58 -36
l-6 -6q25 -31 25 -88q0 -86 -65 -161.5t-150 -75.5q-27 0 -62 24l-35 -13q-59 -23 -59 -47q0 -14 12 -23.5t43 -23.5l148 -68q75 -36 104 -60t29 -53q0 -53 -67 -80t-178 -27zM111 -229q99 0 147.5 20t48.5 54q0 22 -24 39.5t-87 46.5l-106 49l-51 -22q-42 -17 -72 -46
t-30 -62q0 -40 49 -59.5t125 -19.5zM174 142q36 0 77 50.5t67 119.5t26 123q0 56 -52 56q-36 0 -77 -50t-67 -118.5t-26 -121.5q0 -30 12 -44.5t40 -14.5z" />
    <glyph glyph-name="h" unicode="h" horiz-adv-x="498" 
d="M296 -8q-23 0 -35 13.5t-12 32.5q0 31 32 97l106 217q40 82 40 102q0 22 -19 22q-13 0 -41 -29.5t-89 -113.5l-243 -333q-5 0 -16 1t-16 1t-16.5 -1t-16.5 -1l251 626q8 22 8 29q0 19 -36 19h-34v7h15q38 0 57 1t47.5 11t41.5 30l5 -2l-278 -692l225 309q69 95 102 127.5
t67 32.5q22 0 33.5 -13.5t11.5 -32.5q0 -34 -34 -104l-109 -223q-35 -68 -35 -93q0 -18 17 -18q28 0 113 111l6 -4q-94 -129 -148 -129z" />
    <glyph glyph-name="i" unicode="i" horiz-adv-x="263" 
d="M280 596q-20 0 -33 13t-13 33t13 33.5t33 13.5t33.5 -13.5t13.5 -33.5t-13.5 -33t-33.5 -13zM216 354l-111 -229q-34 -66 -34 -93q0 -18 17 -18q31 0 113 111l6 -4q-94 -129 -148 -129q-23 0 -35 13.5t-12 32.5q0 32 32 98l111 229q34 76 34 93q0 18 -17 18
q-28 0 -113 -111l-6 4q94 129 148 129q23 0 35 -13.5t12 -32.5q0 -32 -32 -98z" />
    <glyph glyph-name="j" unicode="j" horiz-adv-x="256" 
d="M-235 -236q-15 0 -25 7.5t-10 19.5q0 27 35 27q11 0 43 -8t49 -8q93 0 183 247l114 316q2 5 12 30.5t14.5 40t4.5 22.5q0 18 -17 18q-30 0 -114 -111l-6 4q93 129 149 129q23 0 35.5 -13.5t12.5 -32.5q0 -23 -28 -98l-90 -236q-44 -115 -108 -197.5t-128.5 -119.5
t-125.5 -37zM275 596q-20 0 -33 13t-13 33t13 33.5t33 13.5t33.5 -13.5t13.5 -33.5t-13.5 -33t-33.5 -13z" />
    <glyph glyph-name="k" unicode="k" horiz-adv-x="458" 
d="M281 -8q-28 0 -45 16t-17 50q0 12 7 68t7 70q0 38 -13 54.5t-60 16.5h-18l-107 -267q-5 0 -16 1t-16 1t-16.5 -1t-16.5 -1l251 626q8 22 8 29q0 19 -36 19h-34v7h15q35 0 55 1.5t48.5 11.5t41.5 29l5 -2l-179 -446h11q50 0 88 29.5t72 80.5q41 60 72.5 86.5t76.5 26.5
q35 0 35 -26q0 -27 -31 -27q-12 0 -28.5 6t-30.5 6q-19 0 -37.5 -16t-48.5 -61q-31 -47 -61 -73.5t-71 -34.5q102 -7 102 -73q0 -20 -7 -77.5t-7 -73.5q0 -35 22 -35q40 0 124 112l6 -4q-96 -129 -151 -129z" />
    <glyph glyph-name="l" unicode="l" horiz-adv-x="239" 
d="M39 -8q-23 0 -35 13.5t-12 32.5q0 11 3.5 25.5t7 23.5t10.5 26.5t9 21.5l197 491q8 22 8 29q0 19 -36 19h-34v7h15q37 0 56.5 1t48 11t41.5 30l5 -2l-239 -595q-3 -9 -12.5 -31.5t-15 -38.5t-5.5 -24q0 -18 17 -18q31 0 113 111l6 -4q-94 -129 -148 -129z" />
    <glyph glyph-name="m" unicode="m" horiz-adv-x="776" 
d="M574 -8q-23 0 -35 13.5t-12 32.5q0 31 32 97l106 217q40 82 40 102q0 22 -19 22q-29 0 -131 -144l-236 -332q-5 0 -15 1t-16 1t-17 -1t-16 -1l159 352q40 83 40 102q0 22 -19 22q-29 0 -131 -144l-234 -332q-6 0 -16 1t-16 1t-17.5 -1t-16.5 -1l152 365q34 76 34 93
q0 18 -16 18q-32 0 -115 -111l-6 4q93 129 149 129q23 0 35 -13.5t12 -32.5q0 -28 -30 -98l-136 -323l215 306q65 93 100 127t70 34q22 0 33.5 -13.5t11.5 -32.5q0 -29 -34 -104l-144 -312l214 301q66 93 100.5 127t69.5 34q22 0 33.5 -13.5t11.5 -32.5q0 -34 -34 -104
l-109 -223q-35 -68 -35 -93q0 -18 17 -18q28 0 113 111l6 -4q-94 -129 -148 -129z" />
    <glyph glyph-name="n" unicode="n" horiz-adv-x="533" 
d="M331 -8q-23 0 -35 13.5t-12 32.5q0 31 32 97l106 217q40 82 40 102q0 22 -19 22q-13 0 -41 -29.5t-89 -113.5l-243 -333q-6 0 -16.5 1t-16.5 1q-5 0 -16 -1t-17 -1l152 365q34 76 34 93q0 18 -16 18q-32 0 -115 -111l-6 4q93 129 149 129q23 0 35 -13.5t12 -32.5
q0 -28 -30 -98l-137 -324l225 308q69 95 102 127.5t67 32.5q22 0 33.5 -13.5t11.5 -32.5q0 -34 -34 -104l-109 -223q-35 -68 -35 -93q0 -18 17 -18q28 0 113 111l6 -4q-94 -129 -148 -129z" />
    <glyph glyph-name="o" unicode="o" horiz-adv-x="442" 
d="M129 -1q71 0 141 114q44 71 73.5 161t29.5 143q0 74 -60 74q-71 0 -141 -114q-44 -71 -73.5 -161t-29.5 -143q0 -74 60 -74zM129 -8q-40 0 -75.5 37t-35.5 105q0 45 21 105.5t57 119t94 99t123 40.5q40 0 75.5 -37t35.5 -105q0 -45 -21 -105.5t-57 -119t-94 -99
t-123 -40.5z" />
    <glyph glyph-name="p" unicode="p" horiz-adv-x="426" 
d="M68 -226h-43q-16 0 -40 1.5t-45 1.5q-18 0 -42 -1.5t-37 -1.5h-15v7h16q24 0 38.5 10t26.5 38l254 634q-63 -27 -128 -94l-5 5q60 66 138 103l38 95q6 0 15 -1t15 -1t15 1t14 1l-33 -81q70 6 113.5 -34.5t43.5 -103.5q0 -81 -59.5 -160.5t-138 -130.5t-151.5 -69
l-65 -160q-8 -18 -8 -29q0 -23 41 -23h42v-7zM344 350q0 58 -25.5 91.5t-74.5 34.5l-182 -474q114 33 198 132.5t84 215.5z" />
    <glyph glyph-name="q" unicode="q" horiz-adv-x="459" 
d="M265 -226h-10q-14 0 -34.5 1.5t-39.5 1.5t-43 -1.5t-36 -1.5h-43v7h44q24 0 38.5 10t26.5 38l218 562l-179 -269q-45 -68 -77.5 -99t-65.5 -31q-25 0 -42.5 15.5t-17.5 50.5q0 43 24.5 116t63 145.5t93 125.5t106.5 53q63 0 109 -76q36 14 53.5 29t33.5 47l6 -2
l-260 -663q-8 -18 -8 -29q0 -23 31 -23h9v-7zM95 14q28 0 106 113l193 289q-15 27 -41.5 49.5t-49.5 22.5q-50 0 -106.5 -90t-90 -192.5t-33.5 -154.5q0 -37 22 -37z" />
    <glyph glyph-name="r" unicode="r" horiz-adv-x="385" 
d="M237 275l-157 -275q-6 0 -17 1t-16 1t-16 -1t-17 -1l140 365q2 5 12 30.5t14.5 40t4.5 22.5q0 18 -16 18q-30 0 -115 -111l-6 4q93 129 149 129q23 0 35 -13.5t12 -32.5q0 -29 -27 -98l-120 -312l134 238q45 80 100 149t88 69q28 0 28 -27q0 -21 -42 -36
q-93 -29 -168 -160z" />
    <glyph glyph-name="s" unicode="s" horiz-adv-x="362" 
d="M121 -8q-64 0 -103.5 34.5t-39.5 77.5q0 12 8 19.5t18 7.5q22 0 28 -31q10 -55 31 -78t63 -23q45 0 75 31t30 68q0 52 -47 109l-31 38q-54 67 -54 113q0 62 42.5 101t93.5 39q50 0 88.5 -28t38.5 -57q0 -11 -8 -18.5t-18 -7.5q-24 0 -30 31q-7 38 -24 55.5t-49 17.5
q-36 0 -62.5 -23t-26.5 -64q0 -45 56 -116l35 -42q42 -48 42 -105q0 -65 -47.5 -107t-108.5 -42z" />
    <glyph glyph-name="t" unicode="t" horiz-adv-x="269" 
d="M51 -8q-23 0 -35 13.5t-12 32.5q0 27 31 102l137 342h-69v8h72l25 64q63 15 91 76l5 -2l-56 -138h107v-8h-110l-141 -355q-3 -8 -12.5 -31.5t-15 -39t-5.5 -24.5q0 -18 17 -18q31 0 113 111l6 -4q-94 -129 -148 -129z" />
    <glyph glyph-name="u" unicode="u" horiz-adv-x="529" 
d="M327 -8q-23 0 -35 13.5t-12 32.5q0 28 30 98l137 324l-220 -307q-65 -92 -100.5 -126.5t-69.5 -34.5q-22 0 -33.5 13.5t-11.5 32.5q0 34 34 104l109 223q35 75 35 93t-16 18q-29 0 -114 -111l-6 4q94 129 148 129q23 0 35 -13.5t12 -32.5q0 -31 -32 -97l-104 -212
q-42 -86 -42 -109q0 -20 17 -20q30 0 133 144l238 332q5 0 16 -1t17 -1t17 1t16 1l-152 -365q-4 -10 -13.5 -32t-15 -37.5t-5.5 -23.5q0 -18 16 -18q32 0 115 111l6 -4q-93 -129 -149 -129z" />
    <glyph glyph-name="v" unicode="v" horiz-adv-x="443" 
d="M108 -9q-32 0 -50 16t-18 44q0 32 22.5 80.5t44.5 81.5t60 85t42 58l49 73q-14 -10 -39 -10q-17 0 -53.5 12t-47.5 12q-17 0 -26 -10.5t-9 -23.5q0 -12 7.5 -34.5t7.5 -32.5q0 -14 -8 -21t-19 -7q-26 0 -26 30q0 35 36 83q46 64 82 64q12 0 47 -10.5t57 -10.5
q12 0 17.5 5t18.5 23l5 -3l-93 -144q-102 -162 -102 -260q0 -24 14 -39t35 -15q76 0 147 89q37 45 65 105t28 110q0 39 -10.5 75.5t-10.5 48.5q0 15 7.5 24t19.5 9q31 0 31 -66q0 -67 -35.5 -155t-88.5 -156q-50 -62 -105.5 -96t-101.5 -34z" />
    <glyph glyph-name="w" unicode="w" horiz-adv-x="644" 
d="M322 -9q-57 0 -62 75q-33 -33 -76 -54t-79 -21q-27 0 -46 15t-19 45q0 33 22 80.5t46 83t61 86t46 64.5l42 63q-12 -9 -39 -9q-16 0 -52 12t-48 12q-17 0 -26 -10.5t-9 -23.5q0 -12 7 -32.5t7 -30.5q0 -15 -7.5 -23.5t-18.5 -8.5q-26 0 -26 33q0 32 41 87q44 57 77 57
q12 0 47 -10.5t57 -10.5q4 0 7.5 0.5t6.5 2t4.5 2.5t4 4t4 5t4.5 7t5 7l5 -3l-86 -133q-109 -174 -109 -272q0 -24 14 -38.5t35 -14.5q53 0 97 39q4 69 36 166.5t77.5 172.5t81.5 75q25 0 25 -35q0 -56 -45.5 -155.5t-119.5 -180.5q4 -47 17.5 -65.5t40.5 -18.5
q46 0 101.5 52t92.5 124.5t37 127.5q0 40 -10.5 77t-10.5 48q0 34 27 34q31 0 31 -66q0 -88 -49.5 -191.5t-125 -175.5t-143.5 -74zM438 418q0 30 -19 30q-14 0 -32.5 -26t-35 -67.5t-27.5 -101t-11 -119.5v-6q61 67 93 144t32 146z" />
    <glyph glyph-name="x" unicode="x" horiz-adv-x="476" 
d="M245 -8q-32 0 -49 19t-17 50q0 25 13 95q-33 -73 -83 -118.5t-92 -45.5q-31 0 -48 14.5t-17 39.5q0 20 9.5 39t29.5 38t36 31.5t44 31.5l3 -5q-36 -27 -54 -64.5t-18 -66.5q0 -44 32 -44q38 0 95 65t79 156l10 39q27 106 27 160q0 49 -34 49q-26 0 -64 -44.5t-70 -100.5
l-6 4q94 163 172 163q28 0 44.5 -19t16.5 -52q0 -38 -13 -93q34 75 79 119.5t87 44.5q58 0 58 -50q0 -36 -26 -64.5t-79 -65.5l-3 5q30 21 46 55t16 60q0 46 -33 46t-84.5 -65.5t-76.5 -154.5l-10 -37q-7 -27 -16 -84t-9 -78q0 -50 37 -50q30 0 69.5 46.5t67.5 96.5l6 -4
q-92 -161 -175 -161z" />
    <glyph glyph-name="y" unicode="y" horiz-adv-x="428" 
d="M197 64l-7 -64q-6 0 -15 1t-15 1q-4 0 -11 -1t-10 -1l-21 -22q-83 -88 -178 -151t-168 -63q-42 0 -42 27t35 27q11 0 38 -9t50 -9q36 0 112.5 55.5t146.5 128.5l17 18q24 181 24 358q0 28 -0.5 42t-3 32t-9.5 25.5t-18 7.5q-14 0 -34.5 -26.5t-59.5 -89.5l-6 4
q29 47 45 71t42.5 48t48.5 24q20 0 32.5 -11t17.5 -33t6 -39.5t1 -46.5q0 -130 -17 -291q114 130 155.5 199.5t41.5 128.5q0 6 -2.5 27t-2.5 29q0 37 28 37t28 -31q0 -52 -58 -153.5t-191 -249.5z" />
    <glyph glyph-name="z" unicode="z" horiz-adv-x="401" 
d="M253 -7q-32 0 -75.5 28t-81.5 56t-59 28q-16 0 -25 -11t-9 -27q0 -12 0.5 -22t0.5 -19q0 -33 -27 -33t-27 27q0 15 12 32t24 28t36 30l332 268q-29 0 -93 26.5t-103 26.5q-49 0 -49 -49q0 -37 29 -76l-6 -4q-36 51 -36 104q0 37 18 64t54 27q29 0 65 -28t68 -56t52 -28
q16 0 25.5 11t9.5 26q0 12 -0.5 22t-0.5 19q0 15 7.5 24.5t20.5 9.5q26 0 26 -28q0 -14 -13 -32t-24 -28t-35 -29l-332 -268q40 0 110.5 -26.5t110.5 -26.5q55 0 55 48q0 38 -29 77l6 4q36 -50 36 -105q0 -42 -20 -66t-53 -24z" />
    <glyph glyph-name="braceleft" unicode="{" horiz-adv-x="279" 
d="M48 -62q-12 -32 -12 -49q0 -21 13 -33t47 -23l-2 -7q-98 30 -98 87q0 29 16 70q14 35 42.5 98.5t32.5 73.5q19 50 19 73q0 39 -49 43v7q48 2 73 30t49 87q7 17 25.5 79t31.5 93q28 74 70.5 104.5t129.5 52.5l1 -7q-59 -13 -86 -35t-45 -70q-9 -24 -36 -106t-32 -97
q-24 -63 -59 -98t-100 -37q72 -12 72 -64q0 -28 -16 -69q-3 -7 -40.5 -92.5t-46.5 -110.5z" />
    <glyph glyph-name="bar" unicode="|" horiz-adv-x="205" 
d="M-67 -218l-8 3l379 987l8 -3z" />
    <glyph glyph-name="braceright" unicode="}" horiz-adv-x="279" 
d="M263 612q12 32 12 49q0 21 -13 33t-47 23l2 7q98 -30 98 -87q0 -29 -16 -70q-14 -34 -42 -97t-33 -75q-19 -50 -19 -73q0 -39 49 -43v-7q-48 -2 -73 -30t-49 -87q-8 -19 -26.5 -80.5t-30.5 -91.5q-28 -74 -70.5 -104.5t-129.5 -52.5l-1 7q59 13 86 35t45 70q9 24 36 106
t32 97q26 65 59.5 99t99.5 36q-72 12 -72 64q0 28 16 69q3 7 40.5 92.5t46.5 110.5z" />
    <glyph glyph-name="asciitilde" unicode="~" horiz-adv-x="494" 
d="M387 292q60 0 98 58l8 -5q-14 -24 -42 -43t-64 -19q-39 0 -109.5 31t-107.5 31q-60 0 -99 -59l-8 5q15 24 43 43.5t64 19.5q39 0 109.5 -31t107.5 -31z" />
    <glyph glyph-name="uni00A0" unicode="&#xa0;" horiz-adv-x="165" 
 />
    <glyph glyph-name="exclamdown" unicode="&#xa1;" horiz-adv-x="245" 
d="M130 284l8 -3l-15 -38q-16 -40 -55 -170q-49 -179 -73 -246q-8 -25 -33 -25q-13 0 -23.5 8.5t-10.5 23.5q0 9 7 29t20.5 48t26 54t30 60.5t26.5 53.5q57 116 77 167zM196 498q21 0 36.5 -15t15.5 -37t-15.5 -37t-36.5 -15t-36.5 15t-15.5 37t15.5 37t36.5 15z" />
    <glyph glyph-name="cent" unicode="&#xa2;" horiz-adv-x="466" 
d="M145 -8q-41 0 -69 22l-107 -157l-7 5l108 158q-32 30 -32 88q0 80 43 170.5t116 155t149 64.5q22 0 43 -10l99 145l7 -5l-98 -144q26 -15 41 -41t15 -54q0 -59 -32 -59q-11 0 -18 7.5t-7 18.5q0 10 9 34.5t9 43.5q0 27 -22 43l-277 -406q18 -43 67 -43q80 0 192 130l5 -4
q-136 -162 -234 -162zM107 116q0 -23 4 -35l274 401q-20 9 -38 9q-62 0 -119 -65t-89 -151.5t-32 -158.5z" />
    <glyph glyph-name="sterling" unicode="&#xa3;" horiz-adv-x="543" 
d="M428 683q-83 0 -120 -76.5t-37 -254.5q0 -10 -2 -32h159v-9h-159q-5 -42 -11 -65q-20 -86 -67 -152q108 -45 157 -45q53 0 80 42t27 101q0 20 -3 44l8 1q3 -33 3 -45q0 -77 -38 -138.5t-111 -61.5q-24 0 -52.5 13t-44 23t-50.5 36q-67 -73 -144 -73q-34 0 -55 18t-21 43
q0 38 31 59.5t74 21.5q50 0 125 -33q37 64 37 138q0 19 -2 73h-119v9h118q-4 59 -4 123q0 116 61.5 182t159.5 66q61 0 109 -44.5t48 -97.5q0 -40 -33 -40q-14 0 -21.5 9t-7.5 21q0 9 1.5 27t1.5 26q0 39 -25 65t-73 26zM23 -1q80 0 134 71q-74 51 -118 51q-33 0 -58 -18.5
t-25 -50.5q0 -22 18 -37.5t49 -15.5z" />
    <glyph glyph-name="currency" unicode="&#xa4;" horiz-adv-x="700" 
d="M552 514l113 113l7 -7l-113 -112q64 -66 64 -166q0 -102 -64 -166l111 -112l-7 -7l-112 112q-65 -59 -166 -59q-102 0 -167 59l-111 -110l-7 7l111 110q-63 63 -63 166q0 104 65 167l-111 113l7 7l112 -113q65 59 164 59q101 0 167 -61zM385 119q99 0 163.5 60.5
t64.5 162.5t-65 163t-163 61t-162.5 -61t-64.5 -163t64.5 -162.5t162.5 -60.5z" />
    <glyph glyph-name="yen" unicode="&#xa5;" horiz-adv-x="557" 
d="M117 262v9h140l20 53l-45 303q-6 27 -18 36.5t-39 9.5h-10v8h42q4 0 24.5 -1.5t36.5 -1.5t36.5 1.5t24.5 1.5h34v-8h-10q-54 0 -54 -34q0 -7 3 -27l37 -281l188 227q4 4 13 14.5t12.5 14.5t10 12.5t9.5 13t6.5 10.5t5 11t1.5 9q0 30 -35 30h-9v8h15q16 0 41 -1.5t34 -1.5
q6 0 33 1.5t34 1.5h25v-8h-8q-83 -2 -182 -122l-193 -233l-18 -47h137v-9h-141l-36 -95h137v-9h-141l-36 -96q-7 -18 -7 -30q0 -24 32 -24h19v-8h-34q-10 0 -30 1.5t-35 1.5t-35.5 -1.5t-30.5 -1.5h-28v8h11q29 0 44.5 11.5t28.5 43.5l36 95h-136v9h140l36 95h-136z" />
    <glyph glyph-name="brokenbar" unicode="&#xa6;" horiz-adv-x="205" 
d="M148 342l-8 3l164 427l8 -3zM-68 -220l-8 3l164 427l8 -3z" />
    <glyph glyph-name="section" unicode="&#xa7;" horiz-adv-x="474" 
d="M369 174q0 -52 -36.5 -102t-92.5 -84q-33 -62 -96.5 -102t-133.5 -40q-59 0 -59 36q0 13 9 22t24 9q13 0 44.5 -15t61.5 -15q50 0 87.5 38.5t37.5 90.5q0 46 -22 102l-57 147q-24 62 -24 100q0 52 36.5 102t92.5 84q30 62 95.5 102t134.5 40q59 0 59 -36q0 -13 -9 -22
t-24 -9q-13 0 -44.5 15t-61.5 15q-50 0 -87.5 -38.5t-37.5 -90.5q0 -46 22 -102l57 -147q24 -61 24 -100zM219 460q0 39 16 75q-77 -52 -77 -117q0 -40 25 -105l60 -155q19 -49 19 -83q0 -39 -16 -75q77 53 77 117q0 40 -25 105l-60 155q-19 49 -19 83z" />
    <glyph glyph-name="dieresis" unicode="&#xa8;" horiz-adv-x="377" 
d="M255 586q-18 0 -30 11.5t-12 30.5t12 31t30 12t30.5 -12t12.5 -31q0 -18 -12.5 -30t-30.5 -12zM425 586q-18 0 -30 11.5t-12 30.5t12 31t30 12t30.5 -12t12.5 -31q0 -18 -12.5 -30t-30.5 -12z" />
    <glyph glyph-name="copyright" unicode="&#xa9;" horiz-adv-x="769" 
d="M70 340q0 156 99.5 252.5t246.5 96.5q146 0 246 -97t100 -252q0 -156 -100 -252.5t-246 -96.5q-147 0 -246.5 96.5t-99.5 252.5zM80 340q0 -153 96 -246t240 -93q143 0 239.5 93.5t96.5 245.5q0 151 -96.5 245t-239.5 94q-144 0 -240 -93.5t-96 -245.5zM520 559l63 -136
l-6 -4q-50 60 -88 89.5t-81 29.5q-52 0 -86.5 -41.5t-34.5 -121.5q0 -89 47.5 -150.5t113.5 -61.5q96 0 141 80l7 -4q-24 -47 -73 -79.5t-106 -32.5q-78 0 -134 61t-56 148q0 103 58 157t123 54q22 0 49 -5.5t34 -5.5q23 0 23 23h6z" />
    <glyph glyph-name="ordfeminine" unicode="&#xaa;" horiz-adv-x="375" 
d="M333 291h-262v8h262v-8zM322 361q-34 0 -34 32q0 13 20 61l72 169l-126 -185q-51 -77 -95 -77q-39 0 -39 43q0 20 16 65.5t41.5 95.5t64 87t76.5 37q39 0 71 -49q25 9 37 19t22 30l5 -2l-100 -237q-20 -48 -20 -58q0 -13 12 -13q19 0 70 70l5 -4q-61 -84 -98 -84z
M183 379q21 0 65 64l133 194q-24 43 -55 43q-35 0 -73.5 -59t-60.5 -125.5t-22 -98.5q0 -18 13 -18z" />
    <glyph glyph-name="guillemotleft" unicode="&#xab;" horiz-adv-x="468" 
d="M328 436l4 -5q-31 -26 -71.5 -66.5t-78 -80.5t-40.5 -43q2 -7 10.5 -38.5t19.5 -68t23 -62.5l-6 -3q-12 25 -43.5 70t-56.5 77t-29 36q14 8 117.5 78t150.5 106zM469 436l4 -5q-31 -26 -71.5 -66.5t-78 -80.5t-40.5 -43q2 -7 10.5 -38.5t19.5 -68t23 -62.5l-6 -3
q-12 25 -43.5 70t-56.5 77t-29 36q14 8 117.5 78t150.5 106z" />
    <glyph glyph-name="logicalnot" unicode="&#xac;" horiz-adv-x="507" 
d="M410 106l-9 3l80 209h-399v9h412z" />
    <glyph glyph-name="uni00AD" unicode="&#xad;" horiz-adv-x="304" 
d="M243 252h-155v39h155v-39z" />
    <glyph glyph-name="registered" unicode="&#xae;" horiz-adv-x="484" 
d="M345 304q-89 0 -149.5 58.5t-60.5 151.5t60.5 151.5t149.5 58.5t149.5 -58.5t60.5 -151.5t-60.5 -151.5t-149.5 -58.5zM473 401v-7q-9 0 -21.5 0.5t-20.5 0.5q-3 0 -12 -0.5t-12 -0.5l-54 109h-49v-84q0 -12 5 -15t25 -3v-7h-16q-4 0 -14.5 0.5t-16.5 0.5t-16.5 -0.5
t-14.5 -0.5h-16v7q20 0 24.5 3t4.5 15v190q0 11 -4.5 14t-24.5 3v7h16q4 0 14.5 -0.5t16.5 -0.5t16.5 0.5t14.5 0.5h46q40 0 62.5 -16.5t22.5 -48.5q0 -28 -20 -46.5t-64 -18.5h-4q10 -18 32 -18h11l24 -51q11 -22 19 -27.5t26 -5.5zM414 568q0 29 -11 43t-41 14h-58v-114
h60q50 0 50 57zM345 314q84 0 142 55.5t58 144.5t-58 144.5t-142 55.5t-142 -55.5t-58 -144.5t58 -144.5t142 -55.5z" />
    <glyph glyph-name="macron" unicode="&#xaf;" horiz-adv-x="340" 
d="M433 608h-225v22h225v-22z" />
    <glyph glyph-name="degree" unicode="&#xb0;" horiz-adv-x="299" 
d="M390 573q0 -53 -34 -85.5t-83 -32.5t-83 32.5t-34 85.5t34 85.5t83 32.5t83 -32.5t34 -85.5zM380 573q0 49 -31.5 79t-75.5 30t-75.5 -30t-31.5 -79q0 -48 31.5 -78.5t75.5 -30.5t75.5 30.5t31.5 78.5z" />
    <glyph glyph-name="plusminus" unicode="&#xb1;" horiz-adv-x="493" 
d="M370 544l-63 -164h191v-9h-195l-65 -171l-9 3l64 168h-191v9h195l64 167zM398 112h-396v9h396v-9z" />
    <glyph glyph-name="twosuperior" unicode="&#xb2;" 
d="M371 634q0 -18 -11.5 -37t-34.5 -39t-42 -34t-52 -35.5t-46 -30.5l-31 -22h144l-40 -71l-5 2q4 8 4 17q0 13 -18 13h-141v5l82 61q145 109 145 196q0 24 -22 24q-29 0 -60 -47q-16 -25 -30 -25q-7 0 -13 5t-6 13q0 22 37 41t72 19q25 0 46.5 -15t21.5 -40z" />
    <glyph glyph-name="threesuperior" unicode="&#xb3;" 
d="M336 510q0 -48 -39 -84.5t-95 -36.5q-35 0 -56.5 21t-21.5 46q0 13 7 22t19 9q7 0 12.5 -5t5.5 -13q0 -6 -2 -17.5t-2 -18.5q0 -38 38 -38q47 0 78 81q14 37 14 58q0 18 -17 18q-5 0 -19 -6l-36 -16l-3 6l46 21q35 16 55 68q6 18 6 35q0 23 -22 23q-29 0 -58 -44
q-18 -28 -32 -28q-8 0 -13.5 5.5t-5.5 11.5q0 24 37.5 42.5t70.5 18.5q27 0 48 -15t21 -37q0 -45 -92 -79q24 0 40 -12.5t16 -35.5z" />
    <glyph glyph-name="acute" unicode="&#xb4;" horiz-adv-x="226" 
d="M146 542l-5 5q34 36 74 93.5t52 70.5q11 12 25 12q10 0 18 -7.5t8 -19.5q0 -13 -10 -23q-11 -12 -69.5 -53.5t-92.5 -77.5z" />
    <glyph glyph-name="mu" unicode="&#xb5;" horiz-adv-x="534" 
d="M530 490l-152 -365q-4 -10 -13.5 -32t-15 -37.5t-5.5 -23.5q0 -18 16 -18q32 0 115 111l6 -4q-93 -129 -149 -129q-23 0 -35 13.5t-12 32.5q0 28 30 98l137 324l-220 -307q-65 -92 -100.5 -126.5t-69.5 -34.5q-22 0 -33.5 14t-11.5 33q-20 -61 -39.5 -148t-23.5 -98
q-10 -28 -35 -28q-14 0 -24 9t-10 21t6 25q4 8 27.5 49t53 97t50.5 107q5 11 138 292q35 75 35 93t-16 18q-29 0 -114 -111l-6 4q94 129 148 129q23 0 35 -13.5t12 -32.5q0 -31 -32 -97l-104 -212q-42 -86 -42 -109q0 -20 17 -20q30 0 133 144l238 332q5 0 16 -1t17 -1
q5 0 16 1t17 1z" />
    <glyph glyph-name="paragraph" unicode="&#xb6;" horiz-adv-x="512" 
d="M196 -226l-8 3l85 223h-69q-71 0 -110.5 38.5t-39.5 116.5q0 76 28.5 166.5t77 171t123.5 134.5t158 54h185v-9h-86l-254 -663h83v-9h-86zM204 9h72l254 663h-72z" />
    <glyph glyph-name="periodcentered" unicode="&#xb7;" horiz-adv-x="245" 
d="M158 295q-20 0 -35 14.5t-15 35.5t15 35.5t35 14.5t35 -14.5t15 -35.5t-15 -35.5t-35 -14.5z" />
    <glyph glyph-name="cedilla" unicode="&#xb8;" horiz-adv-x="275" 
d="M93 -99q0 -53 -73.5 -97.5t-151.5 -53.5l-1 7q62 7 120.5 42.5t58.5 82.5q0 27 -33 27q-34 0 -56 -12l-2 3l115 100h6l-54 -58q14 2 19 2q23 0 37.5 -12t14.5 -31z" />
    <glyph glyph-name="onesuperior" unicode="&#xb9;" 
d="M274 397h-10q-11 0 -26 1.5t-30 1.5q-16 0 -32 -1.5t-27 -1.5h-20v7h20q23 0 33 9t23 41l53 138q4 8 4 15q0 9 -8 9q-2 0 -41 -17l-3 7l17 8q34 15 67.5 41t45.5 44l5 -2l-93 -243q-10 -23 -10 -35q0 -15 24 -15h8v-7z" />
    <glyph glyph-name="ordmasculine" unicode="&#xba;" horiz-adv-x="382" 
d="M333 291h-262v8h262v-8zM198 411q0 -45 38 -45q41 0 85 75q27 45 44.5 103.5t17.5 91.5q0 46 -38 46q-58 0 -116 -143q-31 -83 -31 -128zM423 587q0 -79 -56.5 -153.5t-129.5 -74.5q-34 0 -57 28.5t-23 73.5q0 79 57 153.5t130 74.5q34 0 56.5 -28.5t22.5 -73.5z" />
    <glyph glyph-name="guillemotright" unicode="&#xbb;" horiz-adv-x="468" 
d="M154 69l-4 5q31 27 71 67.5t77.5 79.5t41.5 43q-2 7 -10.5 38.5t-19.5 68t-23 62.5l6 3q13 -25 44 -69.5t56 -77t29 -36.5q-14 -8 -117.5 -78t-150.5 -106zM13 69l-4 5q31 27 71 67.5t77.5 79.5t41.5 43q-2 7 -10.5 38.5t-19.5 68t-23 62.5l6 3q13 -25 44 -69.5t56 -77
t29 -36.5q-14 -8 -117.5 -78t-150.5 -106z" />
    <glyph glyph-name="onequarter" unicode="&#xbc;" horiz-adv-x="367" 
d="M88 345h271v-8h-271v8zM307 397h-10q-11 0 -26 1.5t-30 1.5q-17 0 -33 -1.5t-26 -1.5h-20v7h20q23 0 33 9t23 41l53 138q4 8 4 15q0 9 -8 9q-2 0 -41 -17l-3 7l17 8q34 15 67.5 41t45.5 44l5 -2l-93 -243q-10 -23 -10 -35q0 -15 24 -15h8v-7zM185 0h-14q-5 0 -20 1.5
t-33 1.5q-16 0 -31 -1.5t-20 -1.5h-18v7h13q21 0 31.5 9.5t22.5 40.5l8 20h-117v5l201 202q4 0 11 -0.5t10 -0.5q4 0 10.5 0.5t10.5 0.5l-77 -200h2q23 0 84 68l4 -3l-42 -72h-50l-8 -20q-10 -24 -10 -35q0 -15 23 -15h9v-7zM126 84l67 175l-173 -175h106z" />
    <glyph glyph-name="onehalf" unicode="&#xbd;" horiz-adv-x="367" 
d="M88 345h271v-8h-271v8zM307 397h-10q-11 0 -26 1.5t-30 1.5q-17 0 -33 -1.5t-26 -1.5h-20v7h20q23 0 33 9t23 41l53 138q4 8 4 15q0 9 -8 9q-2 0 -41 -17l-3 7l17 8q34 15 67.5 41t45.5 44l5 -2l-93 -243q-10 -23 -10 -35q0 -15 24 -15h8v-7zM261 237q0 -18 -11.5 -37
t-34.5 -39t-42 -34t-52 -35.5t-46 -30.5l-31 -22h144l-40 -71l-5 2q4 8 4 17q0 13 -18 13h-141v5l82 61q145 109 145 196q0 24 -22 24q-29 0 -60 -47q-16 -25 -30 -25q-7 0 -13 5t-6 13q0 22 37 41t72 19q25 0 46.5 -15t21.5 -40z" />
    <glyph glyph-name="threequarters" unicode="&#xbe;" horiz-adv-x="367" 
d="M88 345h271v-8h-271v8zM185 0h-14q-5 0 -20 1.5t-33 1.5q-16 0 -31 -1.5t-20 -1.5h-18v7h13q21 0 31.5 9.5t22.5 40.5l8 20h-117v5l201 202q4 0 11 -0.5t10 -0.5q4 0 10.5 0.5t10.5 0.5l-77 -200h2q23 0 84 68l4 -3l-42 -72h-50l-8 -20q-10 -24 -10 -35q0 -15 23 -15h9
v-7zM126 84l67 175l-173 -175h106zM375 510q0 -48 -39 -84.5t-95 -36.5q-35 0 -56.5 21t-21.5 46q0 13 7 22t19 9q7 0 12.5 -5t5.5 -13q0 -6 -2 -17.5t-2 -18.5q0 -38 38 -38q47 0 78 81q14 37 14 58q0 18 -17 18q-5 0 -19 -6l-36 -16l-3 6l46 21q35 16 55 68q6 18 6 35
q0 23 -22 23q-29 0 -58 -44q-18 -28 -32 -28q-8 0 -13.5 5.5t-5.5 11.5q0 24 37.5 42.5t70.5 18.5q27 0 48 -15t21 -37q0 -45 -92 -79q24 0 40 -12.5t16 -35.5z" />
    <glyph glyph-name="questiondown" unicode="&#xbf;" horiz-adv-x="326" 
d="M197 284l8 -3l-77 -202q-89 -35 -141 -74.5t-52 -90.5q0 -27 17.5 -42.5t47.5 -15.5q22 0 46 6.5t32 6.5q14 0 23 -8t9 -21q0 -38 -69 -38q-49 0 -81.5 30t-32.5 81q0 141 224 250zM266 498q21 0 36.5 -15t15.5 -37t-15.5 -37t-36.5 -15t-36.5 15t-15.5 37t15.5 37
t36.5 15z" />
    <glyph glyph-name="Agrave" unicode="&#xc0;" horiz-adv-x="592" 
d="M512 0h-30q-6 0 -27 1.5t-36 1.5q-17 0 -43 -1.5t-30 -1.5h-20v8h11q25 1 40.5 16.5t16.5 41.5l2 123h-297l-50 -67q-34 -45 -35 -71q0 -43 48 -43h11v-8h-24q-11 0 -36 1.5t-35 1.5q-8 0 -35 -1.5t-34 -1.5h-19v8h7q31 0 64 28t80 91l358 476l-2 78q8 0 18.5 -1t16.5 -1
t15.5 1t16.5 1l-7 -616q0 -31 12 -44t40 -13h3v-8zM396 198l4 392l-294 -392h290zM480 729l-7 -2q-11 40 -36.5 90t-25.5 67q0 12 7.5 20t19.5 8q22 0 27 -23q5 -18 5.5 -67.5t9.5 -92.5z" />
    <glyph glyph-name="Aacute" unicode="&#xc1;" horiz-adv-x="592" 
d="M512 0h-30q-6 0 -27 1.5t-36 1.5q-17 0 -43 -1.5t-30 -1.5h-20v8h11q25 1 40.5 16.5t16.5 41.5l2 123h-297l-50 -67q-34 -45 -35 -71q0 -43 48 -43h11v-8h-24q-11 0 -36 1.5t-35 1.5q-8 0 -35 -1.5t-34 -1.5h-19v8h7q31 0 64 28t80 91l358 476l-2 78q8 0 18.5 -1t16.5 -1
t15.5 1t16.5 1l-7 -616q0 -31 12 -44t40 -13h3v-8zM396 198l4 392l-294 -392h290zM407 731l-5 5q34 36 74 93.5t52 70.5q10 12 25 12q10 0 18 -7.5t8 -19.5q0 -13 -10 -23q-11 -12 -69.5 -53.5t-92.5 -77.5z" />
    <glyph glyph-name="Acircumflex" unicode="&#xc2;" horiz-adv-x="592" 
d="M512 0h-30q-6 0 -27 1.5t-36 1.5q-17 0 -43 -1.5t-30 -1.5h-20v8h11q25 1 40.5 16.5t16.5 41.5l2 123h-297l-50 -67q-34 -45 -35 -71q0 -43 48 -43h11v-8h-24q-11 0 -36 1.5t-35 1.5q-8 0 -35 -1.5t-34 -1.5h-19v8h7q31 0 64 28t80 91l358 476l-2 78q8 0 18.5 -1t16.5 -1
t15.5 1t16.5 1l-7 -616q0 -31 12 -44t40 -13h3v-8zM396 198l4 392l-294 -392h290zM536 732l-6 -2q-17 54 -47 117q-6 -5 -41.5 -31t-59 -45.5t-45.5 -40.5l-5 5q31 31 125 144q28 32 40 32q22 0 25 -32q1 -13 3 -44t4.5 -56.5t6.5 -46.5z" />
    <glyph glyph-name="Atilde" unicode="&#xc3;" horiz-adv-x="592" 
d="M512 0h-30q-6 0 -27 1.5t-36 1.5q-17 0 -43 -1.5t-30 -1.5h-20v8h11q25 1 40.5 16.5t16.5 41.5l2 123h-297l-50 -67q-34 -45 -35 -71q0 -43 48 -43h11v-8h-24q-11 0 -36 1.5t-35 1.5q-8 0 -35 -1.5t-34 -1.5h-19v8h7q31 0 64 28t80 91l358 476l-2 78q8 0 18.5 -1t16.5 -1
t15.5 1t16.5 1l-7 -616q0 -31 12 -44t40 -13h3v-8zM396 198l4 392l-294 -392h290zM512 777q-20 0 -55 21.5t-61 21.5q-11 0 -23.5 -11t-18 -18.5t-17.5 -26.5l-6 4q2 3 13 21t17.5 26.5t18 21.5t24.5 18.5t28 5.5q20 0 55 -21.5t61 -21.5q11 0 23.5 11t18 18.5t17.5 26.5
l6 -4q-35 -59 -58 -77q-21 -16 -43 -16z" />
    <glyph glyph-name="Adieresis" unicode="&#xc4;" horiz-adv-x="592" 
d="M512 0h-30q-6 0 -27 1.5t-36 1.5q-17 0 -43 -1.5t-30 -1.5h-20v8h11q25 1 40.5 16.5t16.5 41.5l2 123h-297l-50 -67q-34 -45 -35 -71q0 -43 48 -43h11v-8h-24q-11 0 -36 1.5t-35 1.5q-8 0 -35 -1.5t-34 -1.5h-19v8h7q31 0 64 28t80 91l358 476l-2 78q8 0 18.5 -1t16.5 -1
t15.5 1t16.5 1l-7 -616q0 -31 12 -44t40 -13h3v-8zM396 198l4 392l-294 -392h290zM380 765q-18 0 -30 11.5t-12 30.5t12 31t30 12t30.5 -12t12.5 -31q0 -18 -12.5 -30t-30.5 -12zM550 765q-18 0 -30 11.5t-12 30.5t12 31t30 12t30.5 -12t12.5 -31q0 -18 -12.5 -30t-30.5 -12
z" />
    <glyph glyph-name="Aring" unicode="&#xc5;" horiz-adv-x="592" 
d="M512 0h-30q-6 0 -27 1.5t-36 1.5q-17 0 -43 -1.5t-30 -1.5h-20v8h11q25 1 40.5 16.5t16.5 41.5l2 123h-297l-50 -67q-34 -45 -35 -71q0 -43 48 -43h11v-8h-24q-11 0 -36 1.5t-35 1.5q-8 0 -35 -1.5t-34 -1.5h-19v8h7q31 0 64 28t80 91l358 476l-2 78q8 0 18.5 -1t16.5 -1
t15.5 1t16.5 1l-7 -616q0 -31 12 -44t40 -13h3v-8zM396 198l4 392l-294 -392h290zM558 828q0 -36 -24 -61t-60 -25t-60 25t-24 61t24 61t60 25t60 -25t24 -61zM549 828q0 32 -21.5 54.5t-53.5 22.5t-53.5 -22.5t-21.5 -54.5t21.5 -54.5t53.5 -22.5t53.5 22.5t21.5 54.5z" />
    <glyph glyph-name="AE" unicode="&#xc6;" horiz-adv-x="939" 
d="M723 681h203q37 0 41 30h6l9 -231l-6 -1q-27 106 -46 153q-9 23 -20 31.5t-37 8.5h-183l-125 -322h123q42 0 72 34t61 99l7 -2l-108 -280l-7 2q18 52 18 85q0 53 -46 53h-123l-127 -332h194q33 0 54 10t55 43q56 53 140 147l5 -4l-145 -237l-6 2q6 12 1.5 21t-18.5 9
h-251q-11 0 -30 0.5t-34 0.5q-14 0 -35.5 -0.5t-31.5 -0.5h-28v8h11q30 0 45.5 11.5t27.5 43.5l48 126h-304l-81 -77l-7.5 -7.5l-9 -9t-8.5 -9t-8.5 -10t-7 -9.5t-6.5 -10.5t-3.5 -9.5t-1.5 -10q0 -29 41 -29h3v-8h-14q-11 0 -39.5 1.5t-40.5 1.5q-9 0 -37 -1.5t-35 -1.5
h-23v8h4q68 0 186 111l545 507q19 18 19 30q0 17 -31 17h-19v8h35q10 0 29.5 -0.5t35.5 -0.5q15 0 34.5 0.5t29.5 0.5zM441 198l165 429l-464 -429h299z" />
    <glyph glyph-name="Ccedilla" unicode="&#xc7;" horiz-adv-x="579" 
d="M241 -99q0 -53 -73.5 -97.5t-151.5 -53.5l-1 7q62 7 120.5 42.5t58.5 82.5q0 27 -33 27q-34 0 -56 -12l-2 3l104 91q-66 9 -108.5 64t-42.5 143q0 113 55.5 228t147 190t186.5 75q27 0 67 -9.5t49 -9.5q28 0 26 32l6 1l30 -227l-6 -1q-12 41 -17.5 58t-21 52t-30.5 51
t-40.5 30t-57.5 14q-80 0 -155.5 -71t-120 -179t-44.5 -215q0 -88 36.5 -135.5t105.5 -47.5q52 0 112 36t116 112l6 -5q-61 -86 -135 -136.5t-143 -50.5h-13l-45 -48q14 2 19 2q23 0 37.5 -12t14.5 -31z" />
    <glyph glyph-name="Egrave" unicode="&#xc8;" horiz-adv-x="572" 
d="M371 -32l-6 2q6 12 1.5 21t-18.5 9h-251q-11 0 -30 0.5t-34 0.5q-14 0 -35.5 -0.5t-31.5 -0.5h-28v8h11q30 0 45.5 11.5t27.5 43.5l214 556q7 15 7 30q0 24 -32 24h-19v8h35q9 0 29 -0.5t36 -0.5q15 0 34.5 0.5t29.5 0.5h203q37 0 41 30h6l9 -231l-6 -1q-27 106 -46 153
q-9 23 -20 31.5t-37 8.5h-183l-125 -322h123q42 0 72 34t61 99l7 -2l-108 -280l-7 2q18 52 18 85q0 53 -46 53h-123l-127 -332h194q33 0 54 10t55 43q56 53 140 147l5 -4zM464 729l-7 -2q-11 40 -36.5 90t-25.5 67q0 12 7.5 20t19.5 8q22 0 27 -23q5 -18 5.5 -67.5
t9.5 -92.5z" />
    <glyph glyph-name="Eacute" unicode="&#xc9;" horiz-adv-x="572" 
d="M371 -32l-6 2q6 12 1.5 21t-18.5 9h-251q-11 0 -30 0.5t-34 0.5q-14 0 -35.5 -0.5t-31.5 -0.5h-28v8h11q30 0 45.5 11.5t27.5 43.5l214 556q7 15 7 30q0 24 -32 24h-19v8h35q9 0 29 -0.5t36 -0.5q15 0 34.5 0.5t29.5 0.5h203q37 0 41 30h6l9 -231l-6 -1q-27 106 -46 153
q-9 23 -20 31.5t-37 8.5h-183l-125 -322h123q42 0 72 34t61 99l7 -2l-108 -280l-7 2q18 52 18 85q0 53 -46 53h-123l-127 -332h194q33 0 54 10t55 43q56 53 140 147l5 -4zM391 731l-5 5q34 36 74 93.5t52 70.5q10 12 25 12q10 0 18 -7.5t8 -19.5q0 -13 -10 -23
q-11 -12 -69.5 -53.5t-92.5 -77.5z" />
    <glyph glyph-name="Ecircumflex" unicode="&#xca;" horiz-adv-x="572" 
d="M371 -32l-6 2q6 12 1.5 21t-18.5 9h-251q-11 0 -30 0.5t-34 0.5q-14 0 -35.5 -0.5t-31.5 -0.5h-28v8h11q30 0 45.5 11.5t27.5 43.5l214 556q7 15 7 30q0 24 -32 24h-19v8h35q9 0 29 -0.5t36 -0.5q15 0 34.5 0.5t29.5 0.5h203q37 0 41 30h6l9 -231l-6 -1q-27 106 -46 153
q-9 23 -20 31.5t-37 8.5h-183l-125 -322h123q42 0 72 34t61 99l7 -2l-108 -280l-7 2q18 52 18 85q0 53 -46 53h-123l-127 -332h194q33 0 54 10t55 43q56 53 140 147l5 -4zM520 732l-6 -2q-17 54 -47 117q-6 -5 -41.5 -31t-59 -45.5t-45.5 -40.5l-5 5q31 31 125 144
q28 32 40 32q22 0 25 -32q1 -13 3 -44t4.5 -56.5t6.5 -46.5z" />
    <glyph glyph-name="Edieresis" unicode="&#xcb;" horiz-adv-x="572" 
d="M371 -32l-6 2q6 12 1.5 21t-18.5 9h-251q-11 0 -30 0.5t-34 0.5q-14 0 -35.5 -0.5t-31.5 -0.5h-28v8h11q30 0 45.5 11.5t27.5 43.5l214 556q7 15 7 30q0 24 -32 24h-19v8h35q9 0 29 -0.5t36 -0.5q15 0 34.5 0.5t29.5 0.5h203q37 0 41 30h6l9 -231l-6 -1q-27 106 -46 153
q-9 23 -20 31.5t-37 8.5h-183l-125 -322h123q42 0 72 34t61 99l7 -2l-108 -280l-7 2q18 52 18 85q0 53 -46 53h-123l-127 -332h194q33 0 54 10t55 43q56 53 140 147l5 -4zM364 765q-18 0 -30 11.5t-12 30.5t12 31t30 12t30.5 -12t12.5 -31q0 -18 -12.5 -30t-30.5 -12z
M534 765q-18 0 -30 11.5t-12 30.5t12 31t30 12t30.5 -12t12.5 -31q0 -18 -12.5 -30t-30.5 -12z" />
    <glyph glyph-name="Igrave" unicode="&#xcc;" horiz-adv-x="257" 
d="M132 0h-34q-10 0 -30 1.5t-36 1.5q-15 0 -35.5 -1.5t-30.5 -1.5h-28v8h11q29 0 44.5 11.5t28.5 43.5l214 556q7 15 7 30q0 24 -32 24h-19v8h34q10 0 30 -1.5t36 -1.5q15 0 35.5 1.5t30.5 1.5h28v-8h-11q-29 0 -44.5 -11.5t-28.5 -43.5l-214 -556q-7 -15 -7 -30
q0 -24 32 -24h19v-8zM354 729l-7 -2q-11 40 -36.5 90t-25.5 67q0 12 7.5 20t19.5 8q22 0 27 -23q5 -18 5.5 -67.5t9.5 -92.5z" />
    <glyph glyph-name="Iacute" unicode="&#xcd;" horiz-adv-x="257" 
d="M132 0h-34q-10 0 -30 1.5t-36 1.5q-15 0 -35.5 -1.5t-30.5 -1.5h-28v8h11q29 0 44.5 11.5t28.5 43.5l214 556q7 15 7 30q0 24 -32 24h-19v8h34q10 0 30 -1.5t36 -1.5q15 0 35.5 1.5t30.5 1.5h28v-8h-11q-29 0 -44.5 -11.5t-28.5 -43.5l-214 -556q-7 -15 -7 -30
q0 -24 32 -24h19v-8zM281 731l-5 5q34 36 74 93.5t52 70.5q10 12 25 12q10 0 18 -7.5t8 -19.5q0 -13 -10 -23q-11 -12 -69.5 -53.5t-92.5 -77.5z" />
    <glyph glyph-name="Icircumflex" unicode="&#xce;" horiz-adv-x="257" 
d="M132 0h-34q-10 0 -30 1.5t-36 1.5q-15 0 -35.5 -1.5t-30.5 -1.5h-28v8h11q29 0 44.5 11.5t28.5 43.5l214 556q7 15 7 30q0 24 -32 24h-19v8h34q10 0 30 -1.5t36 -1.5q15 0 35.5 1.5t30.5 1.5h28v-8h-11q-29 0 -44.5 -11.5t-28.5 -43.5l-214 -556q-7 -15 -7 -30
q0 -24 32 -24h19v-8zM410 732l-6 -2q-17 54 -47 117q-6 -5 -41.5 -31t-59 -45.5t-45.5 -40.5l-5 5q31 31 125 144q28 32 40 32q22 0 25 -32q1 -13 3 -44t4.5 -56.5t6.5 -46.5z" />
    <glyph glyph-name="Idieresis" unicode="&#xcf;" horiz-adv-x="257" 
d="M132 0h-34q-10 0 -30 1.5t-36 1.5q-15 0 -35.5 -1.5t-30.5 -1.5h-28v8h11q29 0 44.5 11.5t28.5 43.5l214 556q7 15 7 30q0 24 -32 24h-19v8h34q10 0 30 -1.5t36 -1.5q15 0 35.5 1.5t30.5 1.5h28v-8h-11q-29 0 -44.5 -11.5t-28.5 -43.5l-214 -556q-7 -15 -7 -30
q0 -24 32 -24h19v-8zM252 765q-18 0 -30 11.5t-12 30.5t12 31t30 12t30.5 -12t12.5 -31q0 -18 -12.5 -30t-30.5 -12zM422 765q-18 0 -30 11.5t-12 30.5t12 31t30 12t30.5 -12t12.5 -31q0 -18 -12.5 -30t-30.5 -12z" />
    <glyph glyph-name="Eth" unicode="&#xd0;" horiz-adv-x="620" 
d="M627 478q0 -47 -14.5 -106t-48 -125.5t-81 -121t-122 -90t-162.5 -35.5h-95q-11 0 -30 1.5t-34 1.5q-14 0 -35 -1.5t-31 -1.5h-28v8h10q30 0 46 11.5t28 43.5l107 280h-66v9h70l103 267q7 15 7 30q0 24 -32 24h-19v8h33q9 0 29 -0.5t36 -0.5q15 0 34.5 0.5t29.5 0.5h58
q207 0 207 -203zM76 9h130q73 0 137.5 46.5t105.5 114t71 145t43 137t13 91.5q0 72 -40 100.5t-123 28.5h-83l-122 -320h126v-9h-130z" />
    <glyph glyph-name="Ntilde" unicode="&#xd1;" horiz-adv-x="629" 
d="M456 74l19 -74q-10 0 -19 0.5t-14 0.5q-6 0 -14.5 -0.5t-16.5 -0.5l-162 613l-184 -478q-18 -44 -18 -75q0 -51 49 -52h10v-8h-35q-4 0 -24.5 1.5t-34.5 1.5q-15 0 -32.5 -1.5t-21.5 -1.5h-33v8h14q40 0 67 35t50 94l188 487q-6 25 -16 37t-32 12h-20v8h36q10 0 24 -0.5
t22 -0.5q10 0 19 0.5t19 0.5l156 -592l176 457q18 44 18 75q0 51 -49 52h-10v8h35q5 0 25 -1.5t35 -1.5q16 0 32.5 1.5t21.5 1.5h32v-8h-13q-71 0 -118 -129zM546 777q-20 0 -55 21.5t-61 21.5q-11 0 -23.5 -11t-18 -18.5t-17.5 -26.5l-6 4q2 3 13 21t17.5 26.5t18 21.5
t24.5 18.5t28 5.5q21 0 55.5 -21.5t60.5 -21.5q11 0 23.5 11t18 18.5t17.5 26.5l6 -4q-35 -59 -58 -77q-21 -16 -43 -16z" />
    <glyph glyph-name="Ograve" unicode="&#xd2;" horiz-adv-x="627" 
d="M226 -10q-74 0 -122 57.5t-48 152.5q0 73 30 157.5t81 159.5t130 124.5t167 49.5q75 0 123 -57.5t48 -152.5q0 -73 -30 -157.5t-81 -159.5t-130.5 -124.5t-167.5 -49.5zM230 -2q63 0 122 45.5t100 114t72 146t46 142.5t15 103q0 134 -124 134q-63 0 -122 -45.5t-100 -114
t-72 -146t-46 -142.5t-15 -103q0 -134 124 -134zM529 729l-7 -2q-11 40 -36.5 90t-25.5 67q0 12 7.5 20t19.5 8q22 0 27 -23q5 -18 5.5 -67.5t9.5 -92.5z" />
    <glyph glyph-name="Oacute" unicode="&#xd3;" horiz-adv-x="627" 
d="M226 -10q-74 0 -122 57.5t-48 152.5q0 73 30 157.5t81 159.5t130 124.5t167 49.5q75 0 123 -57.5t48 -152.5q0 -73 -30 -157.5t-81 -159.5t-130.5 -124.5t-167.5 -49.5zM230 -2q63 0 122 45.5t100 114t72 146t46 142.5t15 103q0 134 -124 134q-63 0 -122 -45.5t-100 -114
t-72 -146t-46 -142.5t-15 -103q0 -134 124 -134zM456 731l-5 5q34 36 74 93.5t52 70.5q11 12 25 12q10 0 18 -7.5t8 -19.5q0 -13 -10 -23q-11 -12 -69.5 -53.5t-92.5 -77.5z" />
    <glyph glyph-name="Ocircumflex" unicode="&#xd4;" horiz-adv-x="627" 
d="M226 -10q-74 0 -122 57.5t-48 152.5q0 73 30 157.5t81 159.5t130 124.5t167 49.5q75 0 123 -57.5t48 -152.5q0 -73 -30 -157.5t-81 -159.5t-130.5 -124.5t-167.5 -49.5zM230 -2q63 0 122 45.5t100 114t72 146t46 142.5t15 103q0 134 -124 134q-63 0 -122 -45.5t-100 -114
t-72 -146t-46 -142.5t-15 -103q0 -134 124 -134zM585 732l-6 -2q-17 54 -47 117q-6 -5 -41.5 -31t-59 -45.5t-45.5 -40.5l-5 5q31 31 125 144q28 32 40 32q22 0 25 -32q1 -13 3 -44t4.5 -56.5t6.5 -46.5z" />
    <glyph glyph-name="Otilde" unicode="&#xd5;" horiz-adv-x="627" 
d="M226 -10q-74 0 -122 57.5t-48 152.5q0 73 30 157.5t81 159.5t130 124.5t167 49.5q75 0 123 -57.5t48 -152.5q0 -73 -30 -157.5t-81 -159.5t-130.5 -124.5t-167.5 -49.5zM230 -2q63 0 122 45.5t100 114t72 146t46 142.5t15 103q0 134 -124 134q-63 0 -122 -45.5t-100 -114
t-72 -146t-46 -142.5t-15 -103q0 -134 124 -134zM561 777q-21 0 -55 21.5t-61 21.5q-11 0 -23.5 -11t-18 -18.5t-17.5 -26.5l-6 4q2 3 13 21t17.5 26.5t18 21.5t24.5 18.5t28 5.5q21 0 55 -21.5t61 -21.5q11 0 23.5 11t18 18.5t17.5 26.5l6 -4q-35 -59 -58 -77
q-21 -16 -43 -16z" />
    <glyph glyph-name="Odieresis" unicode="&#xd6;" horiz-adv-x="627" 
d="M226 -10q-74 0 -122 57.5t-48 152.5q0 73 30 157.5t81 159.5t130 124.5t167 49.5q75 0 123 -57.5t48 -152.5q0 -73 -30 -157.5t-81 -159.5t-130.5 -124.5t-167.5 -49.5zM230 -2q63 0 122 45.5t100 114t72 146t46 142.5t15 103q0 134 -124 134q-63 0 -122 -45.5t-100 -114
t-72 -146t-46 -142.5t-15 -103q0 -134 124 -134zM429 765q-18 0 -30 11.5t-12 30.5t12 31t30 12t30.5 -12t12.5 -31q0 -18 -12.5 -30t-30.5 -12zM599 765q-18 0 -30 11.5t-12 30.5t12 31t30 12t30.5 -12t12.5 -31q0 -18 -12.5 -30t-30.5 -12z" />
    <glyph glyph-name="multiply" unicode="&#xd7;" horiz-adv-x="382" 
d="M315 157l-8 -4l-85 163l-209 -163l-6 7l211 164l-84 163l8 4l84 -161l208 162l6 -7l-210 -164z" />
    <glyph glyph-name="Oslash" unicode="&#xd8;" horiz-adv-x="627" 
d="M226 -10q-87 0 -136 77l-117 -122l-6 6l118 123q-29 53 -29 126t30 157.5t81 159.5t130 124.5t167 49.5q89 0 138 -80l120 125l6 -6l-122 -126q29 -50 29 -123t-30 -157.5t-81 -159.5t-130.5 -124.5t-167.5 -49.5zM106 132q0 -27 2 -34l473 492q-17 93 -120 93
q-63 0 -122 -45.5t-100 -114t-72 -146t-46 -142.5t-15 -103zM230 -2q63 0 122 45.5t100 114t72 146t46 142.5t15 103q0 12 -2 30l-473 -491q18 -90 120 -90z" />
    <glyph glyph-name="Ugrave" unicode="&#xd9;" horiz-adv-x="593" 
d="M216 -8q-77 0 -120 34.5t-43 97.5q0 46 30 123l143 372q7 18 7 30q0 24 -32 24h-19v8h34q10 0 30 -1.5t35 -1.5t35.5 1.5t31.5 1.5h28v-8h-10q-30 0 -46 -11.5t-28 -43.5l-142 -369q-34 -91 -34 -138q0 -49 29 -77t85 -28q79 0 142.5 55.5t105.5 163.5l125 321
q18 44 18 75q0 51 -49 52h-9v8h34q5 0 25 -1.5t35 -1.5q16 0 32.5 1.5t20.5 1.5h33v-8h-15q-40 0 -66.5 -35.5t-49.5 -93.5l-125 -323q-88 -229 -271 -229zM517 729l-7 -2q-11 40 -36.5 90t-25.5 67q0 12 7.5 20t19.5 8q22 0 27 -23q5 -18 5.5 -67.5t9.5 -92.5z" />
    <glyph glyph-name="Uacute" unicode="&#xda;" horiz-adv-x="593" 
d="M216 -8q-77 0 -120 34.5t-43 97.5q0 46 30 123l143 372q7 18 7 30q0 24 -32 24h-19v8h34q10 0 30 -1.5t35 -1.5t35.5 1.5t31.5 1.5h28v-8h-10q-30 0 -46 -11.5t-28 -43.5l-142 -369q-34 -91 -34 -138q0 -49 29 -77t85 -28q79 0 142.5 55.5t105.5 163.5l125 321
q18 44 18 75q0 51 -49 52h-9v8h34q5 0 25 -1.5t35 -1.5q16 0 32.5 1.5t20.5 1.5h33v-8h-15q-40 0 -66.5 -35.5t-49.5 -93.5l-125 -323q-88 -229 -271 -229zM444 731l-5 5q34 36 74 93.5t52 70.5q11 12 25 12q10 0 18 -7.5t8 -19.5q0 -13 -10 -23q-11 -12 -69.5 -53.5
t-92.5 -77.5z" />
    <glyph glyph-name="Ucircumflex" unicode="&#xdb;" horiz-adv-x="593" 
d="M216 -8q-77 0 -120 34.5t-43 97.5q0 46 30 123l143 372q7 18 7 30q0 24 -32 24h-19v8h34q10 0 30 -1.5t35 -1.5t35.5 1.5t31.5 1.5h28v-8h-10q-30 0 -46 -11.5t-28 -43.5l-142 -369q-34 -91 -34 -138q0 -49 29 -77t85 -28q79 0 142.5 55.5t105.5 163.5l125 321
q18 44 18 75q0 51 -49 52h-9v8h34q5 0 25 -1.5t35 -1.5q16 0 32.5 1.5t20.5 1.5h33v-8h-15q-40 0 -66.5 -35.5t-49.5 -93.5l-125 -323q-88 -229 -271 -229zM573 732l-6 -2q-17 54 -47 117q-6 -5 -41.5 -31t-59 -45.5t-45.5 -40.5l-5 5q31 31 125 144q28 32 40 32
q22 0 25 -32q1 -13 3 -44t4.5 -56.5t6.5 -46.5z" />
    <glyph glyph-name="Udieresis" unicode="&#xdc;" horiz-adv-x="593" 
d="M216 -8q-77 0 -120 34.5t-43 97.5q0 46 30 123l143 372q7 18 7 30q0 24 -32 24h-19v8h34q10 0 30 -1.5t35 -1.5t35.5 1.5t31.5 1.5h28v-8h-10q-30 0 -46 -11.5t-28 -43.5l-142 -369q-34 -91 -34 -138q0 -49 29 -77t85 -28q79 0 142.5 55.5t105.5 163.5l125 321
q18 44 18 75q0 51 -49 52h-9v8h34q5 0 25 -1.5t35 -1.5q16 0 32.5 1.5t20.5 1.5h33v-8h-15q-40 0 -66.5 -35.5t-49.5 -93.5l-125 -323q-88 -229 -271 -229zM417 765q-18 0 -30 11.5t-12 30.5t12 31t30 12t30.5 -12t12.5 -31q0 -18 -12.5 -30t-30.5 -12zM587 765
q-18 0 -30 11.5t-12 30.5t12 31t30 12t30.5 -12t12.5 -31q0 -18 -12.5 -30t-30.5 -12z" />
    <glyph glyph-name="Yacute" unicode="&#xdd;" horiz-adv-x="561" 
d="M283 0h-34q-9 0 -29 1.5t-36 1.5q-15 0 -35.5 -1.5t-30.5 -1.5h-28v8h11q29 0 44.5 11.5t28.5 43.5l100 261l-65 303q-6 27 -18 36.5t-39 9.5h-10v8h42q4 0 24 -1.5t36 -1.5t36 1.5t24 1.5h34v-8h-10q-54 0 -54 -34q0 -14 3 -27l59 -280l208 227q48 52 55 69q3 8 3 15
q0 30 -35 30h-9v8h18q17 0 39.5 -1.5t31.5 -1.5q11 0 36 1.5t32 1.5h25v-8h-8q-66 0 -182 -122l-213 -233l-98 -256q-7 -18 -7 -30q0 -24 32 -24h19v-8zM426 731l-5 5q34 36 74 93.5t52 70.5q11 12 25 12q10 0 18 -7.5t8 -19.5q0 -13 -10 -23q-11 -12 -69.5 -53.5
t-92.5 -77.5z" />
    <glyph glyph-name="Thorn" unicode="&#xde;" horiz-adv-x="542" 
d="M132 0h-34q-10 0 -30 1.5t-36 1.5q-15 0 -35.5 -1.5t-30.5 -1.5h-28v8h11q29 0 44.5 11.5t28.5 43.5l214 556q7 15 7 30q0 24 -32 24h-19v8h34q10 0 30 -1.5t36 -1.5q15 0 35.5 1.5t30.5 1.5h28v-8h-11q-29 0 -44.5 -11.5t-28.5 -43.5l-30 -77h132q72 0 113.5 -33.5
t41.5 -93.5q0 -91 -79 -166t-205 -75h-145l-42 -111q-7 -15 -7 -30q0 -24 32 -24h19v-8zM400 532h-131l-135 -350h145q58 0 104.5 33.5t70.5 80.5t36 86.5t12 63.5q0 46 -22 66t-80 20z" />
    <glyph glyph-name="germandbls" unicode="&#xdf;" horiz-adv-x="503" 
d="M231 506l-128 -383q-56 -170 -162 -264.5t-200 -94.5q-15 0 -25 7.5t-10 19.5q0 27 35 27q11 0 43 -8t49 -8q47 0 96 66t87 181l117 353l19 55l9 25h-86v8h89q39 93 102 146.5t142 53.5q51 0 88 -22t37 -58q0 -18 -8.5 -34t-26 -30.5t-33 -24.5t-40 -24.5t-36.5 -22.5
q-27 -20 -39 -35t-12 -37q0 -8 1.5 -15t6 -15t7 -12t10.5 -15t11 -15l31 -47q45 -65 45 -130q0 -75 -47 -118t-111 -43t-103 35t-39 77q0 11 7.5 19t18.5 8q21 0 27 -28q12 -54 30.5 -79t61.5 -25q47 0 79 31t32 86q0 54 -54 129l-33 49q-30 44 -30 73q0 22 18 46t31.5 35
t44.5 33q98 67 98 131q0 31 -18.5 50.5t-54.5 19.5q-67 0 -106.5 -41.5t-70.5 -134.5z" />
    <glyph glyph-name="agrave" unicode="&#xe0;" horiz-adv-x="502" 
d="M306 -8q-23 0 -35 13.5t-12 32.5q0 22 30 98l97 255l-179 -269q-45 -68 -77.5 -99t-65.5 -31q-25 0 -42.5 15.5t-17.5 50.5q0 43 24.5 116t63 145.5t93 125.5t106.5 53q63 0 109 -76q37 14 54 29.5t33 46.5l6 -2l-143 -371q-3 -8 -12.5 -31.5t-14.5 -38.5t-5 -23
q0 -18 17 -18q28 0 113 111l6 -4q-94 -129 -148 -129zM95 14q28 0 106 113l193 289q-16 28 -41.5 50t-49.5 22q-50 0 -106.5 -90t-90 -192.5t-33.5 -154.5q0 -37 22 -37zM395 540l-7 -2q-11 40 -36.5 90t-25.5 67q0 12 7.5 20t19.5 8q22 0 27 -23q5 -18 5.5 -67.5t9.5 -92.5
z" />
    <glyph glyph-name="aacute" unicode="&#xe1;" horiz-adv-x="502" 
d="M306 -8q-23 0 -35 13.5t-12 32.5q0 22 30 98l97 255l-179 -269q-45 -68 -77.5 -99t-65.5 -31q-25 0 -42.5 15.5t-17.5 50.5q0 43 24.5 116t63 145.5t93 125.5t106.5 53q63 0 109 -76q37 14 54 29.5t33 46.5l6 -2l-143 -371q-3 -8 -12.5 -31.5t-14.5 -38.5t-5 -23
q0 -18 17 -18q28 0 113 111l6 -4q-94 -129 -148 -129zM95 14q28 0 106 113l193 289q-16 28 -41.5 50t-49.5 22q-50 0 -106.5 -90t-90 -192.5t-33.5 -154.5q0 -37 22 -37zM322 542l-5 5q34 36 74 93.5t52 70.5q10 12 25 12q10 0 18 -7.5t8 -19.5q0 -13 -10 -23
q-11 -12 -69.5 -53.5t-92.5 -77.5z" />
    <glyph glyph-name="acircumflex" unicode="&#xe2;" horiz-adv-x="502" 
d="M306 -8q-23 0 -35 13.5t-12 32.5q0 22 30 98l97 255l-179 -269q-45 -68 -77.5 -99t-65.5 -31q-25 0 -42.5 15.5t-17.5 50.5q0 43 24.5 116t63 145.5t93 125.5t106.5 53q63 0 109 -76q37 14 54 29.5t33 46.5l6 -2l-143 -371q-3 -8 -12.5 -31.5t-14.5 -38.5t-5 -23
q0 -18 17 -18q28 0 113 111l6 -4q-94 -129 -148 -129zM95 14q28 0 106 113l193 289q-16 28 -41.5 50t-49.5 22q-50 0 -106.5 -90t-90 -192.5t-33.5 -154.5q0 -37 22 -37zM451 543l-6 -2q-17 54 -47 117q-6 -5 -41.5 -31t-59 -45.5t-45.5 -40.5l-5 5q31 31 125 144
q28 32 40 32q22 0 25 -32q1 -13 3 -44t4.5 -56.5t6.5 -46.5z" />
    <glyph glyph-name="atilde" unicode="&#xe3;" horiz-adv-x="502" 
d="M306 -8q-23 0 -35 13.5t-12 32.5q0 22 30 98l97 255l-179 -269q-45 -68 -77.5 -99t-65.5 -31q-25 0 -42.5 15.5t-17.5 50.5q0 43 24.5 116t63 145.5t93 125.5t106.5 53q63 0 109 -76q37 14 54 29.5t33 46.5l6 -2l-143 -371q-3 -8 -12.5 -31.5t-14.5 -38.5t-5 -23
q0 -18 17 -18q28 0 113 111l6 -4q-94 -129 -148 -129zM95 14q28 0 106 113l193 289q-16 28 -41.5 50t-49.5 22q-50 0 -106.5 -90t-90 -192.5t-33.5 -154.5q0 -37 22 -37zM427 588q-21 0 -55 21.5t-61 21.5q-11 0 -23.5 -11t-18 -18.5t-17.5 -26.5l-6 4q2 3 13 21t17.5 26.5
t18 21.5t24.5 18.5t28 5.5q21 0 55 -21.5t61 -21.5q11 0 23.5 11t18 18.5t17.5 26.5l6 -4q-35 -59 -58 -77q-21 -16 -43 -16z" />
    <glyph glyph-name="adieresis" unicode="&#xe4;" horiz-adv-x="502" 
d="M306 -8q-23 0 -35 13.5t-12 32.5q0 22 30 98l97 255l-179 -269q-45 -68 -77.5 -99t-65.5 -31q-25 0 -42.5 15.5t-17.5 50.5q0 43 24.5 116t63 145.5t93 125.5t106.5 53q63 0 109 -76q37 14 54 29.5t33 46.5l6 -2l-143 -371q-3 -8 -12.5 -31.5t-14.5 -38.5t-5 -23
q0 -18 17 -18q28 0 113 111l6 -4q-94 -129 -148 -129zM95 14q28 0 106 113l193 289q-16 28 -41.5 50t-49.5 22q-50 0 -106.5 -90t-90 -192.5t-33.5 -154.5q0 -37 22 -37zM299 586q-18 0 -30 11.5t-12 30.5t12 31t30 12t30.5 -12t12.5 -31q0 -18 -12.5 -30t-30.5 -12z
M469 586q-18 0 -30 11.5t-12 30.5t12 31t30 12t30.5 -12t12.5 -31q0 -18 -12.5 -30t-30.5 -12z" />
    <glyph glyph-name="aring" unicode="&#xe5;" horiz-adv-x="502" 
d="M306 -8q-23 0 -35 13.5t-12 32.5q0 22 30 98l97 255l-179 -269q-45 -68 -77.5 -99t-65.5 -31q-25 0 -42.5 15.5t-17.5 50.5q0 43 24.5 116t63 145.5t93 125.5t106.5 53q63 0 109 -76q37 14 54 29.5t33 46.5l6 -2l-143 -371q-3 -8 -12.5 -31.5t-14.5 -38.5t-5 -23
q0 -18 17 -18q28 0 113 111l6 -4q-94 -129 -148 -129zM95 14q28 0 106 113l193 289q-16 28 -41.5 50t-49.5 22q-50 0 -106.5 -90t-90 -192.5t-33.5 -154.5q0 -37 22 -37zM473 639q0 -36 -24 -61t-60 -25t-60 25t-24 61t24 61t60 25t60 -25t24 -61zM464 639q0 32 -21.5 54.5
t-53.5 22.5t-53.5 -22.5t-21.5 -54.5t21.5 -54.5t53.5 -22.5t53.5 22.5t21.5 54.5z" />
    <glyph glyph-name="ae" unicode="&#xe6;" horiz-adv-x="657" 
d="M292 498q34 0 68.5 -25t51.5 -56q79 81 160 81q42 0 69.5 -18t27.5 -48q0 -39 -51 -81t-120.5 -69t-129.5 -33q-18 -60 -18 -114q0 -105 64 -105q72 0 170 128l5 -4q-118 -162 -210 -162q-44 0 -71 35.5t-27 90.5q0 72 40 164l-121 -171q-47 -66 -77.5 -92.5t-57.5 -26.5
q-29 0 -45 17t-16 47q0 45 24.5 118.5t63 146t93.5 125t107 52.5zM194 116l162 230q34 49 50 65q-14 28 -46 52.5t-57 24.5q-51 0 -107.5 -91.5t-89.5 -194t-33 -151.5q0 -37 22 -37q28 0 99 102zM574 491q-63 0 -118 -69t-85 -165q98 10 169.5 68t71.5 126q0 40 -38 40z
" />
    <glyph glyph-name="ccedilla" unicode="&#xe7;" horiz-adv-x="400" 
d="M135 -99q0 -53 -73.5 -97.5t-151.5 -53.5l-1 7q62 7 120.5 42.5t58.5 82.5q0 27 -33 27q-34 0 -56 -12l-2 3l106 93q-37 4 -61.5 38t-24.5 87q0 79 40 167.5t107 150.5t137 62q43 0 69.5 -34t26.5 -75q0 -59 -32 -59q-11 0 -18 7.5t-7 18.5q0 10 9 34.5t9 43.5
q0 25 -15 41t-41 16q-52 0 -103.5 -59t-82 -141.5t-30.5 -153.5q0 -107 62 -107q74 0 172 128l5 -4q-117 -162 -212 -162h-3l-46 -50q14 2 19 2q23 0 37.5 -12t14.5 -31z" />
    <glyph glyph-name="egrave" unicode="&#xe8;" horiz-adv-x="398" 
d="M116 -8q-44 0 -71 35.5t-27 90.5q0 83 43 172t112.5 148.5t139.5 59.5q43 0 70 -18t27 -48q0 -39 -52 -81t-122 -69t-130 -33q-19 -63 -19 -114q0 -105 64 -105q72 0 170 128l5 -4q-118 -162 -210 -162zM353 451q0 40 -38 40q-63 0 -120 -69.5t-87 -164.5q99 10 172 68
t73 126zM366 540l-7 -2q-11 40 -36.5 90t-25.5 67q0 12 7.5 20t19.5 8q22 0 27 -23q5 -18 5.5 -67.5t9.5 -92.5z" />
    <glyph glyph-name="eacute" unicode="&#xe9;" horiz-adv-x="398" 
d="M116 -8q-44 0 -71 35.5t-27 90.5q0 83 43 172t112.5 148.5t139.5 59.5q43 0 70 -18t27 -48q0 -39 -52 -81t-122 -69t-130 -33q-19 -63 -19 -114q0 -105 64 -105q72 0 170 128l5 -4q-118 -162 -210 -162zM353 451q0 40 -38 40q-63 0 -120 -69.5t-87 -164.5q99 10 172 68
t73 126zM293 542l-5 5q34 36 74 93.5t52 70.5q10 12 25 12q10 0 18 -7.5t8 -19.5q0 -13 -10 -23q-11 -12 -69.5 -53.5t-92.5 -77.5z" />
    <glyph glyph-name="ecircumflex" unicode="&#xea;" horiz-adv-x="398" 
d="M116 -8q-44 0 -71 35.5t-27 90.5q0 83 43 172t112.5 148.5t139.5 59.5q43 0 70 -18t27 -48q0 -39 -52 -81t-122 -69t-130 -33q-19 -63 -19 -114q0 -105 64 -105q72 0 170 128l5 -4q-118 -162 -210 -162zM353 451q0 40 -38 40q-63 0 -120 -69.5t-87 -164.5q99 10 172 68
t73 126zM422 543l-6 -2q-17 54 -47 117q-6 -5 -41.5 -31t-59 -45.5t-45.5 -40.5l-5 5q31 31 125 144q28 32 40 32q22 0 25 -32q1 -13 3 -44t4.5 -56.5t6.5 -46.5z" />
    <glyph glyph-name="edieresis" unicode="&#xeb;" horiz-adv-x="398" 
d="M116 -8q-44 0 -71 35.5t-27 90.5q0 83 43 172t112.5 148.5t139.5 59.5q43 0 70 -18t27 -48q0 -39 -52 -81t-122 -69t-130 -33q-19 -63 -19 -114q0 -105 64 -105q72 0 170 128l5 -4q-118 -162 -210 -162zM353 451q0 40 -38 40q-63 0 -120 -69.5t-87 -164.5q99 10 172 68
t73 126zM270 586q-18 0 -30 11.5t-12 30.5t12 31t30 12t30.5 -12t12.5 -31q0 -18 -12.5 -30t-30.5 -12zM440 586q-18 0 -30 11.5t-12 30.5t12 31t30 12t30.5 -12t12.5 -31q0 -18 -12.5 -30t-30.5 -12z" />
    <glyph glyph-name="igrave" unicode="&#xec;" horiz-adv-x="263" 
d="M216 354l-111 -229q-34 -66 -34 -93q0 -18 17 -18q31 0 113 111l6 -4q-94 -129 -148 -129q-23 0 -35 13.5t-12 32.5q0 32 32 98l111 229q34 76 34 93q0 18 -17 18q-28 0 -113 -111l-6 4q94 129 148 129q23 0 35 -13.5t12 -32.5q0 -32 -32 -98zM275 540l-7 -2
q-11 40 -36.5 90t-25.5 67q0 12 7.5 20t19.5 8q22 0 27 -23q5 -18 5.5 -67.5t9.5 -92.5z" />
    <glyph glyph-name="iacute" unicode="&#xed;" horiz-adv-x="263" 
d="M216 354l-111 -229q-34 -66 -34 -93q0 -18 17 -18q31 0 113 111l6 -4q-94 -129 -148 -129q-23 0 -35 13.5t-12 32.5q0 32 32 98l111 229q34 76 34 93q0 18 -17 18q-28 0 -113 -111l-6 4q94 129 148 129q23 0 35 -13.5t12 -32.5q0 -32 -32 -98zM202 542l-5 5
q34 36 74 93.5t52 70.5q11 12 25 12q10 0 18 -7.5t8 -19.5q0 -13 -10 -23q-11 -12 -69.5 -53.5t-92.5 -77.5z" />
    <glyph glyph-name="icircumflex" unicode="&#xee;" horiz-adv-x="263" 
d="M216 354l-111 -229q-34 -66 -34 -93q0 -18 17 -18q31 0 113 111l6 -4q-94 -129 -148 -129q-23 0 -35 13.5t-12 32.5q0 32 32 98l111 229q34 76 34 93q0 18 -17 18q-28 0 -113 -111l-6 4q94 129 148 129q23 0 35 -13.5t12 -32.5q0 -32 -32 -98zM331 543l-6 -2
q-17 54 -47 117q-6 -5 -41.5 -31t-59 -45.5t-45.5 -40.5l-5 5q31 31 125 144q28 32 40 32q22 0 25 -32q1 -13 3 -44t4.5 -56.5t6.5 -46.5z" />
    <glyph glyph-name="idieresis" unicode="&#xef;" horiz-adv-x="263" 
d="M216 354l-111 -229q-34 -66 -34 -93q0 -18 17 -18q31 0 113 111l6 -4q-94 -129 -148 -129q-23 0 -35 13.5t-12 32.5q0 32 32 98l111 229q34 76 34 93q0 18 -17 18q-28 0 -113 -111l-6 4q94 129 148 129q23 0 35 -13.5t12 -32.5q0 -32 -32 -98zM179 586q-18 0 -30 11.5
t-12 30.5t12 31t30 12t30.5 -12t12.5 -31q0 -18 -12.5 -30t-30.5 -12zM349 586q-18 0 -30 11.5t-12 30.5t12 31t30 12t30.5 -12t12.5 -31q0 -18 -12.5 -30t-30.5 -12z" />
    <glyph glyph-name="eth" unicode="&#xf0;" horiz-adv-x="450" 
d="M127 -8q-43 0 -76 38.5t-33 101.5q0 47 21.5 108.5t57.5 119.5t93 98t120 40q42 0 67 -30q1 11 1 28q0 61 -25 110l-102 -56l-4 7l102 56q-29 51 -87 73l2 7q61 -20 102 -70l93 51l4 -7l-92 -51q60 -78 60 -194q0 -97 -38 -195.5t-110 -166.5t-156 -68zM128 -1
q68 0 142 118q46 77 76 172t30 169q-26 33 -65 33q-82 0 -164 -154q-35 -68 -57.5 -143t-22.5 -121q0 -74 61 -74z" />
    <glyph glyph-name="ntilde" unicode="&#xf1;" horiz-adv-x="533" 
d="M331 -8q-23 0 -35 13.5t-12 32.5q0 31 32 97l106 217q40 82 40 102q0 22 -19 22q-13 0 -41 -29.5t-89 -113.5l-243 -333q-6 0 -16.5 1t-16.5 1q-5 0 -16 -1t-17 -1l152 365q34 76 34 93q0 18 -16 18q-32 0 -115 -111l-6 4q93 129 149 129q23 0 35 -13.5t12 -32.5
q0 -28 -30 -98l-137 -324l225 308q69 95 102 127.5t67 32.5q22 0 33.5 -13.5t11.5 -32.5q0 -34 -34 -104l-109 -223q-35 -68 -35 -93q0 -18 17 -18q28 0 113 111l6 -4q-94 -129 -148 -129zM439 588q-21 0 -55 21.5t-61 21.5q-11 0 -23.5 -11t-18 -18.5t-17.5 -26.5l-6 4
q2 3 13 21t17.5 26.5t18 21.5t24.5 18.5t28 5.5q21 0 55 -21.5t61 -21.5q11 0 23.5 11t18 18.5t17.5 26.5l6 -4q-35 -59 -58 -77q-21 -16 -43 -16z" />
    <glyph glyph-name="ograve" unicode="&#xf2;" horiz-adv-x="442" 
d="M129 -1q71 0 141 114q44 71 73.5 161t29.5 143q0 74 -60 74q-71 0 -141 -114q-44 -71 -73.5 -161t-29.5 -143q0 -74 60 -74zM129 -8q-40 0 -75.5 37t-35.5 105q0 45 21 105.5t57 119t94 99t123 40.5q40 0 75.5 -37t35.5 -105q0 -45 -21 -105.5t-57 -119t-94 -99
t-123 -40.5zM378 540l-7 -2q-11 40 -36.5 90t-25.5 67q0 12 7.5 20t19.5 8q22 0 27 -23q5 -18 5.5 -67.5t9.5 -92.5z" />
    <glyph glyph-name="oacute" unicode="&#xf3;" horiz-adv-x="442" 
d="M129 -1q71 0 141 114q44 71 73.5 161t29.5 143q0 74 -60 74q-71 0 -141 -114q-44 -71 -73.5 -161t-29.5 -143q0 -74 60 -74zM129 -8q-40 0 -75.5 37t-35.5 105q0 45 21 105.5t57 119t94 99t123 40.5q40 0 75.5 -37t35.5 -105q0 -45 -21 -105.5t-57 -119t-94 -99
t-123 -40.5zM305 542l-5 5q34 36 74 93.5t52 70.5q10 12 25 12q10 0 18 -7.5t8 -19.5q0 -13 -10 -23q-11 -12 -69.5 -53.5t-92.5 -77.5z" />
    <glyph glyph-name="ocircumflex" unicode="&#xf4;" horiz-adv-x="442" 
d="M129 -1q71 0 141 114q44 71 73.5 161t29.5 143q0 74 -60 74q-71 0 -141 -114q-44 -71 -73.5 -161t-29.5 -143q0 -74 60 -74zM129 -8q-40 0 -75.5 37t-35.5 105q0 45 21 105.5t57 119t94 99t123 40.5q40 0 75.5 -37t35.5 -105q0 -45 -21 -105.5t-57 -119t-94 -99
t-123 -40.5zM434 543l-6 -2q-17 54 -47 117q-6 -5 -41.5 -31t-59 -45.5t-45.5 -40.5l-5 5q31 31 125 144q28 32 40 32q22 0 25 -32q1 -13 3 -44t4.5 -56.5t6.5 -46.5z" />
    <glyph glyph-name="otilde" unicode="&#xf5;" horiz-adv-x="442" 
d="M129 -1q71 0 141 114q44 71 73.5 161t29.5 143q0 74 -60 74q-71 0 -141 -114q-44 -71 -73.5 -161t-29.5 -143q0 -74 60 -74zM129 -8q-40 0 -75.5 37t-35.5 105q0 45 21 105.5t57 119t94 99t123 40.5q40 0 75.5 -37t35.5 -105q0 -45 -21 -105.5t-57 -119t-94 -99
t-123 -40.5zM410 588q-20 0 -55 21.5t-61 21.5q-11 0 -23.5 -11t-18 -18.5t-17.5 -26.5l-6 4q2 3 13 21t17.5 26.5t18 21.5t24.5 18.5t28 5.5q20 0 55 -21.5t61 -21.5q11 0 23.5 11t18 18.5t17.5 26.5l6 -4q-35 -59 -58 -77q-21 -16 -43 -16z" />
    <glyph glyph-name="odieresis" unicode="&#xf6;" horiz-adv-x="442" 
d="M129 -1q71 0 141 114q44 71 73.5 161t29.5 143q0 74 -60 74q-71 0 -141 -114q-44 -71 -73.5 -161t-29.5 -143q0 -74 60 -74zM129 -8q-40 0 -75.5 37t-35.5 105q0 45 21 105.5t57 119t94 99t123 40.5q40 0 75.5 -37t35.5 -105q0 -45 -21 -105.5t-57 -119t-94 -99
t-123 -40.5zM282 586q-18 0 -30 11.5t-12 30.5t12 31t30 12t30.5 -12t12.5 -31q0 -18 -12.5 -30t-30.5 -12zM452 586q-18 0 -30 11.5t-12 30.5t12 31t30 12t30.5 -12t12.5 -31q0 -18 -12.5 -30t-30.5 -12z" />
    <glyph glyph-name="divide" unicode="&#xf7;" horiz-adv-x="493" 
d="M284 474q0 21 14 35t34 14t34.5 -14t14.5 -35t-14 -34.5t-35 -13.5q-20 0 -34 13.5t-14 34.5zM168 170q0 21 14 35t34 14t34.5 -14t14.5 -35t-14 -34.5t-35 -13.5q-20 0 -34 13.5t-14 34.5zM81 318v9h396v-9h-396z" />
    <glyph glyph-name="oslash" unicode="&#xf8;" horiz-adv-x="442" 
d="M506 536l-99 -103q17 -31 17 -77q0 -45 -21 -105.5t-57 -119t-94 -99t-123 -40.5q-58 0 -91 58l-96 -100l-6 6l98 102q-16 31 -16 76t21 105.5t57 119t94 99t123 40.5q24 0 49 -14.5t41 -42.5l97 101zM129 -1q88 0 174 175q60 122 69 222l-303 -314v-9q0 -74 60 -74z
M313 491q-60 0 -122 -86q-46 -66 -80.5 -155.5t-40.5 -153.5l303 314v7q0 74 -60 74z" />
    <glyph glyph-name="ugrave" unicode="&#xf9;" horiz-adv-x="529" 
d="M327 -8q-23 0 -35 13.5t-12 32.5q0 28 30 98l137 324l-220 -307q-65 -92 -100.5 -126.5t-69.5 -34.5q-22 0 -33.5 13.5t-11.5 32.5q0 34 34 104l109 223q35 75 35 93t-16 18q-29 0 -114 -111l-6 4q94 129 148 129q23 0 35 -13.5t12 -32.5q0 -31 -32 -97l-104 -212
q-42 -86 -42 -109q0 -20 17 -20q30 0 133 144l238 332q5 0 16 -1t17 -1t17 1t16 1l-152 -365q-4 -10 -13.5 -32t-15 -37.5t-5.5 -23.5q0 -18 16 -18q32 0 115 111l6 -4q-93 -129 -149 -129zM394 540l-7 -2q-11 40 -36.5 90t-25.5 67q0 12 7.5 20t19.5 8q22 0 27 -23
q5 -18 5.5 -67.5t9.5 -92.5z" />
    <glyph glyph-name="uacute" unicode="&#xfa;" horiz-adv-x="529" 
d="M327 -8q-23 0 -35 13.5t-12 32.5q0 28 30 98l137 324l-220 -307q-65 -92 -100.5 -126.5t-69.5 -34.5q-22 0 -33.5 13.5t-11.5 32.5q0 34 34 104l109 223q35 75 35 93t-16 18q-29 0 -114 -111l-6 4q94 129 148 129q23 0 35 -13.5t12 -32.5q0 -31 -32 -97l-104 -212
q-42 -86 -42 -109q0 -20 17 -20q30 0 133 144l238 332q5 0 16 -1t17 -1t17 1t16 1l-152 -365q-4 -10 -13.5 -32t-15 -37.5t-5.5 -23.5q0 -18 16 -18q32 0 115 111l6 -4q-93 -129 -149 -129zM321 542l-5 5q34 36 74 93.5t52 70.5q10 12 25 12q10 0 18 -7.5t8 -19.5
q0 -13 -10 -23q-11 -12 -69.5 -53.5t-92.5 -77.5z" />
    <glyph glyph-name="ucircumflex" unicode="&#xfb;" horiz-adv-x="529" 
d="M327 -8q-23 0 -35 13.5t-12 32.5q0 28 30 98l137 324l-220 -307q-65 -92 -100.5 -126.5t-69.5 -34.5q-22 0 -33.5 13.5t-11.5 32.5q0 34 34 104l109 223q35 75 35 93t-16 18q-29 0 -114 -111l-6 4q94 129 148 129q23 0 35 -13.5t12 -32.5q0 -31 -32 -97l-104 -212
q-42 -86 -42 -109q0 -20 17 -20q30 0 133 144l238 332q5 0 16 -1t17 -1t17 1t16 1l-152 -365q-4 -10 -13.5 -32t-15 -37.5t-5.5 -23.5q0 -18 16 -18q32 0 115 111l6 -4q-93 -129 -149 -129zM450 543l-6 -2q-17 54 -47 117q-6 -5 -41.5 -31t-59 -45.5t-45.5 -40.5l-5 5
q31 31 125 144q28 32 40 32q22 0 25 -32q1 -13 3 -44t4.5 -56.5t6.5 -46.5z" />
    <glyph glyph-name="udieresis" unicode="&#xfc;" horiz-adv-x="529" 
d="M327 -8q-23 0 -35 13.5t-12 32.5q0 28 30 98l137 324l-220 -307q-65 -92 -100.5 -126.5t-69.5 -34.5q-22 0 -33.5 13.5t-11.5 32.5q0 34 34 104l109 223q35 75 35 93t-16 18q-29 0 -114 -111l-6 4q94 129 148 129q23 0 35 -13.5t12 -32.5q0 -31 -32 -97l-104 -212
q-42 -86 -42 -109q0 -20 17 -20q30 0 133 144l238 332q5 0 16 -1t17 -1t17 1t16 1l-152 -365q-4 -10 -13.5 -32t-15 -37.5t-5.5 -23.5q0 -18 16 -18q32 0 115 111l6 -4q-93 -129 -149 -129zM298 586q-18 0 -30 11.5t-12 30.5t12 31t30 12t30.5 -12t12.5 -31q0 -18 -12.5 -30
t-30.5 -12zM468 586q-18 0 -30 11.5t-12 30.5t12 31t30 12t30.5 -12t12.5 -31q0 -18 -12.5 -30t-30.5 -12z" />
    <glyph glyph-name="yacute" unicode="&#xfd;" horiz-adv-x="428" 
d="M197 64l-7 -64q-6 0 -15 1t-15 1q-4 0 -11 -1t-10 -1l-21 -22q-83 -88 -178 -151t-168 -63q-42 0 -42 27t35 27q11 0 38 -9t50 -9q36 0 112.5 55.5t146.5 128.5l17 18q24 181 24 358q0 28 -0.5 42t-3 32t-9.5 25.5t-18 7.5q-14 0 -34.5 -26.5t-59.5 -89.5l-6 4
q29 47 45 71t42.5 48t48.5 24q20 0 32.5 -11t17.5 -33t6 -39.5t1 -46.5q0 -130 -17 -291q114 130 155.5 199.5t41.5 128.5q0 6 -2.5 27t-2.5 29q0 37 28 37t28 -31q0 -52 -58 -153.5t-191 -249.5zM267 542l-5 5q34 36 74 93.5t52 70.5q10 12 25 12q10 0 18 -7.5t8 -19.5
q0 -13 -10 -23q-11 -12 -69.5 -53.5t-92.5 -77.5z" />
    <glyph glyph-name="thorn" unicode="&#xfe;" horiz-adv-x="472" 
d="M62 68l-95 -235q-8 -18 -8 -29q0 -23 41 -23h42v-7h-43q-16 0 -40 1.5t-45 1.5q-18 0 -42 -1.5t-37 -1.5h-15v7h16q24 0 38.5 10t26.5 38l321 797q8 22 8 29q0 19 -36 19h-34v7h15q35 0 55.5 1.5t49 11.5t41.5 29l5 -2l-250 -622l189 269q51 71 80.5 100.5t62.5 29.5
q25 0 42.5 -15.5t17.5 -50.5q0 -59 -42 -161.5t-114.5 -190.5t-140.5 -88q-63 0 -109 76zM377 476q-29 0 -106 -113l-203 -289q18 -30 42.5 -51t48.5 -21q50 0 109 90t95 193t36 154q0 37 -22 37z" />
    <glyph glyph-name="ydieresis" unicode="&#xff;" horiz-adv-x="428" 
d="M197 64l-7 -64q-6 0 -15 1t-15 1q-4 0 -11 -1t-10 -1l-21 -22q-83 -88 -178 -151t-168 -63q-42 0 -42 27t35 27q11 0 38 -9t50 -9q36 0 112.5 55.5t146.5 128.5l17 18q24 181 24 358q0 28 -0.5 42t-3 32t-9.5 25.5t-18 7.5q-14 0 -34.5 -26.5t-59.5 -89.5l-6 4
q29 47 45 71t42.5 48t48.5 24q20 0 32.5 -11t17.5 -33t6 -39.5t1 -46.5q0 -130 -17 -291q114 130 155.5 199.5t41.5 128.5q0 6 -2.5 27t-2.5 29q0 37 28 37t28 -31q0 -52 -58 -153.5t-191 -249.5zM244 586q-18 0 -30 11.5t-12 30.5t12 31t30 12t30.5 -12t12.5 -31
q0 -18 -12.5 -30t-30.5 -12zM414 586q-18 0 -30 11.5t-12 30.5t12 31t30 12t30.5 -12t12.5 -31q0 -18 -12.5 -30t-30.5 -12z" />
    <glyph glyph-name="Amacron" unicode="&#x100;" horiz-adv-x="592" 
d="M512 0h-30q-6 0 -27 1.5t-36 1.5q-17 0 -43 -1.5t-30 -1.5h-20v8h11q25 1 40.5 16.5t16.5 41.5l2 123h-297l-50 -67q-34 -45 -35 -71q0 -43 48 -43h11v-8h-24q-11 0 -36 1.5t-35 1.5q-8 0 -35 -1.5t-34 -1.5h-19v8h7q31 0 64 28t80 91l358 476l-2 78q8 0 18.5 -1t16.5 -1
t15.5 1t16.5 1l-7 -616q0 -31 12 -44t40 -13h3v-8zM396 198l4 392l-294 -392h290zM579 797h-225v22h225v-22z" />
    <glyph glyph-name="amacron" unicode="&#x101;" horiz-adv-x="502" 
d="M306 -8q-23 0 -35 13.5t-12 32.5q0 22 30 98l97 255l-179 -269q-45 -68 -77.5 -99t-65.5 -31q-25 0 -42.5 15.5t-17.5 50.5q0 43 24.5 116t63 145.5t93 125.5t106.5 53q63 0 109 -76q37 14 54 29.5t33 46.5l6 -2l-143 -371q-3 -8 -12.5 -31.5t-14.5 -38.5t-5 -23
q0 -18 17 -18q28 0 113 111l6 -4q-94 -129 -148 -129zM95 14q28 0 106 113l193 289q-16 28 -41.5 50t-49.5 22q-50 0 -106.5 -90t-90 -192.5t-33.5 -154.5q0 -37 22 -37zM494 608h-225v22h225v-22z" />
    <glyph glyph-name="Abreve" unicode="&#x102;" horiz-adv-x="592" 
d="M512 0h-30q-6 0 -27 1.5t-36 1.5q-17 0 -43 -1.5t-30 -1.5h-20v8h11q25 1 40.5 16.5t16.5 41.5l2 123h-297l-50 -67q-34 -45 -35 -71q0 -43 48 -43h11v-8h-24q-11 0 -36 1.5t-35 1.5q-8 0 -35 -1.5t-34 -1.5h-19v8h7q31 0 64 28t80 91l358 476l-2 78q8 0 18.5 -1t16.5 -1
t15.5 1t16.5 1l-7 -616q0 -31 12 -44t40 -13h3v-8zM396 198l4 392l-294 -392h290zM450 758q-37 0 -55.5 36t-18.5 81l6 1q5 -67 85 -67q85 0 136 68l5 -4q-40 -53 -77.5 -84t-80.5 -31z" />
    <glyph glyph-name="abreve" unicode="&#x103;" horiz-adv-x="502" 
d="M306 -8q-23 0 -35 13.5t-12 32.5q0 22 30 98l97 255l-179 -269q-45 -68 -77.5 -99t-65.5 -31q-25 0 -42.5 15.5t-17.5 50.5q0 43 24.5 116t63 145.5t93 125.5t106.5 53q63 0 109 -76q37 14 54 29.5t33 46.5l6 -2l-143 -371q-3 -8 -12.5 -31.5t-14.5 -38.5t-5 -23
q0 -18 17 -18q28 0 113 111l6 -4q-94 -129 -148 -129zM95 14q28 0 106 113l193 289q-16 28 -41.5 50t-49.5 22q-50 0 -106.5 -90t-90 -192.5t-33.5 -154.5q0 -37 22 -37zM365 569q-37 0 -55.5 36t-18.5 81l6 1q5 -67 85 -67q85 0 136 68l5 -4q-40 -53 -77.5 -84t-80.5 -31z
" />
    <glyph glyph-name="Aogonek" unicode="&#x104;" horiz-adv-x="592" 
d="M280 -178q-26 0 -40.5 12.5t-14.5 32.5q0 28 30 56t61 44.5t67 32.5q7 3 10 4l3 185h-297l-50 -67q-34 -45 -35 -71q0 -43 48 -43h11v-8h-24q-11 0 -36 1.5t-35 1.5q-8 0 -35 -1.5t-34 -1.5h-19v8h7q31 0 64 28t80 91l358 476l-2 78q8 0 18.5 -1t16.5 -1t15.5 1t16.5 1
l-7 -616q0 -31 12 -44t40 -13h3v-8h-30q-6 0 -26.5 0.5t-35.5 0.5h-17q-120 -55 -120 -117q0 -17 10 -27.5t28 -10.5q36 0 82 40l4 -5q-64 -59 -127 -59zM396 198l4 392l-294 -392h290z" />
    <glyph glyph-name="aogonek" unicode="&#x105;" horiz-adv-x="502" 
d="M306 -8q-23 0 -35 13.5t-12 32.5q0 22 30 98l97 255l-179 -269q-45 -68 -77.5 -99t-65.5 -31q-25 0 -42.5 15.5t-17.5 50.5q0 43 24.5 116t63 145.5t93 125.5t106.5 53q63 0 109 -76q37 14 54 29.5t33 46.5l6 -2l-143 -371q-3 -8 -12.5 -31.5t-14.5 -38.5t-5 -23
q0 -18 17 -18q28 0 113 111l6 -4q-73 -99 -119 -121q-32 -17 -51.5 -29t-40.5 -36.5t-21 -50.5q0 -17 10 -27.5t28 -10.5q36 0 82 40l4 -5q-64 -59 -127 -59q-26 0 -40.5 12.5t-14.5 32.5q0 64 142 125zM95 14q28 0 106 113l193 289q-15 27 -41.5 49.5t-49.5 22.5
q-50 0 -106.5 -90t-90 -192.5t-33.5 -154.5q0 -37 22 -37z" />
    <glyph glyph-name="Cacute" unicode="&#x106;" horiz-adv-x="579" 
d="M228 -10q-72 0 -122 56.5t-50 151.5q0 113 55.5 228t147 190t186.5 75q27 0 67 -9.5t49 -9.5q28 0 26 32l6 1l30 -227l-6 -1q-12 41 -17.5 58t-21 52t-30.5 51t-40.5 30t-57.5 14q-80 0 -155.5 -71t-120 -179t-44.5 -215q0 -88 36.5 -135.5t105.5 -47.5q52 0 112 36
t116 112l6 -5q-61 -86 -135 -136.5t-143 -50.5zM438 731l-5 5q34 36 74 93.5t52 70.5q11 12 25 12q10 0 18 -7.5t8 -19.5q0 -13 -10 -23q-11 -12 -69.5 -53.5t-92.5 -77.5z" />
    <glyph glyph-name="cacute" unicode="&#x107;" horiz-adv-x="400" 
d="M113 -8q-41 0 -68.5 35t-27.5 91q0 79 40 167.5t107 150.5t137 62q43 0 69.5 -34t26.5 -75q0 -59 -32 -59q-11 0 -18 7.5t-7 18.5q0 10 9 34.5t9 43.5q0 25 -15 41t-41 16q-52 0 -103.5 -59t-82 -141.5t-30.5 -153.5q0 -107 62 -107q74 0 172 128l5 -4
q-117 -162 -212 -162zM281 542l-5 5q34 36 74 93.5t52 70.5q10 12 25 12q10 0 18 -7.5t8 -19.5q0 -13 -10 -23q-11 -12 -69.5 -53.5t-92.5 -77.5z" />
    <glyph glyph-name="Ccircumflex" unicode="&#x108;" horiz-adv-x="579" 
d="M228 -10q-72 0 -122 56.5t-50 151.5q0 113 55.5 228t147 190t186.5 75q27 0 67 -9.5t49 -9.5q28 0 26 32l6 1l30 -227l-6 -1q-12 41 -17.5 58t-21 52t-30.5 51t-40.5 30t-57.5 14q-80 0 -155.5 -71t-120 -179t-44.5 -215q0 -88 36.5 -135.5t105.5 -47.5q52 0 112 36
t116 112l6 -5q-61 -86 -135 -136.5t-143 -50.5zM567 732l-6 -2q-17 54 -47 117q-6 -5 -41.5 -31t-59 -45.5t-45.5 -40.5l-5 5q31 31 125 144q28 32 40 32q22 0 25 -32q1 -13 3 -44t4.5 -56.5t6.5 -46.5z" />
    <glyph glyph-name="ccircumflex" unicode="&#x109;" horiz-adv-x="400" 
d="M113 -8q-41 0 -68.5 35t-27.5 91q0 79 40 167.5t107 150.5t137 62q43 0 69.5 -34t26.5 -75q0 -59 -32 -59q-11 0 -18 7.5t-7 18.5q0 10 9 34.5t9 43.5q0 25 -15 41t-41 16q-52 0 -103.5 -59t-82 -141.5t-30.5 -153.5q0 -107 62 -107q74 0 172 128l5 -4
q-117 -162 -212 -162zM410 543l-6 -2q-17 54 -47 117q-6 -5 -41.5 -31t-59 -45.5t-45.5 -40.5l-5 5q31 31 125 144q28 32 40 32q22 0 25 -32q1 -13 3 -44t4.5 -56.5t6.5 -46.5z" />
    <glyph glyph-name="Cdotaccent" unicode="&#x10a;" horiz-adv-x="579" 
d="M228 -10q-72 0 -122 56.5t-50 151.5q0 113 55.5 228t147 190t186.5 75q27 0 67 -9.5t49 -9.5q28 0 26 32l6 1l30 -227l-6 -1q-12 41 -17.5 58t-21 52t-30.5 51t-40.5 30t-57.5 14q-80 0 -155.5 -71t-120 -179t-44.5 -215q0 -88 36.5 -135.5t105.5 -47.5q52 0 112 36
t116 112l6 -5q-61 -86 -135 -136.5t-143 -50.5zM450 803q0 21 14 35t34 14t34.5 -14t14.5 -35t-14 -34.5t-35 -13.5q-20 0 -34 13.5t-14 34.5z" />
    <glyph glyph-name="cdotaccent" unicode="&#x10b;" horiz-adv-x="400" 
d="M113 -8q-41 0 -68.5 35t-27.5 91q0 79 40 167.5t107 150.5t137 62q43 0 69.5 -34t26.5 -75q0 -59 -32 -59q-11 0 -18 7.5t-7 18.5q0 10 9 34.5t9 43.5q0 25 -15 41t-41 16q-52 0 -103.5 -59t-82 -141.5t-30.5 -153.5q0 -107 62 -107q74 0 172 128l5 -4
q-117 -162 -212 -162zM297 624q0 21 14 35t34 14t34.5 -14t14.5 -35t-14 -34.5t-35 -13.5q-20 0 -34 13.5t-14 34.5z" />
    <glyph glyph-name="Ccaron" unicode="&#x10c;" horiz-adv-x="579" 
d="M228 -10q-72 0 -122 56.5t-50 151.5q0 113 55.5 228t147 190t186.5 75q27 0 67 -9.5t49 -9.5q28 0 26 32l6 1l30 -227l-6 -1q-12 41 -17.5 58t-21 52t-30.5 51t-40.5 30t-57.5 14q-80 0 -155.5 -71t-120 -179t-44.5 -215q0 -88 36.5 -135.5t105.5 -47.5q52 0 112 36
t116 112l6 -5q-61 -86 -135 -136.5t-143 -50.5zM441 912l6 2q17 -54 47 -117q6 5 41.5 31t59 45.5t45.5 40.5l5 -5q-31 -31 -125 -144q-28 -32 -40 -32q-22 0 -25 32q-1 13 -3 44t-4.5 56.5t-6.5 46.5z" />
    <glyph glyph-name="ccaron" unicode="&#x10d;" horiz-adv-x="400" 
d="M113 -8q-41 0 -68.5 35t-27.5 91q0 79 40 167.5t107 150.5t137 62q43 0 69.5 -34t26.5 -75q0 -59 -32 -59q-11 0 -18 7.5t-7 18.5q0 10 9 34.5t9 43.5q0 25 -15 41t-41 16q-52 0 -103.5 -59t-82 -141.5t-30.5 -153.5q0 -107 62 -107q74 0 172 128l5 -4
q-117 -162 -212 -162zM284 723l6 2q17 -54 47 -117q6 5 41.5 31t59 45.5t45.5 40.5l5 -5q-31 -31 -125 -144q-28 -32 -40 -32q-22 0 -25 32q-1 13 -3 44t-4.5 56.5t-6.5 46.5z" />
    <glyph glyph-name="Dcaron" unicode="&#x10e;" horiz-adv-x="612" 
d="M192 0h-96q-11 0 -30 0.5t-34 0.5q-14 0 -35 -0.5t-31 -0.5h-28v8h10q30 0 46 11.5t28 43.5l214 556q7 15 7 30q0 24 -32 24h-19v8h34q10 0 30 -0.5t35 -0.5t34.5 0.5t29.5 0.5h59q92 0 148.5 -47t56.5 -156q0 -47 -14.5 -106t-48 -125.5t-81 -121t-121.5 -90t-162 -35.5
zM68 9h131q61 0 116.5 33t94 85t70 113.5t50.5 122.5t28.5 107.5t9.5 72.5q0 72 -40 100.5t-121 28.5h-85zM397 912l6 2q17 -54 47 -117q6 5 41.5 31t59 45.5t45.5 40.5l5 -5q-31 -31 -125 -144q-28 -32 -40 -32q-22 0 -25 32q-1 13 -3 44t-4.5 56.5t-6.5 46.5z" />
    <glyph glyph-name="dcaron" unicode="&#x10f;" horiz-adv-x="523" 
d="M399 424l75 202q8 22 8 29q0 19 -36 19h-34v7h15q35 0 55.5 1.5t49 11.5t41.5 29l5 -2l-230 -595q-2 -7 -12.5 -31t-15.5 -39t-5 -24q0 -18 17 -18q31 0 113 111l6 -4q-94 -129 -148 -129q-23 0 -35 13t-12 34q0 9 3.5 21.5t7 22.5t10.5 27.5t10 25.5l99 255l-179 -269
q-45 -68 -77.5 -99t-65.5 -31q-25 0 -42.5 15.5t-17.5 50.5q0 43 24.5 116t63 145.5t93 125.5t106.5 53q59 0 108 -74zM95 14q28 0 106 113l193 289q-15 27 -41.5 49.5t-49.5 22.5q-50 0 -106.5 -90t-90 -192.5t-33.5 -154.5q0 -37 22 -37zM585 491l-6 3q22 43 51.5 125
t34.5 93q7 18 27 18q12 0 20 -8t8 -19t-6 -21q-8 -13 -57 -81.5t-72 -109.5z" />
    <glyph glyph-name="Dcroat" unicode="&#x110;" horiz-adv-x="620" 
d="M627 478q0 -47 -14.5 -106t-48 -125.5t-81 -121t-122 -90t-162.5 -35.5h-95q-11 0 -30 1.5t-34 1.5q-14 0 -35 -1.5t-31 -1.5h-28v8h10q30 0 46 11.5t28 43.5l107 280h-66v9h70l103 267q7 15 7 30q0 24 -32 24h-19v8h33q9 0 29 -0.5t36 -0.5q15 0 34.5 0.5t29.5 0.5h58
q207 0 207 -203zM76 9h130q73 0 137.5 46.5t105.5 114t71 145t43 137t13 91.5q0 72 -40 100.5t-123 28.5h-83l-122 -320h126v-9h-130z" />
    <glyph glyph-name="dcroat" unicode="&#x111;" horiz-adv-x="500" 
d="M4 58q0 43 24.5 116t63 145.5t93 125.5t106.5 53q59 0 108 -74l52 142h-92v8h95l20 52q8 22 8 29q0 19 -36 19h-34v7h15q35 0 55.5 1.5t49 11.5t41.5 29l5 -2l-57 -147h64v-8h-67l-170 -440q-2 -7 -12.5 -31t-15.5 -39t-5 -24q0 -18 17 -18q31 0 113 111l6 -4
q-94 -129 -148 -129q-23 0 -35 13t-12 34q0 9 3.5 21.5t7 22.5t10.5 27.5t10 25.5l99 255l-179 -269q-45 -68 -77.5 -99t-65.5 -31q-25 0 -42.5 15.5t-17.5 50.5zM95 14q28 0 106 113l193 289q-15 27 -41.5 49.5t-49.5 22.5q-50 0 -106.5 -90t-90 -192.5t-33.5 -154.5
q0 -37 22 -37z" />
    <glyph glyph-name="Emacron" unicode="&#x112;" horiz-adv-x="572" 
d="M371 -32l-6 2q6 12 1.5 21t-18.5 9h-251q-11 0 -30 0.5t-34 0.5q-14 0 -35.5 -0.5t-31.5 -0.5h-28v8h11q30 0 45.5 11.5t27.5 43.5l214 556q7 15 7 30q0 24 -32 24h-19v8h35q9 0 29 -0.5t36 -0.5q15 0 34.5 0.5t29.5 0.5h203q37 0 41 30h6l9 -231l-6 -1q-27 106 -46 153
q-9 23 -20 31.5t-37 8.5h-183l-125 -322h123q42 0 72 34t61 99l7 -2l-108 -280l-7 2q18 52 18 85q0 53 -46 53h-123l-127 -332h194q33 0 54 10t55 43q56 53 140 147l5 -4zM563 797h-225v22h225v-22z" />
    <glyph glyph-name="emacron" unicode="&#x113;" horiz-adv-x="398" 
d="M116 -8q-44 0 -71 35.5t-27 90.5q0 83 43 172t112.5 148.5t139.5 59.5q43 0 70 -18t27 -48q0 -39 -52 -81t-122 -69t-130 -33q-19 -63 -19 -114q0 -105 64 -105q72 0 170 128l5 -4q-118 -162 -210 -162zM353 451q0 40 -38 40q-63 0 -120 -69.5t-87 -164.5q99 10 172 68
t73 126zM465 608h-225v22h225v-22z" />
    <glyph glyph-name="Ebreve" unicode="&#x114;" horiz-adv-x="572" 
d="M371 -32l-6 2q6 12 1.5 21t-18.5 9h-251q-11 0 -30 0.5t-34 0.5q-14 0 -35.5 -0.5t-31.5 -0.5h-28v8h11q30 0 45.5 11.5t27.5 43.5l214 556q7 15 7 30q0 24 -32 24h-19v8h35q9 0 29 -0.5t36 -0.5q15 0 34.5 0.5t29.5 0.5h203q37 0 41 30h6l9 -231l-6 -1q-27 106 -46 153
q-9 23 -20 31.5t-37 8.5h-183l-125 -322h123q42 0 72 34t61 99l7 -2l-108 -280l-7 2q18 52 18 85q0 53 -46 53h-123l-127 -332h194q33 0 54 10t55 43q56 53 140 147l5 -4zM434 758q-37 0 -55.5 36t-18.5 81l6 1q5 -67 85 -67q85 0 136 68l5 -4q-40 -53 -77.5 -84t-80.5 -31z
" />
    <glyph glyph-name="ebreve" unicode="&#x115;" horiz-adv-x="398" 
d="M116 -8q-44 0 -71 35.5t-27 90.5q0 83 43 172t112.5 148.5t139.5 59.5q43 0 70 -18t27 -48q0 -39 -52 -81t-122 -69t-130 -33q-19 -63 -19 -114q0 -105 64 -105q72 0 170 128l5 -4q-118 -162 -210 -162zM353 451q0 40 -38 40q-63 0 -120 -69.5t-87 -164.5q99 10 172 68
t73 126zM336 569q-37 0 -55.5 36t-18.5 81l6 1q5 -67 85 -67q85 0 136 68l5 -4q-40 -53 -77.5 -84t-80.5 -31z" />
    <glyph glyph-name="Edotaccent" unicode="&#x116;" horiz-adv-x="572" 
d="M371 -32l-6 2q6 12 1.5 21t-18.5 9h-251q-11 0 -30 0.5t-34 0.5q-14 0 -35.5 -0.5t-31.5 -0.5h-28v8h11q30 0 45.5 11.5t27.5 43.5l214 556q7 15 7 30q0 24 -32 24h-19v8h35q9 0 29 -0.5t36 -0.5q15 0 34.5 0.5t29.5 0.5h203q37 0 41 30h6l9 -231l-6 -1q-27 106 -46 153
q-9 23 -20 31.5t-37 8.5h-183l-125 -322h123q42 0 72 34t61 99l7 -2l-108 -280l-7 2q18 52 18 85q0 53 -46 53h-123l-127 -332h194q33 0 54 10t55 43q56 53 140 147l5 -4zM403 803q0 21 14 35t34 14t34.5 -14t14.5 -35t-14 -34.5t-35 -13.5q-20 0 -34 13.5t-14 34.5z" />
    <glyph glyph-name="edotaccent" unicode="&#x117;" horiz-adv-x="398" 
d="M116 -8q-44 0 -71 35.5t-27 90.5q0 83 43 172t112.5 148.5t139.5 59.5q43 0 70 -18t27 -48q0 -39 -52 -81t-122 -69t-130 -33q-19 -63 -19 -114q0 -105 64 -105q72 0 170 128l5 -4q-118 -162 -210 -162zM353 451q0 40 -38 40q-63 0 -120 -69.5t-87 -164.5q99 10 172 68
t73 126zM309 624q0 21 14 35t34 14t34.5 -14t14.5 -35t-14 -34.5t-35 -13.5q-20 0 -34 13.5t-14 34.5z" />
    <glyph glyph-name="Eogonek" unicode="&#x118;" horiz-adv-x="572" 
d="M371 -32l-6 2q6 12 1.5 21t-18.5 9h-37q-116 -55 -116 -116q0 -17 10 -27.5t28 -10.5q36 0 82 40l4 -5q-64 -59 -127 -59q-26 0 -40.5 12.5t-14.5 32.5q0 18 12.5 36t27.5 30.5t42 27.5t40 21.5t38 17.5h-200q-11 0 -30 0.5t-34 0.5q-14 0 -35.5 -0.5t-31.5 -0.5h-28v8
h11q30 0 45.5 11.5t27.5 43.5l214 556q7 15 7 30q0 24 -32 24h-19v8h35q9 0 29 -0.5t36 -0.5q15 0 34.5 0.5t29.5 0.5h203q37 0 41 30h6l9 -231l-6 -1q-27 106 -46 153q-9 23 -20 31.5t-37 8.5h-183l-125 -322h123q42 0 72 34t61 99l7 -2l-108 -280l-7 2q18 52 18 85
q0 53 -46 53h-123l-127 -332h194q33 0 54 10t55 43q56 53 140 147l5 -4z" />
    <glyph glyph-name="eogonek" unicode="&#x119;" horiz-adv-x="398" 
d="M410 432q0 -39 -52 -81t-122 -69t-130 -33q-19 -63 -19 -114q0 -105 64 -105q72 0 170 128l5 -4q-91 -126 -174 -158q-43 -16 -78 -46.5t-35 -65.5q0 -17 10 -27.5t28 -10.5q36 0 82 40l4 -5q-64 -59 -127 -59q-26 0 -40.5 12.5t-14.5 32.5q0 62 149 126q-7 -1 -14 -1
q-44 0 -71 35.5t-27 90.5q0 83 43 172t112.5 148.5t139.5 59.5q43 0 70 -18t27 -48zM315 491q-63 0 -120 -69.5t-87 -164.5q99 10 172 68t73 126q0 40 -38 40z" />
    <glyph glyph-name="Ecaron" unicode="&#x11a;" horiz-adv-x="572" 
d="M371 -32l-6 2q6 12 1.5 21t-18.5 9h-251q-11 0 -30 0.5t-34 0.5q-14 0 -35.5 -0.5t-31.5 -0.5h-28v8h11q30 0 45.5 11.5t27.5 43.5l214 556q7 15 7 30q0 24 -32 24h-19v8h35q9 0 29 -0.5t36 -0.5q15 0 34.5 0.5t29.5 0.5h203q37 0 41 30h6l9 -231l-6 -1q-27 106 -46 153
q-9 23 -20 31.5t-37 8.5h-183l-125 -322h123q42 0 72 34t61 99l7 -2l-108 -280l-7 2q18 52 18 85q0 53 -46 53h-123l-127 -332h194q33 0 54 10t55 43q56 53 140 147l5 -4zM394 912l6 2q17 -54 47 -117q6 5 41.5 31t59 45.5t45.5 40.5l5 -5q-31 -31 -125 -144
q-28 -32 -40 -32q-22 0 -25 32q-1 13 -3 44t-4.5 56.5t-6.5 46.5z" />
    <glyph glyph-name="ecaron" unicode="&#x11b;" horiz-adv-x="398" 
d="M116 -8q-44 0 -71 35.5t-27 90.5q0 83 43 172t112.5 148.5t139.5 59.5q43 0 70 -18t27 -48q0 -39 -52 -81t-122 -69t-130 -33q-19 -63 -19 -114q0 -105 64 -105q72 0 170 128l5 -4q-118 -162 -210 -162zM353 451q0 40 -38 40q-63 0 -120 -69.5t-87 -164.5q99 10 172 68
t73 126zM296 723l6 2q17 -54 47 -117q6 5 41.5 31t59 45.5t45.5 40.5l5 -5q-31 -31 -125 -144q-28 -32 -40 -32q-22 0 -25 32q-1 13 -3 44t-4.5 56.5t-6.5 46.5z" />
    <glyph glyph-name="Gcircumflex" unicode="&#x11c;" horiz-adv-x="624" 
d="M447 -8l-6 2q15 54 -22 83q-109 -87 -195 -87q-78 0 -123 58t-45 155q0 60 19 127.5t56.5 131t86 115t113 83t133.5 31.5q25 0 62.5 -9.5t48.5 -9.5q26 0 24 32l6 1l30 -227l-6 -1q-8 31 -14 50.5t-20.5 52.5t-30 52.5t-42 35t-58.5 15.5q-93 0 -173 -90
q-80 -89 -130.5 -229t-50.5 -223q0 -61 28.5 -100.5t94.5 -39.5q46 0 98 27.5t86 58.5l59 152q7 18 7 30q0 24 -32 24h-19v8h33q9 0 31 -1.5t38 -1.5q14 0 34 1.5t30 1.5h28v-8h-11q-30 0 -45.5 -11.5t-27.5 -43.5zM576 732l-6 -2q-17 54 -47 117q-6 -5 -41.5 -31t-59 -45.5
t-45.5 -40.5l-5 5q31 31 125 144q28 32 40 32q22 0 25 -32q1 -13 3 -44t4.5 -56.5t6.5 -46.5z" />
    <glyph glyph-name="gcircumflex" unicode="&#x11d;" horiz-adv-x="432" 
d="M111 -236q-95 0 -167 18.5t-72 61.5q0 51 163 121l45 19l-34 16q-34 16 -51.5 31t-17.5 39q0 26 22 43.5t77 38.5l32 12q-33 30 -33 96q0 85 64 161.5t151 76.5q35 0 71 -32l5 5q73 73 118 73q13 0 22.5 -7t9.5 -19q0 -27 -32 -27q-10 0 -26 5.5t-28 5.5q-22 0 -58 -36
l-6 -6q25 -31 25 -88q0 -86 -65 -161.5t-150 -75.5q-27 0 -62 24l-35 -13q-59 -23 -59 -47q0 -14 12 -23.5t43 -23.5l148 -68q75 -36 104 -60t29 -53q0 -53 -67 -80t-178 -27zM111 -229q99 0 147.5 20t48.5 54q0 22 -24 39.5t-87 46.5l-106 49l-51 -22q-42 -17 -72 -46
t-30 -62q0 -40 49 -59.5t125 -19.5zM174 142q36 0 77 50.5t67 119.5t26 123q0 56 -52 56q-36 0 -77 -50t-67 -118.5t-26 -121.5q0 -30 12 -44.5t40 -14.5zM413 543l-6 -2q-17 54 -47 117q-6 -5 -41.5 -31t-59 -45.5t-45.5 -40.5l-5 5q31 31 125 144q28 32 40 32q22 0 25 -32
q1 -13 3 -44t4.5 -56.5t6.5 -46.5z" />
    <glyph glyph-name="Gbreve" unicode="&#x11e;" horiz-adv-x="624" 
d="M447 -8l-6 2q15 54 -22 83q-109 -87 -195 -87q-78 0 -123 58t-45 155q0 60 19 127.5t56.5 131t86 115t113 83t133.5 31.5q25 0 62.5 -9.5t48.5 -9.5q26 0 24 32l6 1l30 -227l-6 -1q-8 31 -14 50.5t-20.5 52.5t-30 52.5t-42 35t-58.5 15.5q-93 0 -173 -90
q-80 -89 -130.5 -229t-50.5 -223q0 -61 28.5 -100.5t94.5 -39.5q46 0 98 27.5t86 58.5l59 152q7 18 7 30q0 24 -32 24h-19v8h33q9 0 31 -1.5t38 -1.5q14 0 34 1.5t30 1.5h28v-8h-11q-30 0 -45.5 -11.5t-27.5 -43.5zM490 758q-37 0 -55.5 36t-18.5 81l6 1q5 -67 85 -67
q85 0 136 68l5 -4q-40 -53 -77.5 -84t-80.5 -31z" />
    <glyph glyph-name="gbreve" unicode="&#x11f;" horiz-adv-x="432" 
d="M111 -236q-95 0 -167 18.5t-72 61.5q0 51 163 121l45 19l-34 16q-34 16 -51.5 31t-17.5 39q0 26 22 43.5t77 38.5l32 12q-33 30 -33 96q0 85 64 161.5t151 76.5q35 0 71 -32l5 5q73 73 118 73q13 0 22.5 -7t9.5 -19q0 -27 -32 -27q-10 0 -26 5.5t-28 5.5q-22 0 -58 -36
l-6 -6q25 -31 25 -88q0 -86 -65 -161.5t-150 -75.5q-27 0 -62 24l-35 -13q-59 -23 -59 -47q0 -14 12 -23.5t43 -23.5l148 -68q75 -36 104 -60t29 -53q0 -53 -67 -80t-178 -27zM111 -229q99 0 147.5 20t48.5 54q0 22 -24 39.5t-87 46.5l-106 49l-51 -22q-42 -17 -72 -46
t-30 -62q0 -40 49 -59.5t125 -19.5zM174 142q36 0 77 50.5t67 119.5t26 123q0 56 -52 56q-36 0 -77 -50t-67 -118.5t-26 -121.5q0 -30 12 -44.5t40 -14.5zM327 569q-37 0 -55.5 36t-18.5 81l6 1q5 -67 85 -67q85 0 136 68l5 -4q-40 -53 -77.5 -84t-80.5 -31z" />
    <glyph glyph-name="Gdotaccent" unicode="&#x120;" horiz-adv-x="624" 
d="M447 -8l-6 2q15 54 -22 83q-109 -87 -195 -87q-78 0 -123 58t-45 155q0 60 19 127.5t56.5 131t86 115t113 83t133.5 31.5q25 0 62.5 -9.5t48.5 -9.5q26 0 24 32l6 1l30 -227l-6 -1q-8 31 -14 50.5t-20.5 52.5t-30 52.5t-42 35t-58.5 15.5q-93 0 -173 -90
q-80 -89 -130.5 -229t-50.5 -223q0 -61 28.5 -100.5t94.5 -39.5q46 0 98 27.5t86 58.5l59 152q7 18 7 30q0 24 -32 24h-19v8h33q9 0 31 -1.5t38 -1.5q14 0 34 1.5t30 1.5h28v-8h-11q-30 0 -45.5 -11.5t-27.5 -43.5zM459 803q0 21 14 35t34 14t34.5 -14t14.5 -35t-14 -34.5
t-35 -13.5q-20 0 -34 13.5t-14 34.5z" />
    <glyph glyph-name="gdotaccent" unicode="&#x121;" horiz-adv-x="432" 
d="M111 -236q-95 0 -167 18.5t-72 61.5q0 51 163 121l45 19l-34 16q-34 16 -51.5 31t-17.5 39q0 26 22 43.5t77 38.5l32 12q-33 30 -33 96q0 85 64 161.5t151 76.5q35 0 71 -32l5 5q73 73 118 73q13 0 22.5 -7t9.5 -19q0 -27 -32 -27q-10 0 -26 5.5t-28 5.5q-22 0 -58 -36
l-6 -6q25 -31 25 -88q0 -86 -65 -161.5t-150 -75.5q-27 0 -62 24l-35 -13q-59 -23 -59 -47q0 -14 12 -23.5t43 -23.5l148 -68q75 -36 104 -60t29 -53q0 -53 -67 -80t-178 -27zM111 -229q99 0 147.5 20t48.5 54q0 22 -24 39.5t-87 46.5l-106 49l-51 -22q-42 -17 -72 -46
t-30 -62q0 -40 49 -59.5t125 -19.5zM174 142q36 0 77 50.5t67 119.5t26 123q0 56 -52 56q-36 0 -77 -50t-67 -118.5t-26 -121.5q0 -30 12 -44.5t40 -14.5zM300 624q0 21 14 35t34 14t34.5 -14t14.5 -35t-14 -34.5t-35 -13.5q-20 0 -34 13.5t-14 34.5z" />
    <glyph glyph-name="Gcommaaccent" unicode="&#x122;" horiz-adv-x="624" 
d="M447 -8l-6 2q15 54 -22 83q-109 -87 -195 -87q-78 0 -123 58t-45 155q0 60 19 127.5t56.5 131t86 115t113 83t133.5 31.5q25 0 62.5 -9.5t48.5 -9.5q26 0 24 32l6 1l30 -227l-6 -1q-8 31 -14 50.5t-20.5 52.5t-30 52.5t-42 35t-58.5 15.5q-93 0 -173 -90
q-80 -89 -130.5 -229t-50.5 -223q0 -61 28.5 -100.5t94.5 -39.5q46 0 98 27.5t86 58.5l59 152q7 18 7 30q0 24 -32 24h-19v8h33q9 0 31 -1.5t38 -1.5q14 0 34 1.5t30 1.5h28v-8h-11q-30 0 -45.5 -11.5t-27.5 -43.5zM188 -155q-18 0 -30 12.5t-12 30.5t12.5 31t32.5 13
q21 0 34 -13t13 -36q0 -49 -35.5 -82.5t-79.5 -40.5l-1 6q39 5 69.5 33t37.5 67q-13 -21 -41 -21z" />
    <glyph glyph-name="gcommaaccent" unicode="&#x123;" horiz-adv-x="432" 
d="M111 -236q-95 0 -167 18.5t-72 61.5q0 51 163 121l45 19l-34 16q-34 16 -51.5 31t-17.5 39q0 26 22 43.5t77 38.5l32 12q-33 30 -33 96q0 85 64 161.5t151 76.5q35 0 71 -32l5 5q73 73 118 73q13 0 22.5 -7t9.5 -19q0 -27 -32 -27q-10 0 -26 5.5t-28 5.5q-22 0 -58 -36
l-6 -6q25 -31 25 -88q0 -86 -65 -161.5t-150 -75.5q-27 0 -62 24l-35 -13q-59 -23 -59 -47q0 -14 12 -23.5t43 -23.5l148 -68q75 -36 104 -60t29 -53q0 -53 -67 -80t-178 -27zM111 -229q99 0 147.5 20t48.5 54q0 22 -24 39.5t-87 46.5l-106 49l-51 -22q-42 -17 -72 -46
t-30 -62q0 -40 49 -59.5t125 -19.5zM174 142q36 0 77 50.5t67 119.5t26 123q0 56 -52 56q-36 0 -77 -50t-67 -118.5t-26 -121.5q0 -30 12 -44.5t40 -14.5zM352 655q18 0 30 -12.5t12 -30.5t-12.5 -31t-32.5 -13q-21 0 -34 13t-13 36q0 49 35.5 82.5t79.5 40.5l1 -6
q-39 -5 -69.5 -33t-37.5 -67q13 21 41 21z" />
    <glyph glyph-name="Hcircumflex" unicode="&#x124;" horiz-adv-x="651" 
d="M526 0h-34q-10 0 -30 1.5t-36 1.5q-15 0 -35.5 -1.5t-30.5 -1.5h-28v8h11q29 0 44.5 11.5t28.5 43.5l108 279h-328l-108 -280q-7 -15 -7 -30q0 -24 32 -24h19v-8h-34q-10 0 -30 1.5t-36 1.5q-15 0 -35.5 -1.5t-30.5 -1.5h-28v8h11q29 0 44.5 11.5t28.5 43.5l214 556
q7 15 7 30q0 24 -32 24h-19v8h34q10 0 30 -1.5t36 -1.5q15 0 35.5 1.5t30.5 1.5h28v-8h-11q-29 0 -44.5 -11.5t-28.5 -43.5l-103 -267h328l103 268q7 15 7 30q0 24 -32 24h-19v8h34q10 0 30 -1.5t36 -1.5q15 0 35.5 1.5t30.5 1.5h28v-8h-11q-29 0 -44.5 -11.5t-28.5 -43.5
l-214 -556q-7 -15 -7 -30q0 -24 32 -24h19v-8zM610 732l-6 -2q-17 54 -47 117q-6 -5 -41.5 -31t-59 -45.5t-45.5 -40.5l-5 5q31 31 125 144q28 32 40 32q22 0 25 -32q1 -13 3 -44t4.5 -56.5t6.5 -46.5z" />
    <glyph glyph-name="hcircumflex" unicode="&#x125;" horiz-adv-x="498" 
d="M296 -8q-23 0 -35 13.5t-12 32.5q0 31 32 97l106 217q40 82 40 102q0 22 -19 22q-13 0 -41 -29.5t-89 -113.5l-243 -333q-5 0 -16 1t-16 1t-16.5 -1t-16.5 -1l251 626q8 22 8 29q0 19 -36 19h-34v7h15q38 0 57 1t47.5 11t41.5 30l5 -2l-278 -692l225 309q69 95 102 127.5
t67 32.5q22 0 33.5 -13.5t11.5 -32.5q0 -34 -34 -104l-109 -223q-35 -68 -35 -93q0 -18 17 -18q28 0 113 111l6 -4q-94 -129 -148 -129zM407 734l-6 -2q-17 54 -47 117q-6 -5 -41.5 -31t-59 -45.5t-45.5 -40.5l-5 5q31 31 125 144q28 32 40 32q22 0 25 -32q1 -13 3 -44
t4.5 -56.5t6.5 -46.5z" />
    <glyph glyph-name="Hbar" unicode="&#x126;" horiz-adv-x="659" 
d="M530 0h-34q-10 0 -30 1.5t-36 1.5q-15 0 -35.5 -1.5t-30.5 -1.5h-28v8h11q29 0 44.5 11.5t28.5 43.5l95 246h-327l-96 -247q-7 -15 -7 -30q0 -24 32 -24h19v-8h-34q-10 0 -30.5 1.5t-35.5 1.5t-35.5 -1.5t-30.5 -1.5h-28v8h11q29 0 44.5 11.5t28.5 43.5l157 409h-67v9h71
l53 138q7 15 7 30q0 24 -32 24h-19v8h34q10 0 30 -1.5t36 -1.5q15 0 35.5 1.5t30.5 1.5h28v-8h-11q-29 0 -44.5 -11.5t-28.5 -43.5l-53 -137h328l53 138q7 15 7 30q0 24 -32 24h-19v8h34q10 0 30 -1.5t36 -1.5q15 0 35.5 1.5t30.5 1.5h28v-8h-11q-29 0 -44.5 -11.5
t-28.5 -43.5l-53 -137h84l-1 -9h-86l-158 -410q-7 -15 -7 -30q0 -24 32 -24h19v-8zM191 318h328l59 154h-328z" />
    <glyph glyph-name="hbar" unicode="&#x127;" horiz-adv-x="498" 
d="M486 452q0 -34 -34 -104l-109 -223q-35 -68 -35 -93q0 -18 17 -18q28 0 113 111l6 -4q-94 -129 -148 -129q-23 0 -35 13.5t-12 32.5q0 31 32 97l106 217q40 82 40 102q0 22 -19 22q-13 0 -41 -29.5t-89 -113.5l-243 -333q-5 0 -16 1t-16 1t-16.5 -1t-16.5 -1l227 566h-56
v8h59l21 52q8 22 8 29q0 19 -36 19h-34v7h15q38 0 57 1t47.5 11t41.5 30l5 -2l-59 -147h101v-8h-104l-216 -537l225 309q69 95 102 127.5t67 32.5q22 0 33.5 -13.5t11.5 -32.5z" />
    <glyph glyph-name="Itilde" unicode="&#x128;" horiz-adv-x="257" 
d="M132 0h-34q-10 0 -30 1.5t-36 1.5q-15 0 -35.5 -1.5t-30.5 -1.5h-28v8h11q29 0 44.5 11.5t28.5 43.5l214 556q7 15 7 30q0 24 -32 24h-19v8h34q10 0 30 -1.5t36 -1.5q15 0 35.5 1.5t30.5 1.5h28v-8h-11q-29 0 -44.5 -11.5t-28.5 -43.5l-214 -556q-7 -15 -7 -30
q0 -24 32 -24h19v-8zM386 777q-20 0 -55 21.5t-61 21.5q-11 0 -23.5 -11t-18 -18.5t-17.5 -26.5l-6 4q2 3 13 21t17.5 26.5t18 21.5t24.5 18.5t28 5.5q20 0 55 -21.5t61 -21.5q11 0 23.5 11t18 18.5t17.5 26.5l6 -4q-35 -59 -58 -77q-21 -16 -43 -16z" />
    <glyph glyph-name="itilde" unicode="&#x129;" horiz-adv-x="263" 
d="M216 354l-111 -229q-34 -66 -34 -93q0 -18 17 -18q31 0 113 111l6 -4q-94 -129 -148 -129q-23 0 -35 13.5t-12 32.5q0 32 32 98l111 229q34 76 34 93q0 18 -17 18q-28 0 -113 -111l-6 4q94 129 148 129q23 0 35 -13.5t12 -32.5q0 -32 -32 -98zM307 588q-21 0 -55 21.5
t-61 21.5q-11 0 -23.5 -11t-18 -18.5t-17.5 -26.5l-6 4q2 3 13 21t17.5 26.5t18 21.5t24.5 18.5t28 5.5q20 0 54.5 -21.5t61.5 -21.5q11 0 23.5 11t18 18.5t17.5 26.5l6 -4q-35 -59 -58 -77q-21 -16 -43 -16z" />
    <glyph glyph-name="Imacron" unicode="&#x12a;" horiz-adv-x="257" 
d="M132 0h-34q-10 0 -30 1.5t-36 1.5q-15 0 -35.5 -1.5t-30.5 -1.5h-28v8h11q29 0 44.5 11.5t28.5 43.5l214 556q7 15 7 30q0 24 -32 24h-19v8h34q10 0 30 -1.5t36 -1.5q15 0 35.5 1.5t30.5 1.5h28v-8h-11q-29 0 -44.5 -11.5t-28.5 -43.5l-214 -556q-7 -15 -7 -30
q0 -24 32 -24h19v-8zM453 797h-225v22h225v-22z" />
    <glyph glyph-name="imacron" unicode="&#x12b;" horiz-adv-x="263" 
d="M216 354l-111 -229q-34 -66 -34 -93q0 -18 17 -18q31 0 113 111l6 -4q-94 -129 -148 -129q-23 0 -35 13.5t-12 32.5q0 32 32 98l111 229q34 76 34 93q0 18 -17 18q-28 0 -113 -111l-6 4q94 129 148 129q23 0 35 -13.5t12 -32.5q0 -32 -32 -98zM374 608h-225v22h225v-22z
" />
    <glyph glyph-name="Ibreve" unicode="&#x12c;" horiz-adv-x="257" 
d="M132 0h-34q-10 0 -30 1.5t-36 1.5q-15 0 -35.5 -1.5t-30.5 -1.5h-28v8h11q29 0 44.5 11.5t28.5 43.5l214 556q7 15 7 30q0 24 -32 24h-19v8h34q10 0 30 -1.5t36 -1.5q15 0 35.5 1.5t30.5 1.5h28v-8h-11q-29 0 -44.5 -11.5t-28.5 -43.5l-214 -556q-7 -15 -7 -30
q0 -24 32 -24h19v-8zM324 758q-37 0 -55.5 36t-18.5 81l6 1q5 -67 85 -67q85 0 136 68l5 -4q-40 -53 -77.5 -84t-80.5 -31z" />
    <glyph glyph-name="ibreve" unicode="&#x12d;" horiz-adv-x="263" 
d="M216 354l-111 -229q-34 -66 -34 -93q0 -18 17 -18q31 0 113 111l6 -4q-94 -129 -148 -129q-23 0 -35 13.5t-12 32.5q0 32 32 98l111 229q34 76 34 93q0 18 -17 18q-28 0 -113 -111l-6 4q94 129 148 129q23 0 35 -13.5t12 -32.5q0 -32 -32 -98zM245 569q-37 0 -55.5 36
t-18.5 81l6 1q5 -67 85 -67q85 0 136 68l5 -4q-40 -53 -77.5 -84t-80.5 -31z" />
    <glyph glyph-name="Iogonek" unicode="&#x12e;" horiz-adv-x="257" 
d="M132 0h-34q-10 0 -36 2q-46 -20 -82 -51t-36 -67q0 -17 10 -27.5t28 -10.5q36 0 82 40l4 -5q-64 -59 -127 -59q-26 0 -40.5 12.5t-14.5 32.5q0 22 16.5 43t47 40t50 29t49.5 24h-17q-15 0 -35.5 -1.5t-30.5 -1.5h-28v8h11q29 0 44.5 11.5t28.5 43.5l214 556q7 15 7 30
q0 24 -32 24h-19v8h34q10 0 30 -1.5t36 -1.5q15 0 35.5 1.5t30.5 1.5h28v-8h-11q-29 0 -44.5 -11.5t-28.5 -43.5l-214 -556q-7 -15 -7 -30q0 -24 32 -24h19v-8z" />
    <glyph glyph-name="iogonek" unicode="&#x12f;" horiz-adv-x="263" 
d="M216 354l-111 -229q-34 -66 -34 -93q0 -18 17 -18q31 0 113 111l6 -4q-73 -99 -119 -121q-116 -55 -116 -116q0 -17 10 -27.5t28 -10.5q36 0 82 40l4 -5q-64 -59 -127 -59q-26 0 -40.5 12.5t-14.5 32.5q0 63 145 125q-23 0 -35 13.5t-12 32.5q0 32 32 98l111 229
q34 76 34 93q0 18 -17 18q-28 0 -113 -111l-6 4q94 129 148 129q23 0 35 -13.5t12 -32.5q0 -32 -32 -98zM280 596q-20 0 -33 13t-13 33t13 33.5t33 13.5t33.5 -13.5t13.5 -33.5t-13.5 -33t-33.5 -13z" />
    <glyph glyph-name="Idotaccent" unicode="&#x130;" horiz-adv-x="257" 
d="M132 0h-34q-10 0 -30 1.5t-36 1.5q-15 0 -35.5 -1.5t-30.5 -1.5h-28v8h11q29 0 44.5 11.5t28.5 43.5l214 556q7 15 7 30q0 24 -32 24h-19v8h34q10 0 30 -1.5t36 -1.5q15 0 35.5 1.5t30.5 1.5h28v-8h-11q-29 0 -44.5 -11.5t-28.5 -43.5l-214 -556q-7 -15 -7 -30
q0 -24 32 -24h19v-8zM291 803q0 21 14 35t34 14t34.5 -14t14.5 -35t-14 -34.5t-35 -13.5q-20 0 -34 13.5t-14 34.5z" />
    <glyph glyph-name="dotlessi" unicode="&#x131;" horiz-adv-x="263" 
d="M216 354l-111 -229q-34 -66 -34 -93q0 -18 17 -18q31 0 113 111l6 -4q-94 -129 -148 -129q-23 0 -35 13.5t-12 32.5q0 32 32 98l111 229q34 76 34 93q0 18 -17 18q-28 0 -113 -111l-6 4q94 129 148 129q23 0 35 -13.5t12 -32.5q0 -32 -32 -98z" />
    <glyph glyph-name="IJ" unicode="&#x132;" horiz-adv-x="554" 
d="M132 0h-34q-10 0 -30 1.5t-36 1.5q-15 0 -35.5 -1.5t-30.5 -1.5h-28v8h11q29 0 44.5 11.5t28.5 43.5l214 556q7 15 7 30q0 24 -32 24h-19v8h34q10 0 30 -1.5t36 -1.5q15 0 35.5 1.5t30.5 1.5h28v-8h-11q-29 0 -44.5 -11.5t-28.5 -43.5l-214 -556q-7 -15 -7 -30
q0 -24 32 -24h19v-8zM140 -98q-15 0 -25 7.5t-10 20.5q1 29 37 29q11 0 36 -9.5t40 -9.5q30 0 51.5 26t45.5 93l208 560q7 18 7 30q0 24 -32 24h-19v8h34q9 0 30 -1.5t36 -1.5t35.5 1.5t30.5 1.5h28v-8h-11q-30 0 -45.5 -11.5t-27.5 -43.5l-158 -428q-55 -148 -136.5 -218
t-154.5 -70z" />
    <glyph glyph-name="ij" unicode="&#x133;" horiz-adv-x="519" 
d="M280 596q-20 0 -33 13t-13 33t13 33.5t33 13.5t33.5 -13.5t13.5 -33.5t-13.5 -33t-33.5 -13zM216 354l-111 -229q-34 -66 -34 -93q0 -18 17 -18q31 0 113 111l6 -4q-94 -129 -148 -129q-23 0 -35 13.5t-12 32.5q0 32 32 98l111 229q34 76 34 93q0 18 -17 18
q-28 0 -113 -111l-6 4q94 129 148 129q23 0 35 -13.5t12 -32.5q0 -32 -32 -98zM28 -236q-15 0 -25 7.5t-10 19.5q0 27 35 27q11 0 43 -8t49 -8q93 0 183 247l114 316q2 5 12 30.5t14.5 40t4.5 22.5q0 18 -17 18q-30 0 -114 -111l-6 4q93 129 149 129q23 0 35.5 -13.5
t12.5 -32.5q0 -23 -28 -98l-90 -236q-44 -115 -108 -197.5t-128.5 -119.5t-125.5 -37zM538 596q-20 0 -33 13t-13 33t13 33.5t33 13.5t33.5 -13.5t13.5 -33.5t-13.5 -33t-33.5 -13z" />
    <glyph glyph-name="Jcircumflex" unicode="&#x134;" horiz-adv-x="297" 
d="M-117 -98q-15 0 -25 7.5t-10 20.5q1 29 37 29q11 0 36 -9.5t40 -9.5q29 0 51 26.5t46 92.5l208 560q7 18 7 30q0 24 -32 24h-19v8h34q10 0 30 -1.5t36 -1.5q15 0 35.5 1.5t30.5 1.5h28v-8h-11q-30 0 -45.5 -11.5t-27.5 -43.5l-158 -428q-55 -148 -136.5 -218t-154.5 -70z
M439 732l-6 -2q-17 54 -47 117q-6 -5 -41.5 -31t-59 -45.5t-45.5 -40.5l-5 5q31 31 125 144q28 32 40 32q22 0 25 -32q1 -13 3 -44t4.5 -56.5t6.5 -46.5z" />
    <glyph glyph-name="jcircumflex" unicode="&#x135;" horiz-adv-x="256" 
d="M245 452q0 -23 -28 -98l-90 -236q-44 -115 -108 -197.5t-128.5 -119.5t-125.5 -37q-15 0 -25 7.5t-10 19.5q0 27 35 27q11 0 43 -8t49 -8q93 0 183 247l114 316q2 5 12 30.5t14.5 40t4.5 22.5q0 18 -17 18q-30 0 -114 -111l-6 4q93 129 149 129q23 0 35.5 -13.5
t12.5 -32.5zM318 543l-6 -2q-17 54 -47 117q-6 -5 -41.5 -31t-59 -45.5t-45.5 -40.5l-5 5q31 31 125 144q28 32 40 32q22 0 25 -32q1 -13 3 -44t4.5 -56.5t6.5 -46.5z" />
    <glyph glyph-name="Kcommaaccent" unicode="&#x136;" horiz-adv-x="609" 
d="M511 0h-41q-5 0 -24.5 1.5t-35.5 1.5q-15 0 -36.5 -1.5t-25.5 -1.5h-34v8h10q54 0 54 34q0 18 -2 27l-55 293l-173 -144l-60 -156q-7 -15 -7 -30q0 -24 32 -24h19v-8h-34q-10 0 -30 1.5t-36 1.5q-15 0 -35.5 -1.5t-30.5 -1.5h-28v8h11q29 0 44.5 11.5t28.5 43.5l214 556
q7 15 7 30q0 24 -32 24h-19v8h34q10 0 30 -1.5t36 -1.5q15 0 35.5 1.5t30.5 1.5h28v-8h-11q-29 0 -44.5 -11.5t-28.5 -43.5l-148 -384l165 138l-8 42q6 0 16 -1t14 -1q11 0 27 2l207 174q38 32 39 56q0 29 -34 29h-10v8h27q8 0 32 -1.5t32 -1.5q13 0 34.5 1.5t27.5 1.5h29
v-8h-11q-50 0 -160 -92l-206 -173l68 -354q5 -26 18.5 -36t40.5 -10h9v-8zM197 -155q-18 0 -30 12.5t-12 30.5t12.5 31t32.5 13q21 0 34 -13t13 -36q0 -49 -35.5 -82.5t-79.5 -40.5l-1 6q39 5 69.5 33t37.5 67q-13 -21 -41 -21z" />
    <glyph glyph-name="kcommaaccent" unicode="&#x137;" horiz-adv-x="458" 
d="M281 -8q-28 0 -45 16t-17 50q0 12 7 68t7 70q0 38 -13 54.5t-60 16.5h-18l-107 -267q-5 0 -16 1t-16 1t-16.5 -1t-16.5 -1l251 626q8 22 8 29q0 19 -36 19h-34v7h15q35 0 55 1.5t48.5 11.5t41.5 29l5 -2l-179 -446h11q50 0 88 29.5t72 80.5q41 60 72.5 86.5t76.5 26.5
q35 0 35 -26q0 -27 -31 -27q-12 0 -28.5 6t-30.5 6q-19 0 -37.5 -16t-48.5 -61q-31 -47 -61 -73.5t-71 -34.5q102 -7 102 -73q0 -20 -7 -77.5t-7 -73.5q0 -35 22 -35q40 0 124 112l6 -4q-96 -129 -151 -129zM113 -155q-18 0 -30 12.5t-12 30.5t12.5 31t32.5 13q21 0 34 -13
t13 -36q0 -49 -35.5 -82.5t-79.5 -40.5l-1 6q39 5 69.5 33t37.5 67q-13 -21 -41 -21z" />
    <glyph glyph-name="kgreenlandic" unicode="&#x138;" horiz-adv-x="501" 
d="M453 457q-19 0 -37.5 -16t-48.5 -61q-31 -47 -61 -73.5t-71 -34.5q102 -7 102 -73q0 -21 -7 -78.5t-7 -72.5q0 -35 22 -35q40 0 124 112l6 -4q-96 -129 -151 -129q-28 0 -45 16t-17 50q0 12 7 67.5t7 70.5q0 38 -13 54.5t-60 16.5h-21l-112 -267q-6 0 -16.5 1t-16.5 1
q-5 0 -16 -1t-17 -1l152 365q34 73 34 93q0 18 -16 18q-32 0 -115 -111l-6 4q93 129 149 129q23 0 35 -13.5t12 -32.5q0 -28 -30 -98l-33 -79h13q50 0 88 29.5t72 80.5q41 60 72.5 86.5t76.5 26.5q35 0 35 -26q0 -27 -31 -27q-12 0 -28.5 6t-30.5 6z" />
    <glyph glyph-name="Lacute" unicode="&#x139;" horiz-adv-x="510" 
d="M331 -32l-5 2q9 30 -18 30h-211q-11 0 -30 0.5t-34 0.5q-14 0 -35.5 -0.5t-31.5 -0.5h-28v8h12q29 0 44.5 12t27.5 43l214 556q7 15 7 30q0 24 -32 24h-19v8h34q10 0 30 -1.5t36 -1.5q15 0 35.5 1.5t30.5 1.5h28v-8h-11q-29 0 -44.5 -11.5t-28.5 -43.5l-234 -609h151
q35 0 57 10.5t56 44.5q64 64 148 158l5 -4zM281 731l-5 5q34 36 74 93.5t52 70.5q10 12 25 12q10 0 18 -7.5t8 -19.5q0 -13 -10 -23q-11 -12 -69.5 -53.5t-92.5 -77.5z" />
    <glyph glyph-name="lacute" unicode="&#x13a;" horiz-adv-x="239" 
d="M39 -8q-23 0 -35 13.5t-12 32.5q0 11 3.5 25.5t7 23.5t10.5 26.5t9 21.5l197 491q8 22 8 29q0 19 -36 19h-34v7h15q37 0 56.5 1t48 11t41.5 30l5 -2l-239 -595q-3 -9 -12.5 -31.5t-15 -38.5t-5.5 -24q0 -18 17 -18q31 0 113 111l6 -4q-94 -129 -148 -129zM241 733l-5 5
q34 36 74 93.5t52 70.5q10 12 25 12q10 0 18 -7.5t8 -19.5q0 -13 -10 -23q-11 -12 -69.5 -53.5t-92.5 -77.5z" />
    <glyph glyph-name="Lcommaaccent" unicode="&#x13b;" horiz-adv-x="510" 
d="M331 -32l-5 2q9 30 -18 30h-211q-11 0 -30 0.5t-34 0.5q-14 0 -35.5 -0.5t-31.5 -0.5h-28v8h12q29 0 44.5 12t27.5 43l214 556q7 15 7 30q0 24 -32 24h-19v8h34q10 0 30 -1.5t36 -1.5q15 0 35.5 1.5t30.5 1.5h28v-8h-11q-29 0 -44.5 -11.5t-28.5 -43.5l-234 -609h151
q35 0 57 10.5t56 44.5q64 64 148 158l5 -4zM144 -155q-18 0 -30 12.5t-12 30.5t12.5 31t32.5 13q21 0 34 -13t13 -36q0 -49 -35.5 -82.5t-79.5 -40.5l-1 6q39 5 69.5 33t37.5 67q-13 -21 -41 -21z" />
    <glyph glyph-name="lcommaaccent" unicode="&#x13c;" horiz-adv-x="239" 
d="M39 -8q-23 0 -35 13.5t-12 32.5q0 11 3.5 25.5t7 23.5t10.5 26.5t9 21.5l197 491q8 22 8 29q0 19 -36 19h-34v7h15q37 0 56.5 1t48 11t41.5 30l5 -2l-239 -595q-3 -9 -12.5 -31.5t-15 -38.5t-5.5 -24q0 -18 17 -18q31 0 113 111l6 -4q-94 -129 -148 -129zM-16 -155
q-18 0 -30 12.5t-12 30.5t12.5 31t32.5 13q21 0 34 -13t13 -36q0 -49 -35.5 -82.5t-79.5 -40.5l-1 6q39 5 69.5 33t37.5 67q-13 -21 -41 -21z" />
    <glyph glyph-name="Lcaron" unicode="&#x13d;" horiz-adv-x="510" 
d="M331 -32l-5 2q9 30 -18 30h-211q-11 0 -30 0.5t-34 0.5q-14 0 -35.5 -0.5t-31.5 -0.5h-28v8h12q29 0 44.5 12t27.5 43l214 556q7 15 7 30q0 24 -32 24h-19v8h34q10 0 30 -1.5t36 -1.5q15 0 35.5 1.5t30.5 1.5h28v-8h-11q-29 0 -44.5 -11.5t-28.5 -43.5l-234 -609h151
q35 0 57 10.5t56 44.5q64 64 148 158l5 -4zM429 452l-6 3q22 43 51.5 125t34.5 93q7 18 27 18q12 0 20 -8t8 -19t-6 -21q-8 -13 -57 -81.5t-72 -109.5z" />
    <glyph glyph-name="lcaron" unicode="&#x13e;" horiz-adv-x="258" 
d="M39 -8q-23 0 -35 13.5t-12 32.5q0 11 3.5 25.5t7 23.5t10.5 26.5t9 21.5l197 491q8 22 8 29q0 19 -36 19h-34v7h15q37 0 56.5 1t48 11t41.5 30l5 -2l-239 -595q-3 -9 -12.5 -31.5t-15 -38.5t-5.5 -24q0 -18 17 -18q31 0 113 111l6 -4q-94 -129 -148 -129zM320 491l-6 3
q22 43 51.5 125t34.5 93q8 18 27 18q12 0 20 -8t8 -19t-6 -21q-8 -13 -57 -81.5t-72 -109.5z" />
    <glyph glyph-name="Ldot" unicode="&#x13f;" horiz-adv-x="510" 
d="M331 -32l-5 2q9 30 -18 30h-211q-11 0 -30 0.5t-34 0.5q-14 0 -35.5 -0.5t-31.5 -0.5h-28v8h12q29 0 44.5 12t27.5 43l214 556q7 15 7 30q0 24 -32 24h-19v8h34q10 0 30 -1.5t36 -1.5q15 0 35.5 1.5t30.5 1.5h28v-8h-11q-29 0 -44.5 -11.5t-28.5 -43.5l-234 -609h151
q35 0 57 10.5t56 44.5q64 64 148 158l5 -4zM311 331q0 21 14 35t34 14t34.5 -14t14.5 -35t-14 -34.5t-35 -13.5q-20 0 -34 13.5t-14 34.5z" />
    <glyph glyph-name="ldot" unicode="&#x140;" horiz-adv-x="360" 
d="M39 -8q-23 0 -35 13.5t-12 32.5q0 11 3.5 25.5t7 23.5t10.5 26.5t9 21.5l197 491q8 22 8 29q0 19 -36 19h-34v7h15q37 0 56.5 1t48 11t41.5 30l5 -2l-239 -595q-3 -9 -12.5 -31.5t-15 -38.5t-5.5 -24q0 -18 17 -18q31 0 113 111l6 -4q-94 -129 -148 -129zM243 259
q0 21 14 35t34 14t34.5 -14t14.5 -35t-14 -34.5t-35 -13.5q-20 0 -34 13.5t-14 34.5z" />
    <glyph glyph-name="Lslash" unicode="&#x141;" horiz-adv-x="520" 
d="M341 -32l-5 2q9 30 -18 30h-211q-11 0 -30 0.5t-34 0.5q-14 0 -35.5 -0.5t-31.5 -0.5h-28v8h12q29 0 44.5 12t27.5 43l88 228l-76 -34l-4 9l85 38l121 315q7 15 7 30q0 24 -32 24h-19v8h34q9 0 29.5 -1.5t36.5 -1.5q15 0 35.5 1.5t30.5 1.5h28v-8h-11q-29 0 -44.5 -11.5
t-28.5 -43.5l-107 -277l143 64l4 -9l-152 -69l-122 -318h151q35 0 57 10.5t56 44.5q64 64 148 158l5 -4z" />
    <glyph glyph-name="lslash" unicode="&#x142;" horiz-adv-x="249" 
d="M44 -8q-23 0 -35 13.5t-12 32.5q0 11 3.5 25.5t7 23.5t10.5 26.5t9 21.5l64 160l-70 -31l-3 7l77 35l129 320q8 22 8 29q0 19 -36 19h-34v7h15q37 0 56.5 1t48 11t41.5 30l5 -2l-153 -379l90 40l3 -7l-97 -44l-82 -205q-3 -9 -12.5 -31.5t-15 -38.5t-5.5 -24
q0 -18 17 -18q31 0 113 111l6 -4q-94 -129 -148 -129z" />
    <glyph glyph-name="Nacute" unicode="&#x143;" horiz-adv-x="629" 
d="M456 74l19 -74q-10 0 -19 0.5t-14 0.5q-6 0 -14.5 -0.5t-16.5 -0.5l-162 613l-184 -478q-18 -44 -18 -75q0 -51 49 -52h10v-8h-35q-4 0 -24.5 1.5t-34.5 1.5q-15 0 -32.5 -1.5t-21.5 -1.5h-33v8h14q40 0 67 35t50 94l188 487q-6 25 -16 37t-32 12h-20v8h36q10 0 24 -0.5
t22 -0.5q10 0 19 0.5t19 0.5l156 -592l176 457q18 44 18 75q0 51 -49 52h-10v8h35q5 0 25 -1.5t35 -1.5q16 0 32.5 1.5t21.5 1.5h32v-8h-13q-71 0 -118 -129zM441 731l-5 5q34 36 74 93.5t52 70.5q10 12 25 12q10 0 18 -7.5t8 -19.5q0 -13 -10 -23q-11 -12 -69.5 -53.5
t-92.5 -77.5z" />
    <glyph glyph-name="nacute" unicode="&#x144;" horiz-adv-x="533" 
d="M331 -8q-23 0 -35 13.5t-12 32.5q0 31 32 97l106 217q40 82 40 102q0 22 -19 22q-13 0 -41 -29.5t-89 -113.5l-243 -333q-6 0 -16.5 1t-16.5 1q-5 0 -16 -1t-17 -1l152 365q34 76 34 93q0 18 -16 18q-32 0 -115 -111l-6 4q93 129 149 129q23 0 35 -13.5t12 -32.5
q0 -28 -30 -98l-137 -324l225 308q69 95 102 127.5t67 32.5q22 0 33.5 -13.5t11.5 -32.5q0 -34 -34 -104l-109 -223q-35 -68 -35 -93q0 -18 17 -18q28 0 113 111l6 -4q-94 -129 -148 -129zM334 542l-5 5q34 36 74 93.5t52 70.5q11 12 25 12q10 0 18 -7.5t8 -19.5
q0 -13 -10 -23q-11 -12 -69.5 -53.5t-92.5 -77.5z" />
    <glyph glyph-name="Ncommaaccent" unicode="&#x145;" horiz-adv-x="629" 
d="M456 74l19 -74q-10 0 -19 0.5t-14 0.5q-6 0 -14.5 -0.5t-16.5 -0.5l-162 613l-184 -478q-18 -44 -18 -75q0 -51 49 -52h10v-8h-35q-4 0 -24.5 1.5t-34.5 1.5q-15 0 -32.5 -1.5t-21.5 -1.5h-33v8h14q40 0 67 35t50 94l188 487q-6 25 -16 37t-32 12h-20v8h36q10 0 24 -0.5
t22 -0.5q10 0 19 0.5t19 0.5l156 -592l176 457q18 44 18 75q0 51 -49 52h-10v8h35q5 0 25 -1.5t35 -1.5q16 0 32.5 1.5t21.5 1.5h32v-8h-13q-71 0 -118 -129zM204 -155q-18 0 -30 12.5t-12 30.5t12.5 31t32.5 13q21 0 34 -13t13 -36q0 -49 -35.5 -82.5t-79.5 -40.5l-1 6
q39 5 69.5 33t37.5 67q-13 -21 -41 -21z" />
    <glyph glyph-name="ncommaaccent" unicode="&#x146;" horiz-adv-x="533" 
d="M331 -8q-23 0 -35 13.5t-12 32.5q0 31 32 97l106 217q40 82 40 102q0 22 -19 22q-13 0 -41 -29.5t-89 -113.5l-243 -333q-6 0 -16.5 1t-16.5 1q-5 0 -16 -1t-17 -1l152 365q34 76 34 93q0 18 -16 18q-32 0 -115 -111l-6 4q93 129 149 129q23 0 35 -13.5t12 -32.5
q0 -28 -30 -98l-137 -324l225 308q69 95 102 127.5t67 32.5q22 0 33.5 -13.5t11.5 -32.5q0 -34 -34 -104l-109 -223q-35 -68 -35 -93q0 -18 17 -18q28 0 113 111l6 -4q-94 -129 -148 -129zM151 -155q-18 0 -30 12.5t-12 30.5t12.5 31t32.5 13q21 0 34 -13t13 -36
q0 -49 -35.5 -82.5t-79.5 -40.5l-1 6q39 5 69.5 33t37.5 67q-13 -21 -41 -21z" />
    <glyph glyph-name="Ncaron" unicode="&#x147;" horiz-adv-x="629" 
d="M456 74l19 -74q-10 0 -19 0.5t-14 0.5q-6 0 -14.5 -0.5t-16.5 -0.5l-162 613l-184 -478q-18 -44 -18 -75q0 -51 49 -52h10v-8h-35q-4 0 -24.5 1.5t-34.5 1.5q-15 0 -32.5 -1.5t-21.5 -1.5h-33v8h14q40 0 67 35t50 94l188 487q-6 25 -16 37t-32 12h-20v8h36q10 0 24 -0.5
t22 -0.5q10 0 19 0.5t19 0.5l156 -592l176 457q18 44 18 75q0 51 -49 52h-10v8h35q5 0 25 -1.5t35 -1.5q16 0 32.5 1.5t21.5 1.5h32v-8h-13q-71 0 -118 -129zM444 912l6 2q17 -54 47 -117q6 5 41.5 31t59 45.5t45.5 40.5l5 -5q-31 -31 -125 -144q-28 -32 -40 -32
q-22 0 -25 32q-1 13 -3 44t-4.5 56.5t-6.5 46.5z" />
    <glyph glyph-name="ncaron" unicode="&#x148;" horiz-adv-x="533" 
d="M331 -8q-23 0 -35 13.5t-12 32.5q0 31 32 97l106 217q40 82 40 102q0 22 -19 22q-13 0 -41 -29.5t-89 -113.5l-243 -333q-6 0 -16.5 1t-16.5 1q-5 0 -16 -1t-17 -1l152 365q34 76 34 93q0 18 -16 18q-32 0 -115 -111l-6 4q93 129 149 129q23 0 35 -13.5t12 -32.5
q0 -28 -30 -98l-137 -324l225 308q69 95 102 127.5t67 32.5q22 0 33.5 -13.5t11.5 -32.5q0 -34 -34 -104l-109 -223q-35 -68 -35 -93q0 -18 17 -18q28 0 113 111l6 -4q-94 -129 -148 -129zM337 723l6 2q17 -54 47 -117q6 5 41.5 31t59 45.5t45.5 40.5l5 -5
q-31 -31 -125 -144q-28 -32 -40 -32q-22 0 -25 32q-1 13 -3 44t-4.5 56.5t-6.5 46.5z" />
    <glyph glyph-name="napostrophe" unicode="&#x149;" horiz-adv-x="560" 
d="M358 -8q-23 0 -35 13.5t-12 32.5q0 31 32 97l106 217q40 82 40 102q0 22 -19 22q-13 0 -41 -29.5t-89 -113.5l-243 -333q-5 0 -16 1t-17 1t-17 -1t-16 -1l152 365q34 76 34 93q0 18 -16 18q-32 0 -115 -111l-6 4q93 129 149 129q23 0 35 -13.5t12 -32.5q0 -28 -30 -98
l-137 -324l225 308q69 95 102 127.5t67 32.5q22 0 33.5 -13.5t11.5 -32.5q0 -34 -34 -104l-109 -223q-35 -68 -35 -93q0 -18 17 -18q28 0 113 111l6 -4q-94 -129 -148 -129zM108 599q-20 0 -32.5 13t-12.5 32t13.5 32.5t34.5 13.5t34.5 -13t13.5 -38q0 -53 -39.5 -90.5
t-86.5 -44.5l-1 6q43 9 75 38t40 72q-18 -21 -39 -21z" />
    <glyph glyph-name="Eng" unicode="&#x14a;" horiz-adv-x="629" 
d="M456 74l19 -74q-10 0 -19 0.5t-14 0.5q-6 0 -12 -0.5t-10 -0.5l-18 -36q-60 -117 -126 -158.5t-139 -41.5q-39 0 -39 27t34 27q14 0 44.5 -8t43.5 -8q41 0 87 42t86 123l17 35l-161 611l-184 -478q-18 -44 -18 -75q0 -51 49 -52h10v-8h-35q-4 0 -24.5 1.5t-34.5 1.5
q-15 0 -32.5 -1.5t-21.5 -1.5h-33v8h14q40 0 67 35t50 94l188 487q-6 25 -16 37t-32 12h-20v8h36q10 0 24 -0.5t22 -0.5q10 0 19 0.5t19 0.5l156 -592l176 457q18 44 18 75q0 51 -49 52h-10v8h35q5 0 25 -1.5t35 -1.5q16 0 32.5 1.5t21.5 1.5h32v-8h-13q-71 0 -118 -129z
" />
    <glyph glyph-name="eng" unicode="&#x14b;" horiz-adv-x="531" 
d="M484 340l-94 -230q-48 -118 -112 -198.5t-125 -114t-122 -33.5q-15 0 -25 7.5t-10 19.5q0 27 35 27q11 0 43 -8t49 -8q90 0 183 247l113 295q6 14 18 43t17 43.5t5 23.5q0 22 -16 22q-13 0 -41 -29.5t-89 -113.5l-243 -333q-6 0 -16.5 1t-16.5 1q-5 0 -16 -1t-17 -1
l152 365q34 76 34 93q0 18 -16 18q-32 0 -115 -111l-6 4q93 129 149 129q23 0 35 -13.5t12 -32.5q0 -28 -30 -98l-137 -324l225 308q69 95 102 127.5t67 32.5q42 0 42 -46q0 -23 -34 -112z" />
    <glyph glyph-name="Omacron" unicode="&#x14c;" horiz-adv-x="627" 
d="M226 -10q-74 0 -122 57.5t-48 152.5q0 73 30 157.5t81 159.5t130 124.5t167 49.5q75 0 123 -57.5t48 -152.5q0 -73 -30 -157.5t-81 -159.5t-130.5 -124.5t-167.5 -49.5zM230 -2q63 0 122 45.5t100 114t72 146t46 142.5t15 103q0 134 -124 134q-63 0 -122 -45.5t-100 -114
t-72 -146t-46 -142.5t-15 -103q0 -134 124 -134zM628 797h-225v22h225v-22z" />
    <glyph glyph-name="omacron" unicode="&#x14d;" horiz-adv-x="442" 
d="M129 -1q71 0 141 114q44 71 73.5 161t29.5 143q0 74 -60 74q-71 0 -141 -114q-44 -71 -73.5 -161t-29.5 -143q0 -74 60 -74zM129 -8q-40 0 -75.5 37t-35.5 105q0 45 21 105.5t57 119t94 99t123 40.5q40 0 75.5 -37t35.5 -105q0 -45 -21 -105.5t-57 -119t-94 -99
t-123 -40.5zM477 608h-225v22h225v-22z" />
    <glyph glyph-name="Obreve" unicode="&#x14e;" horiz-adv-x="627" 
d="M226 -10q-74 0 -122 57.5t-48 152.5q0 73 30 157.5t81 159.5t130 124.5t167 49.5q75 0 123 -57.5t48 -152.5q0 -73 -30 -157.5t-81 -159.5t-130.5 -124.5t-167.5 -49.5zM230 -2q63 0 122 45.5t100 114t72 146t46 142.5t15 103q0 134 -124 134q-63 0 -122 -45.5t-100 -114
t-72 -146t-46 -142.5t-15 -103q0 -134 124 -134zM499 758q-37 0 -55.5 36t-18.5 81l6 1q5 -67 85 -67q85 0 136 68l5 -4q-40 -53 -77.5 -84t-80.5 -31z" />
    <glyph glyph-name="obreve" unicode="&#x14f;" horiz-adv-x="442" 
d="M129 -1q71 0 141 114q44 71 73.5 161t29.5 143q0 74 -60 74q-71 0 -141 -114q-44 -71 -73.5 -161t-29.5 -143q0 -74 60 -74zM129 -8q-40 0 -75.5 37t-35.5 105q0 45 21 105.5t57 119t94 99t123 40.5q40 0 75.5 -37t35.5 -105q0 -45 -21 -105.5t-57 -119t-94 -99
t-123 -40.5zM348 569q-37 0 -55.5 36t-18.5 81l6 1q5 -67 85 -67q85 0 136 68l5 -4q-40 -53 -77.5 -84t-80.5 -31z" />
    <glyph glyph-name="Ohungarumlaut" unicode="&#x150;" horiz-adv-x="627" 
d="M226 -10q-74 0 -122 57.5t-48 152.5q0 73 30 157.5t81 159.5t130 124.5t167 49.5q75 0 123 -57.5t48 -152.5q0 -73 -30 -157.5t-81 -159.5t-130.5 -124.5t-167.5 -49.5zM230 -2q63 0 122 45.5t100 114t72 146t46 142.5t15 103q0 134 -124 134q-63 0 -122 -45.5t-100 -114
t-72 -146t-46 -142.5t-15 -103q0 -134 124 -134zM414 731l-5 5q34 36 76 95t53 70t21 11t18 -7.5t8 -18.5q0 -10 -9 -20q-10 -11 -69 -55.5t-93 -79.5zM521 731l-5 5q34 36 76 95t53 70t21 11t18 -7.5t8 -18.5q0 -10 -9 -20q-10 -11 -69 -55.5t-93 -79.5z" />
    <glyph glyph-name="ohungarumlaut" unicode="&#x151;" horiz-adv-x="442" 
d="M129 -1q71 0 141 114q44 71 73.5 161t29.5 143q0 74 -60 74q-71 0 -141 -114q-44 -71 -73.5 -161t-29.5 -143q0 -74 60 -74zM129 -8q-40 0 -75.5 37t-35.5 105q0 45 21 105.5t57 119t94 99t123 40.5q40 0 75.5 -37t35.5 -105q0 -45 -21 -105.5t-57 -119t-94 -99
t-123 -40.5zM263 542l-5 5q34 36 76 95t53 70t21 11t18 -7.5t8 -18.5q0 -9 -9 -20q-10 -11 -69 -55.5t-93 -79.5zM370 542l-5 5q34 36 76 95t53 70t21 11t18 -7.5t8 -18.5q0 -9 -9 -20q-10 -11 -69 -55.5t-93 -79.5z" />
    <glyph glyph-name="OE" unicode="&#x152;" horiz-adv-x="924" 
d="M723 -32l-6 2q6 12 1.5 21t-18.5 9h-261q-8 0 -26.5 0.5t-28.5 0.5q-7 0 -29.5 -0.5t-33.5 -0.5h-56q-207 0 -207 203q0 47 14.5 106t48 125.5t81.5 121t122.5 90t162.5 35.5h97q8 0 31.5 -0.5t30.5 -0.5q14 0 33.5 0.5t28.5 0.5h203q37 0 41 30h6l9 -231l-6 -1
q-27 106 -46 153q-9 23 -20 31.5t-37 8.5h-183l-125 -322h123q42 0 72 34t61 99l7 -2l-108 -280l-7 2q18 52 18 85q0 53 -46 53h-123l-127 -332h194q33 0 54 10t55 43q56 53 140 147l5 -4zM609 672h-129q-73 0 -137.5 -46.5t-106 -114t-71.5 -144.5t-43 -137t-13 -92
q0 -72 40 -100.5t123 -28.5h82z" />
    <glyph glyph-name="oe" unicode="&#x153;" horiz-adv-x="685" 
d="M129 -8q-40 0 -75.5 37t-35.5 105q0 45 21 105.5t57 119t94 99t123 40.5q38 0 68 -32t30 -91q94 123 193 123q42 0 69.5 -18t27.5 -48q0 -39 -51.5 -81t-122 -69t-130.5 -33q-19 -63 -19 -114q0 -105 64 -105q72 0 170 128l5 -4q-118 -162 -210 -162q-38 0 -61.5 31
t-26.5 82q-83 -113 -190 -113zM129 -1q77 0 152 133q40 70 66 153t26 132q0 74 -60 74q-77 0 -152 -133q-40 -70 -66 -153t-26 -132q0 -74 60 -74zM606 491q-62 0 -119 -69.5t-87 -163.5q99 10 171.5 67.5t72.5 125.5q0 40 -38 40z" />
    <glyph glyph-name="Racute" unicode="&#x154;" horiz-adv-x="591" 
d="M610 553q0 -95 -82.5 -163.5t-196.5 -68.5h-6q6 -28 17 -38.5t44 -10.5l30 -175q9 -58 21.5 -72.5t46.5 -16.5h11v-8h-11q-20 0 -36 1.5t-34 1.5q-10 0 -24 -1.5t-21 -1.5l-54 321h-126l-101 -259q-7 -15 -7 -30q0 -24 32 -24h19v-8h-34q-10 0 -30 1.5t-36 1.5
q-14 0 -35 -1.5t-31 -1.5h-28v8h11q30 0 45.5 11.5t27.5 43.5l214 556q7 15 7 30q0 24 -32 24h-19v8h34q10 0 30 -0.5t36 -0.5q15 0 34.5 0.5t29.5 0.5h114q66 0 103 -34t37 -94zM323 672l-130 -342h129q54 0 97.5 22t67.5 53t40 68.5t21.5 64.5t5.5 45q0 47 -17.5 68
t-74.5 21h-139zM406 731l-5 5q34 36 74 93.5t52 70.5q11 12 25 12q10 0 18 -7.5t8 -19.5q0 -13 -10 -23q-11 -12 -69.5 -53.5t-92.5 -77.5z" />
    <glyph glyph-name="racute" unicode="&#x155;" horiz-adv-x="385" 
d="M237 275l-157 -275q-6 0 -17 1t-16 1t-16 -1t-17 -1l140 365q2 5 12 30.5t14.5 40t4.5 22.5q0 18 -16 18q-30 0 -115 -111l-6 4q93 129 149 129q23 0 35 -13.5t12 -32.5q0 -29 -27 -98l-120 -312l134 238q45 80 100 149t88 69q28 0 28 -27q0 -21 -42 -36
q-93 -29 -168 -160zM267 542l-5 5q34 36 74 93.5t52 70.5q10 12 25 12q10 0 18 -7.5t8 -19.5q0 -13 -10 -23q-11 -12 -69.5 -53.5t-92.5 -77.5z" />
    <glyph glyph-name="Rcommaaccent" unicode="&#x156;" horiz-adv-x="591" 
d="M610 553q0 -95 -82.5 -163.5t-196.5 -68.5h-6q6 -28 17 -38.5t44 -10.5l30 -175q9 -58 21.5 -72.5t46.5 -16.5h11v-8h-11q-20 0 -36 1.5t-34 1.5q-10 0 -24 -1.5t-21 -1.5l-54 321h-126l-101 -259q-7 -15 -7 -30q0 -24 32 -24h19v-8h-34q-10 0 -30 1.5t-36 1.5
q-14 0 -35 -1.5t-31 -1.5h-28v8h11q30 0 45.5 11.5t27.5 43.5l214 556q7 15 7 30q0 24 -32 24h-19v8h34q10 0 30 -0.5t36 -0.5q15 0 34.5 0.5t29.5 0.5h114q66 0 103 -34t37 -94zM323 672l-130 -342h129q54 0 97.5 22t67.5 53t40 68.5t21.5 64.5t5.5 45q0 47 -17.5 68
t-74.5 21h-139zM200 -155q-18 0 -30 12.5t-12 30.5t12.5 31t32.5 13q21 0 34 -13t13 -36q0 -49 -35.5 -82.5t-79.5 -40.5l-1 6q39 5 69.5 33t37.5 67q-13 -21 -41 -21z" />
    <glyph glyph-name="rcommaaccent" unicode="&#x157;" horiz-adv-x="385" 
d="M237 275l-157 -275q-6 0 -17 1t-16 1t-16 -1t-17 -1l140 365q2 5 12 30.5t14.5 40t4.5 22.5q0 18 -16 18q-30 0 -115 -111l-6 4q93 129 149 129q23 0 35 -13.5t12 -32.5q0 -29 -27 -98l-120 -312l134 238q45 80 100 149t88 69q28 0 28 -27q0 -21 -42 -36
q-93 -29 -168 -160zM9 -155q-18 0 -30 12.5t-12 30.5t12.5 31t32.5 13q21 0 34 -13t13 -36q0 -49 -35.5 -82.5t-79.5 -40.5l-1 6q39 5 69.5 33t37.5 67q-13 -21 -41 -21z" />
    <glyph glyph-name="Rcaron" unicode="&#x158;" horiz-adv-x="591" 
d="M610 553q0 -95 -82.5 -163.5t-196.5 -68.5h-6q6 -28 17 -38.5t44 -10.5l30 -175q9 -58 21.5 -72.5t46.5 -16.5h11v-8h-11q-20 0 -36 1.5t-34 1.5q-10 0 -24 -1.5t-21 -1.5l-54 321h-126l-101 -259q-7 -15 -7 -30q0 -24 32 -24h19v-8h-34q-10 0 -30 1.5t-36 1.5
q-14 0 -35 -1.5t-31 -1.5h-28v8h11q30 0 45.5 11.5t27.5 43.5l214 556q7 15 7 30q0 24 -32 24h-19v8h34q10 0 30 -0.5t36 -0.5q15 0 34.5 0.5t29.5 0.5h114q66 0 103 -34t37 -94zM323 672l-130 -342h129q54 0 97.5 22t67.5 53t40 68.5t21.5 64.5t5.5 45q0 47 -17.5 68
t-74.5 21h-139zM409 912l6 2q17 -54 47 -117q6 5 41.5 31t59 45.5t45.5 40.5l5 -5q-31 -31 -125 -144q-28 -32 -40 -32q-22 0 -25 32q-1 13 -3 44t-4.5 56.5t-6.5 46.5z" />
    <glyph glyph-name="rcaron" unicode="&#x159;" horiz-adv-x="385" 
d="M237 275l-157 -275q-6 0 -17 1t-16 1t-16 -1t-17 -1l140 365q2 5 12 30.5t14.5 40t4.5 22.5q0 18 -16 18q-30 0 -115 -111l-6 4q93 129 149 129q23 0 35 -13.5t12 -32.5q0 -29 -27 -98l-120 -312l134 238q45 80 100 149t88 69q28 0 28 -27q0 -21 -42 -36
q-93 -29 -168 -160zM270 723l6 2q17 -54 47 -117q6 5 41.5 31t59 45.5t45.5 40.5l5 -5q-31 -31 -125 -144q-28 -32 -40 -32q-22 0 -25 32q-1 13 -3 44t-4.5 56.5t-6.5 46.5z" />
    <glyph glyph-name="Sacute" unicode="&#x15a;" horiz-adv-x="512" 
d="M222 -10q-31 0 -82.5 15t-60.5 15q-26 0 -26 -30l-6 -1l-32 236l6 1q65 -228 201 -228q70 0 110.5 38t40.5 108t-91 174l-28 32q-71 79 -71 161q0 75 53 127.5t125 52.5q23 0 63 -9.5t48 -9.5q25 0 23 31l6 1l41 -211l-6 -2q-57 192 -175 192q-57 0 -94.5 -36t-37.5 -88
q0 -78 73 -161l29 -33q33 -38 49.5 -59.5t31.5 -54t15 -62.5q0 -85 -62.5 -142t-142.5 -57zM334 731l-5 5q34 36 74 93.5t52 70.5q11 12 25 12q10 0 18 -7.5t8 -19.5q0 -13 -10 -23q-11 -12 -69.5 -53.5t-92.5 -77.5z" />
    <glyph glyph-name="sacute" unicode="&#x15b;" horiz-adv-x="362" 
d="M121 -8q-64 0 -103.5 34.5t-39.5 77.5q0 12 8 19.5t18 7.5q22 0 28 -31q10 -55 31 -78t63 -23q45 0 75 31t30 68q0 52 -47 109l-31 38q-54 67 -54 113q0 62 42.5 101t93.5 39q50 0 88.5 -28t38.5 -57q0 -11 -8 -18.5t-18 -7.5q-24 0 -30 31q-7 38 -24 55.5t-49 17.5
q-36 0 -62.5 -23t-26.5 -64q0 -45 56 -116l35 -42q42 -48 42 -105q0 -65 -47.5 -107t-108.5 -42zM225 542l-5 5q34 36 74 93.5t52 70.5q10 12 25 12q10 0 18 -7.5t8 -19.5q0 -13 -10 -23q-11 -12 -69.5 -53.5t-92.5 -77.5z" />
    <glyph glyph-name="Scircumflex" unicode="&#x15c;" horiz-adv-x="512" 
d="M222 -10q-31 0 -82.5 15t-60.5 15q-26 0 -26 -30l-6 -1l-32 236l6 1q65 -228 201 -228q70 0 110.5 38t40.5 108t-91 174l-28 32q-71 79 -71 161q0 75 53 127.5t125 52.5q23 0 63 -9.5t48 -9.5q25 0 23 31l6 1l41 -211l-6 -2q-57 192 -175 192q-57 0 -94.5 -36t-37.5 -88
q0 -78 73 -161l29 -33q33 -38 49.5 -59.5t31.5 -54t15 -62.5q0 -85 -62.5 -142t-142.5 -57zM463 732l-6 -2q-17 54 -47 117q-6 -5 -41.5 -31t-59 -45.5t-45.5 -40.5l-5 5q31 31 125 144q28 32 40 32q22 0 25 -32q1 -13 3 -44t4.5 -56.5t6.5 -46.5z" />
    <glyph glyph-name="scircumflex" unicode="&#x15d;" horiz-adv-x="362" 
d="M121 -8q-64 0 -103.5 34.5t-39.5 77.5q0 12 8 19.5t18 7.5q22 0 28 -31q10 -55 31 -78t63 -23q45 0 75 31t30 68q0 52 -47 109l-31 38q-54 67 -54 113q0 62 42.5 101t93.5 39q50 0 88.5 -28t38.5 -57q0 -11 -8 -18.5t-18 -7.5q-24 0 -30 31q-7 38 -24 55.5t-49 17.5
q-36 0 -62.5 -23t-26.5 -64q0 -45 56 -116l35 -42q42 -48 42 -105q0 -65 -47.5 -107t-108.5 -42zM354 543l-6 -2q-17 54 -47 117q-6 -5 -41.5 -31t-59 -45.5t-45.5 -40.5l-5 5q31 31 125 144q28 32 40 32q22 0 25 -32q1 -13 3 -44t4.5 -56.5t6.5 -46.5z" />
    <glyph glyph-name="Scedilla" unicode="&#x15e;" horiz-adv-x="512" 
d="M249 -99q0 -53 -73.5 -97.5t-151.5 -53.5l-1 7q62 7 120.5 42.5t58.5 82.5q0 27 -33 27q-34 0 -56 -12l-2 3l103 90q-29 2 -77 16t-58 14q-26 0 -26 -30l-6 -1l-32 236l6 1q65 -228 201 -228q70 0 110.5 38t40.5 108t-91 174l-28 32q-71 79 -71 161q0 75 53 127.5
t125 52.5q23 0 63 -9.5t48 -9.5q25 0 23 31l6 1l41 -211l-6 -2q-57 192 -175 192q-57 0 -94.5 -36t-37.5 -88q0 -78 73 -161l29 -33q33 -38 49.5 -59.5t31.5 -54t15 -62.5q0 -85 -62 -142t-142 -57h-1l-44 -48q14 2 19 2q23 0 37.5 -12t14.5 -31z" />
    <glyph glyph-name="scedilla" unicode="&#x15f;" horiz-adv-x="362" 
d="M147 -99q0 -53 -73.5 -97.5t-151.5 -53.5l-1 7q62 7 120.5 42.5t58.5 82.5q0 27 -33 27q-34 0 -56 -12l-2 3l107 92q-63 2 -100.5 35.5t-37.5 76.5q0 12 8 19.5t18 7.5q22 0 28 -31q10 -55 31 -78t63 -23q45 0 75 31t30 68q0 52 -47 109l-31 38q-54 67 -54 113
q0 62 42.5 101t93.5 39q50 0 88.5 -28t38.5 -57q0 -11 -8 -18.5t-18 -7.5q-24 0 -30 31q-7 38 -24 55.5t-49 17.5q-36 0 -62.5 -23t-26.5 -64q0 -45 56 -116l35 -42q42 -48 42 -105q0 -64 -45.5 -105.5t-106.5 -43.5l-49 -50q14 2 19 2q23 0 37.5 -12t14.5 -31z" />
    <glyph glyph-name="Scaron" unicode="&#x160;" horiz-adv-x="512" 
d="M222 -10q-31 0 -82.5 15t-60.5 15q-26 0 -26 -30l-6 -1l-32 236l6 1q65 -228 201 -228q70 0 110.5 38t40.5 108t-91 174l-28 32q-71 79 -71 161q0 75 53 127.5t125 52.5q23 0 63 -9.5t48 -9.5q25 0 23 31l6 1l41 -211l-6 -2q-57 192 -175 192q-57 0 -94.5 -36t-37.5 -88
q0 -78 73 -161l29 -33q33 -38 49.5 -59.5t31.5 -54t15 -62.5q0 -85 -62.5 -142t-142.5 -57zM337 912l6 2q17 -54 47 -117q6 5 41.5 31t59 45.5t45.5 40.5l5 -5q-31 -31 -125 -144q-28 -32 -40 -32q-22 0 -25 32q-1 13 -3 44t-4.5 56.5t-6.5 46.5z" />
    <glyph glyph-name="scaron" unicode="&#x161;" horiz-adv-x="362" 
d="M121 -8q-64 0 -103.5 34.5t-39.5 77.5q0 12 8 19.5t18 7.5q22 0 28 -31q10 -55 31 -78t63 -23q45 0 75 31t30 68q0 52 -47 109l-31 38q-54 67 -54 113q0 62 42.5 101t93.5 39q50 0 88.5 -28t38.5 -57q0 -11 -8 -18.5t-18 -7.5q-24 0 -30 31q-7 38 -24 55.5t-49 17.5
q-36 0 -62.5 -23t-26.5 -64q0 -45 56 -116l35 -42q42 -48 42 -105q0 -65 -47.5 -107t-108.5 -42zM228 723l6 2q17 -54 47 -117q6 5 41.5 31t59 45.5t45.5 40.5l5 -5q-31 -31 -125 -144q-28 -32 -40 -32q-22 0 -25 32q-1 13 -3 44t-4.5 56.5t-6.5 46.5z" />
    <glyph glyph-name="Tcommaaccent" unicode="&#x162;" horiz-adv-x="572" 
d="M222 -99q0 -53 -73.5 -97.5t-151.5 -53.5l-1 7q62 7 120.5 42.5t58.5 82.5q0 27 -33 27q-34 0 -56 -12l-2 3l116 103h-13q-15 0 -36 -1.5t-31 -1.5h-28v8h11q29 0 44.5 11.5t28.5 43.5l234 609h-82q-28 0 -44 -7t-38 -33q-10 -11 -33 -39t-52.5 -62.5t-64.5 -73.5l-5 4
l145 251l5 -2q-10 -29 19 -29h100q6 0 36 -0.5t50 -0.5q18 0 44 0.5t32 0.5h93q39 0 44 30h6l-22 -252h-6q-16 128 -26 174q-5 24 -14 31.5t-34 7.5h-87l-234 -610q-7 -15 -7 -30q0 -24 32 -24h19v-8h-34q-12 0 -44 2l-57 -60q14 2 19 2q23 0 37.5 -12t14.5 -31z" />
    <glyph glyph-name="tcommaaccent" unicode="&#x163;" horiz-adv-x="269" 
d="M71 -99q0 -53 -73.5 -97.5t-151.5 -53.5l-1 7q62 7 120.5 42.5t58.5 82.5q0 27 -33 27q-34 0 -56 -12l-2 3l106 93q-35 7 -35 45q0 27 31 102l137 342h-69v8h72l25 64q63 15 91 76l5 -2l-56 -138h107v-8h-110l-141 -355q-3 -8 -12.5 -31.5t-15 -39t-5.5 -24.5
q0 -18 17 -18q31 0 113 111l6 -4q-94 -129 -152 -129l-47 -50q14 2 19 2q23 0 37.5 -12t14.5 -31z" />
    <glyph glyph-name="Tcaron" unicode="&#x164;" horiz-adv-x="572" 
d="M286 0h-34q-10 0 -30 1.5t-35 1.5t-36 -1.5t-31 -1.5h-28v8h11q29 0 44.5 11.5t28.5 43.5l234 609h-82q-28 0 -44 -7t-38 -33q-10 -11 -33 -39t-52.5 -62.5t-64.5 -73.5l-5 4l145 251l5 -2q-10 -29 19 -29h100q6 0 36 -0.5t50 -0.5q18 0 44 0.5t32 0.5h93q39 0 44 30h6
l-22 -252h-6q-16 128 -26 174q-5 24 -14 31.5t-34 7.5h-87l-234 -610q-7 -15 -7 -30q0 -24 32 -24h19v-8zM438 912l6 2q17 -54 47 -117q6 5 41.5 31t59 45.5t45.5 40.5l5 -5q-31 -31 -125 -144q-28 -32 -40 -32q-22 0 -25 32q-1 13 -3 44t-4.5 56.5t-6.5 46.5z" />
    <glyph glyph-name="tcaron" unicode="&#x165;" horiz-adv-x="269" 
d="M51 -8q-23 0 -35 13.5t-12 32.5q0 27 31 102l137 342h-69v8h72l25 64q63 15 91 76l5 -2l-56 -138h107v-8h-110l-141 -355q-3 -8 -12.5 -31.5t-15 -39t-5.5 -24.5q0 -18 17 -18q31 0 113 111l6 -4q-94 -129 -148 -129zM317 541l-6 3q22 43 51.5 125t34.5 93q7 18 27 18
q12 0 20 -8t8 -19t-6 -21q-8 -13 -57 -81.5t-72 -109.5z" />
    <glyph glyph-name="Tbar" unicode="&#x166;" horiz-adv-x="572" 
d="M286 0h-34q-10 0 -30 1.5t-35 1.5t-36 -1.5t-31 -1.5h-28v8h11q29 0 44.5 11.5t28.5 43.5l107 278h-116v9h119l124 322h-82q-28 0 -44 -7t-38 -33q-10 -11 -33 -39t-52.5 -62.5t-64.5 -73.5l-5 4l145 251l5 -2q-10 -29 19 -29h100q6 0 36 -0.5t50 -0.5q18 0 44 0.5
t32 0.5h93q39 0 44 30h6l-22 -252h-6q-16 128 -26 174q-5 24 -14 31.5t-34 7.5h-87l-124 -322h117l1 -9h-121l-107 -279q-7 -15 -7 -30q0 -24 32 -24h19v-8z" />
    <glyph glyph-name="tbar" unicode="&#x167;" horiz-adv-x="279" 
d="M284 334h-101l-82 -207q-3 -8 -12.5 -31.5t-15 -39t-5.5 -24.5q0 -18 17 -18q31 0 113 111l6 -4q-94 -129 -148 -129q-23 0 -35 13.5t-12 32.5q0 27 31 102l77 194h-62v8h65l57 140h-69v8h72l25 64q63 15 91 76l5 -2l-56 -138h107v-8h-110l-56 -140h98v-8z" />
    <glyph glyph-name="Utilde" unicode="&#x168;" horiz-adv-x="593" 
d="M216 -8q-77 0 -120 34.5t-43 97.5q0 46 30 123l143 372q7 18 7 30q0 24 -32 24h-19v8h34q10 0 30 -1.5t35 -1.5t35.5 1.5t31.5 1.5h28v-8h-10q-30 0 -46 -11.5t-28 -43.5l-142 -369q-34 -91 -34 -138q0 -49 29 -77t85 -28q79 0 142.5 55.5t105.5 163.5l125 321
q18 44 18 75q0 51 -49 52h-9v8h34q5 0 25 -1.5t35 -1.5q16 0 32.5 1.5t20.5 1.5h33v-8h-15q-40 0 -66.5 -35.5t-49.5 -93.5l-125 -323q-88 -229 -271 -229zM549 777q-21 0 -55 21.5t-61 21.5q-11 0 -23.5 -11t-18 -18.5t-17.5 -26.5l-6 4q2 3 13 21t17.5 26.5t18 21.5
t24.5 18.5t28 5.5q20 0 54.5 -21.5t61.5 -21.5q11 0 23.5 11t18 18.5t17.5 26.5l6 -4q-35 -59 -58 -77q-21 -16 -43 -16z" />
    <glyph glyph-name="utilde" unicode="&#x169;" horiz-adv-x="529" 
d="M327 -8q-23 0 -35 13.5t-12 32.5q0 28 30 98l137 324l-220 -307q-65 -92 -100.5 -126.5t-69.5 -34.5q-22 0 -33.5 13.5t-11.5 32.5q0 34 34 104l109 223q35 75 35 93t-16 18q-29 0 -114 -111l-6 4q94 129 148 129q23 0 35 -13.5t12 -32.5q0 -31 -32 -97l-104 -212
q-42 -86 -42 -109q0 -20 17 -20q30 0 133 144l238 332q5 0 16 -1t17 -1t17 1t16 1l-152 -365q-4 -10 -13.5 -32t-15 -37.5t-5.5 -23.5q0 -18 16 -18q32 0 115 111l6 -4q-93 -129 -149 -129zM426 588q-20 0 -55 21.5t-61 21.5q-11 0 -23.5 -11t-18 -18.5t-17.5 -26.5l-6 4
q2 3 13 21t17.5 26.5t18 21.5t24.5 18.5t28 5.5q20 0 55 -21.5t61 -21.5q11 0 23.5 11t18 18.5t17.5 26.5l6 -4q-35 -59 -58 -77q-21 -16 -43 -16z" />
    <glyph glyph-name="Umacron" unicode="&#x16a;" horiz-adv-x="593" 
d="M216 -8q-77 0 -120 34.5t-43 97.5q0 46 30 123l143 372q7 18 7 30q0 24 -32 24h-19v8h34q10 0 30 -1.5t35 -1.5t35.5 1.5t31.5 1.5h28v-8h-10q-30 0 -46 -11.5t-28 -43.5l-142 -369q-34 -91 -34 -138q0 -49 29 -77t85 -28q79 0 142.5 55.5t105.5 163.5l125 321
q18 44 18 75q0 51 -49 52h-9v8h34q5 0 25 -1.5t35 -1.5q16 0 32.5 1.5t20.5 1.5h33v-8h-15q-40 0 -66.5 -35.5t-49.5 -93.5l-125 -323q-88 -229 -271 -229zM616 797h-225v22h225v-22z" />
    <glyph glyph-name="umacron" unicode="&#x16b;" horiz-adv-x="529" 
d="M327 -8q-23 0 -35 13.5t-12 32.5q0 28 30 98l137 324l-220 -307q-65 -92 -100.5 -126.5t-69.5 -34.5q-22 0 -33.5 13.5t-11.5 32.5q0 34 34 104l109 223q35 75 35 93t-16 18q-29 0 -114 -111l-6 4q94 129 148 129q23 0 35 -13.5t12 -32.5q0 -31 -32 -97l-104 -212
q-42 -86 -42 -109q0 -20 17 -20q30 0 133 144l238 332q5 0 16 -1t17 -1t17 1t16 1l-152 -365q-4 -10 -13.5 -32t-15 -37.5t-5.5 -23.5q0 -18 16 -18q32 0 115 111l6 -4q-93 -129 -149 -129zM493 608h-225v22h225v-22z" />
    <glyph glyph-name="Ubreve" unicode="&#x16c;" horiz-adv-x="593" 
d="M216 -8q-77 0 -120 34.5t-43 97.5q0 46 30 123l143 372q7 18 7 30q0 24 -32 24h-19v8h34q10 0 30 -1.5t35 -1.5t35.5 1.5t31.5 1.5h28v-8h-10q-30 0 -46 -11.5t-28 -43.5l-142 -369q-34 -91 -34 -138q0 -49 29 -77t85 -28q79 0 142.5 55.5t105.5 163.5l125 321
q18 44 18 75q0 51 -49 52h-9v8h34q5 0 25 -1.5t35 -1.5q16 0 32.5 1.5t20.5 1.5h33v-8h-15q-40 0 -66.5 -35.5t-49.5 -93.5l-125 -323q-88 -229 -271 -229zM487 758q-37 0 -55.5 36t-18.5 81l6 1q5 -67 85 -67q85 0 136 68l5 -4q-40 -53 -77.5 -84t-80.5 -31z" />
    <glyph glyph-name="ubreve" unicode="&#x16d;" horiz-adv-x="529" 
d="M327 -8q-23 0 -35 13.5t-12 32.5q0 28 30 98l137 324l-220 -307q-65 -92 -100.5 -126.5t-69.5 -34.5q-22 0 -33.5 13.5t-11.5 32.5q0 34 34 104l109 223q35 75 35 93t-16 18q-29 0 -114 -111l-6 4q94 129 148 129q23 0 35 -13.5t12 -32.5q0 -31 -32 -97l-104 -212
q-42 -86 -42 -109q0 -20 17 -20q30 0 133 144l238 332q5 0 16 -1t17 -1t17 1t16 1l-152 -365q-4 -10 -13.5 -32t-15 -37.5t-5.5 -23.5q0 -18 16 -18q32 0 115 111l6 -4q-93 -129 -149 -129zM364 569q-37 0 -55.5 36t-18.5 81l6 1q5 -67 85 -67q85 0 136 68l5 -4
q-40 -53 -77.5 -84t-80.5 -31z" />
    <glyph glyph-name="Uring" unicode="&#x16e;" horiz-adv-x="593" 
d="M216 -8q-77 0 -120 34.5t-43 97.5q0 46 30 123l143 372q7 18 7 30q0 24 -32 24h-19v8h34q10 0 30 -1.5t35 -1.5t35.5 1.5t31.5 1.5h28v-8h-10q-30 0 -46 -11.5t-28 -43.5l-142 -369q-34 -91 -34 -138q0 -49 29 -77t85 -28q79 0 142.5 55.5t105.5 163.5l125 321
q18 44 18 75q0 51 -49 52h-9v8h34q5 0 25 -1.5t35 -1.5q16 0 32.5 1.5t20.5 1.5h33v-8h-15q-40 0 -66.5 -35.5t-49.5 -93.5l-125 -323q-88 -229 -271 -229zM595 828q0 -36 -24 -61t-60 -25t-60 25t-24 61t24 61t60 25t60 -25t24 -61zM586 828q0 32 -21.5 54.5t-53.5 22.5
t-53.5 -22.5t-21.5 -54.5t21.5 -54.5t53.5 -22.5t53.5 22.5t21.5 54.5z" />
    <glyph glyph-name="uring" unicode="&#x16f;" horiz-adv-x="529" 
d="M327 -8q-23 0 -35 13.5t-12 32.5q0 28 30 98l137 324l-220 -307q-65 -92 -100.5 -126.5t-69.5 -34.5q-22 0 -33.5 13.5t-11.5 32.5q0 34 34 104l109 223q35 75 35 93t-16 18q-29 0 -114 -111l-6 4q94 129 148 129q23 0 35 -13.5t12 -32.5q0 -31 -32 -97l-104 -212
q-42 -86 -42 -109q0 -20 17 -20q30 0 133 144l238 332q5 0 16 -1t17 -1t17 1t16 1l-152 -365q-4 -10 -13.5 -32t-15 -37.5t-5.5 -23.5q0 -18 16 -18q32 0 115 111l6 -4q-93 -129 -149 -129zM472 639q0 -36 -24 -61t-60 -25t-60 25t-24 61t24 61t60 25t60 -25t24 -61z
M463 639q0 32 -21.5 54.5t-53.5 22.5t-53.5 -22.5t-21.5 -54.5t21.5 -54.5t53.5 -22.5t53.5 22.5t21.5 54.5z" />
    <glyph glyph-name="Uhungarumlaut" unicode="&#x170;" horiz-adv-x="593" 
d="M216 -8q-77 0 -120 34.5t-43 97.5q0 46 30 123l143 372q7 18 7 30q0 24 -32 24h-19v8h34q10 0 30 -1.5t35 -1.5t35.5 1.5t31.5 1.5h28v-8h-10q-30 0 -46 -11.5t-28 -43.5l-142 -369q-34 -91 -34 -138q0 -49 29 -77t85 -28q79 0 142.5 55.5t105.5 163.5l125 321
q18 44 18 75q0 51 -49 52h-9v8h34q5 0 25 -1.5t35 -1.5q16 0 32.5 1.5t20.5 1.5h33v-8h-15q-40 0 -66.5 -35.5t-49.5 -93.5l-125 -323q-88 -229 -271 -229zM402 731l-5 5q34 36 76 95t53 70t21 11t18 -7.5t8 -18.5q0 -10 -9 -20q-10 -11 -69 -55.5t-93 -79.5zM509 731l-5 5
q34 36 76 95t53 70t21 11t18 -7.5t8 -18.5q0 -10 -9 -20q-10 -11 -69 -55.5t-93 -79.5z" />
    <glyph glyph-name="uhungarumlaut" unicode="&#x171;" horiz-adv-x="529" 
d="M327 -8q-23 0 -35 13.5t-12 32.5q0 28 30 98l137 324l-220 -307q-65 -92 -100.5 -126.5t-69.5 -34.5q-22 0 -33.5 13.5t-11.5 32.5q0 34 34 104l109 223q35 75 35 93t-16 18q-29 0 -114 -111l-6 4q94 129 148 129q23 0 35 -13.5t12 -32.5q0 -31 -32 -97l-104 -212
q-42 -86 -42 -109q0 -20 17 -20q30 0 133 144l238 332q5 0 16 -1t17 -1t17 1t16 1l-152 -365q-4 -10 -13.5 -32t-15 -37.5t-5.5 -23.5q0 -18 16 -18q32 0 115 111l6 -4q-93 -129 -149 -129zM279 542l-5 5q34 36 76 95t53 70t21 11t18 -7.5t8 -18.5q0 -9 -9 -20
q-10 -11 -69 -55.5t-93 -79.5zM386 542l-5 5q34 36 76 95t53 70t21 11t18 -7.5t8 -18.5q0 -9 -9 -20q-10 -11 -69 -55.5t-93 -79.5z" />
    <glyph glyph-name="Uogonek" unicode="&#x172;" horiz-adv-x="593" 
d="M142 -178q-26 0 -40.5 12.5t-14.5 32.5q0 38 49.5 74.5t99.5 51.5q-7 -1 -20 -1q-77 0 -120 34.5t-43 97.5q0 46 30 123l143 372q7 18 7 30q0 24 -32 24h-19v8h34q10 0 30 -1.5t35 -1.5t35.5 1.5t31.5 1.5h28v-8h-10q-30 0 -46 -11.5t-28 -43.5l-142 -369
q-34 -91 -34 -138q0 -49 29 -77t85 -28q79 0 142.5 55.5t105.5 163.5l125 321q18 44 18 75q0 51 -49 52h-9v8h34q5 0 25 -1.5t35 -1.5q16 0 32.5 1.5t20.5 1.5h33v-8h-15q-40 0 -66.5 -35.5t-49.5 -93.5l-125 -323q-39 -100 -94 -153.5t-133 -74.5q-42 -11 -78.5 -42.5
t-36.5 -66.5q0 -17 10 -27.5t28 -10.5q36 0 82 40l4 -5q-64 -59 -127 -59z" />
    <glyph glyph-name="uogonek" unicode="&#x173;" horiz-adv-x="529" 
d="M181 -133q0 62 146 125q-23 0 -35 13.5t-12 32.5q0 28 30 98l137 324l-220 -307q-65 -92 -100.5 -126.5t-69.5 -34.5q-22 0 -33.5 13.5t-11.5 32.5q0 34 34 104l109 223q35 75 35 93t-16 18q-29 0 -114 -111l-6 4q94 129 148 129q23 0 35 -13.5t12 -32.5q0 -31 -32 -97
l-104 -212q-42 -86 -42 -109q0 -20 17 -20q30 0 133 144l238 332q5 0 16 -1t17 -1t17 1t16 1l-152 -365q-4 -10 -13.5 -32t-15 -37.5t-5.5 -23.5q0 -18 16 -18q32 0 115 111l6 -4q-76 -105 -127 -126q-110 -49 -110 -111q0 -17 10 -27.5t28 -10.5q36 0 82 40l4 -5
q-64 -59 -127 -59q-26 0 -40.5 12.5t-14.5 32.5z" />
    <glyph glyph-name="Wcircumflex" unicode="&#x174;" horiz-adv-x="907" 
d="M602 78l-1 -78q-9 0 -18 1t-14 1q-6 0 -15.5 -1t-16.5 -1l19 521l-307 -443l-1 -78q-8 0 -17 1t-15 1t-15.5 -1t-16.5 -1l22 616q4 57 -53 57h-3v8h30q6 0 27.5 -1.5t36.5 -1.5q16 0 42 1.5t31 1.5h20v-8h-11q-54 -2 -58 -58l-20 -524l308 447l3 78q4 57 -53 57h-3v8h30
q6 0 28 -1.5t37 -1.5q17 0 42.5 1.5t29.5 1.5h20v-8h-11q-54 -2 -58 -59l-20 -523l319 464q37 51 38 75q0 43 -48 43h-11v8h24q11 0 36 -1.5t35 -1.5q8 0 35 1.5t34 1.5h19v-8h-7q-61 0 -147 -123zM715 732l-6 -2q-17 54 -47 117q-6 -5 -41.5 -31t-59 -45.5t-45.5 -40.5
l-5 5q31 31 125 144q28 32 40 32q22 0 25 -32q1 -13 3 -44t4.5 -56.5t6.5 -46.5z" />
    <glyph glyph-name="wcircumflex" unicode="&#x175;" horiz-adv-x="644" 
d="M322 -9q-57 0 -62 75q-33 -33 -76 -54t-79 -21q-27 0 -46 15t-19 45q0 33 22 80.5t46 83t61 86t46 64.5l42 63q-12 -9 -39 -9q-16 0 -52 12t-48 12q-17 0 -26 -10.5t-9 -23.5q0 -12 7 -32.5t7 -30.5q0 -15 -7.5 -23.5t-18.5 -8.5q-26 0 -26 33q0 32 41 87q44 57 77 57
q12 0 47 -10.5t57 -10.5q4 0 7.5 0.5t6.5 2t4.5 2.5t4 4t4 5t4.5 7t5 7l5 -3l-86 -133q-109 -174 -109 -272q0 -24 14 -38.5t35 -14.5q53 0 97 39q4 69 36 166.5t77.5 172.5t81.5 75q25 0 25 -35q0 -56 -45.5 -155.5t-119.5 -180.5q4 -47 17.5 -65.5t40.5 -18.5
q46 0 101.5 52t92.5 124.5t37 127.5q0 40 -10.5 77t-10.5 48q0 34 27 34q31 0 31 -66q0 -88 -49.5 -191.5t-125 -175.5t-143.5 -74zM438 418q0 30 -19 30q-14 0 -32.5 -26t-35 -67.5t-27.5 -101t-11 -119.5v-6q61 67 93 144t32 146zM543 543l-6 -2q-17 54 -47 117
q-6 -5 -41.5 -31t-59 -45.5t-45.5 -40.5l-5 5q31 31 125 144q28 32 40 32q22 0 25 -32q1 -13 3 -44t4.5 -56.5t6.5 -46.5z" />
    <glyph glyph-name="Ycircumflex" unicode="&#x176;" horiz-adv-x="561" 
d="M283 0h-34q-9 0 -29 1.5t-36 1.5q-15 0 -35.5 -1.5t-30.5 -1.5h-28v8h11q29 0 44.5 11.5t28.5 43.5l100 261l-65 303q-6 27 -18 36.5t-39 9.5h-10v8h42q4 0 24 -1.5t36 -1.5t36 1.5t24 1.5h34v-8h-10q-54 0 -54 -34q0 -14 3 -27l59 -280l208 227q48 52 55 69q3 8 3 15
q0 30 -35 30h-9v8h18q17 0 39.5 -1.5t31.5 -1.5q11 0 36 1.5t32 1.5h25v-8h-8q-66 0 -182 -122l-213 -233l-98 -256q-7 -18 -7 -30q0 -24 32 -24h19v-8zM555 732l-6 -2q-17 54 -47 117q-6 -5 -41.5 -31t-59 -45.5t-45.5 -40.5l-5 5q31 31 125 144q28 32 40 32q22 0 25 -32
q1 -13 3 -44t4.5 -56.5t6.5 -46.5z" />
    <glyph glyph-name="ycircumflex" unicode="&#x177;" horiz-adv-x="428" 
d="M197 64l-7 -64q-6 0 -15 1t-15 1q-4 0 -11 -1t-10 -1l-21 -22q-83 -88 -178 -151t-168 -63q-42 0 -42 27t35 27q11 0 38 -9t50 -9q36 0 112.5 55.5t146.5 128.5l17 18q24 181 24 358q0 28 -0.5 42t-3 32t-9.5 25.5t-18 7.5q-14 0 -34.5 -26.5t-59.5 -89.5l-6 4
q29 47 45 71t42.5 48t48.5 24q20 0 32.5 -11t17.5 -33t6 -39.5t1 -46.5q0 -130 -17 -291q114 130 155.5 199.5t41.5 128.5q0 6 -2.5 27t-2.5 29q0 37 28 37t28 -31q0 -52 -58 -153.5t-191 -249.5zM396 543l-6 -2q-17 54 -47 117q-6 -5 -41.5 -31t-59 -45.5t-45.5 -40.5l-5 5
q31 31 125 144q28 32 40 32q22 0 25 -32q1 -13 3 -44t4.5 -56.5t6.5 -46.5z" />
    <glyph glyph-name="Ydieresis" unicode="&#x178;" horiz-adv-x="561" 
d="M283 0h-34q-9 0 -29 1.5t-36 1.5q-15 0 -35.5 -1.5t-30.5 -1.5h-28v8h11q29 0 44.5 11.5t28.5 43.5l100 261l-65 303q-6 27 -18 36.5t-39 9.5h-10v8h42q4 0 24 -1.5t36 -1.5t36 1.5t24 1.5h34v-8h-10q-54 0 -54 -34q0 -14 3 -27l59 -280l208 227q48 52 55 69q3 8 3 15
q0 30 -35 30h-9v8h18q17 0 39.5 -1.5t31.5 -1.5q11 0 36 1.5t32 1.5h25v-8h-8q-66 0 -182 -122l-213 -233l-98 -256q-7 -18 -7 -30q0 -24 32 -24h19v-8zM399 765q-18 0 -30 11.5t-12 30.5t12 31t30 12t30.5 -12t12.5 -31q0 -18 -12.5 -30t-30.5 -12zM569 765q-18 0 -30 11.5
t-12 30.5t12 31t30 12t30.5 -12t12.5 -31q0 -18 -12.5 -30t-30.5 -12z" />
    <glyph glyph-name="Zacute" unicode="&#x179;" horiz-adv-x="557" 
d="M356 -32l-5 2q9 30 -19 30h-390v4l643 669h-186q-31 0 -54.5 -12t-56.5 -45q-59 -59 -138 -144l-5 4l146 237l5 -2q-8 -30 19 -30h355v-4l-644 -669h220q31 0 54 11t56 44q70 70 149 159l5 -4zM447 731l-5 5q34 36 74 93.5t52 70.5q10 12 25 12q10 0 18 -7.5t8 -19.5
q0 -13 -10 -23q-11 -12 -69.5 -53.5t-92.5 -77.5z" />
    <glyph glyph-name="zacute" unicode="&#x17a;" horiz-adv-x="401" 
d="M253 -7q-32 0 -75.5 28t-81.5 56t-59 28q-16 0 -25 -11t-9 -27q0 -12 0.5 -22t0.5 -19q0 -33 -27 -33t-27 27q0 15 12 32t24 28t36 30l332 268q-29 0 -93 26.5t-103 26.5q-49 0 -49 -49q0 -37 29 -76l-6 -4q-36 51 -36 104q0 37 18 64t54 27q29 0 65 -28t68 -56t52 -28
q16 0 25.5 11t9.5 26q0 12 -0.5 22t-0.5 19q0 15 7.5 24.5t20.5 9.5q26 0 26 -28q0 -14 -13 -32t-24 -28t-35 -29l-332 -268q40 0 110.5 -26.5t110.5 -26.5q55 0 55 48q0 38 -29 77l6 4q36 -50 36 -105q0 -42 -20 -66t-53 -24zM255 542l-5 5q34 36 74 93.5t52 70.5
q10 12 25 12q10 0 18 -7.5t8 -19.5q0 -13 -10 -23q-11 -12 -69.5 -53.5t-92.5 -77.5z" />
    <glyph glyph-name="Zdotaccent" unicode="&#x17b;" horiz-adv-x="557" 
d="M356 -32l-5 2q9 30 -19 30h-390v4l643 669h-186q-31 0 -54.5 -12t-56.5 -45q-59 -59 -138 -144l-5 4l146 237l5 -2q-8 -30 19 -30h355v-4l-644 -669h220q31 0 54 11t56 44q70 70 149 159l5 -4zM459 803q0 21 14 35t34 14t34.5 -14t14.5 -35t-14 -34.5t-35 -13.5
q-20 0 -34 13.5t-14 34.5z" />
    <glyph glyph-name="zdotaccent" unicode="&#x17c;" horiz-adv-x="401" 
d="M253 -7q-32 0 -75.5 28t-81.5 56t-59 28q-16 0 -25 -11t-9 -27q0 -12 0.5 -22t0.5 -19q0 -33 -27 -33t-27 27q0 15 12 32t24 28t36 30l332 268q-29 0 -93 26.5t-103 26.5q-49 0 -49 -49q0 -37 29 -76l-6 -4q-36 51 -36 104q0 37 18 64t54 27q29 0 65 -28t68 -56t52 -28
q16 0 25.5 11t9.5 26q0 12 -0.5 22t-0.5 19q0 15 7.5 24.5t20.5 9.5q26 0 26 -28q0 -14 -13 -32t-24 -28t-35 -29l-332 -268q40 0 110.5 -26.5t110.5 -26.5q55 0 55 48q0 38 -29 77l6 4q36 -50 36 -105q0 -42 -20 -66t-53 -24zM271 624q0 21 14 35t34 14t34.5 -14t14.5 -35
t-14 -34.5t-35 -13.5q-20 0 -34 13.5t-14 34.5z" />
    <glyph glyph-name="Zcaron" unicode="&#x17d;" horiz-adv-x="557" 
d="M356 -32l-5 2q9 30 -19 30h-390v4l643 669h-186q-31 0 -54.5 -12t-56.5 -45q-59 -59 -138 -144l-5 4l146 237l5 -2q-8 -30 19 -30h355v-4l-644 -669h220q31 0 54 11t56 44q70 70 149 159l5 -4zM442 912l6 2q17 -54 47 -117q6 5 41.5 31t59 45.5t45.5 40.5l5 -5
q-31 -31 -125 -144q-28 -32 -40 -32q-22 0 -25 32q-1 13 -3 44t-4.5 56.5t-6.5 46.5z" />
    <glyph glyph-name="zcaron" unicode="&#x17e;" horiz-adv-x="401" 
d="M253 -7q-32 0 -75.5 28t-81.5 56t-59 28q-16 0 -25 -11t-9 -27q0 -12 0.5 -22t0.5 -19q0 -33 -27 -33t-27 27q0 15 12 32t24 28t36 30l332 268q-29 0 -93 26.5t-103 26.5q-49 0 -49 -49q0 -37 29 -76l-6 -4q-36 51 -36 104q0 37 18 64t54 27q29 0 65 -28t68 -56t52 -28
q16 0 25.5 11t9.5 26q0 12 -0.5 22t-0.5 19q0 15 7.5 24.5t20.5 9.5q26 0 26 -28q0 -14 -13 -32t-24 -28t-35 -29l-332 -268q40 0 110.5 -26.5t110.5 -26.5q55 0 55 48q0 38 -29 77l6 4q36 -50 36 -105q0 -42 -20 -66t-53 -24zM258 723l6 2q17 -54 47 -117q6 5 41.5 31
t59 45.5t45.5 40.5l5 -5q-31 -31 -125 -144q-28 -32 -40 -32q-22 0 -25 32q-1 13 -3 44t-4.5 56.5t-6.5 46.5z" />
    <glyph glyph-name="florin" unicode="&#x192;" horiz-adv-x="406" 
d="M55 326v9h107l27 82q40 121 127 201.5t201 80.5q15 0 25 -7.5t10 -19.5q0 -27 -35 -27q-11 0 -43 8t-49 8q-50 0 -78.5 -32t-68.5 -131l-55 -163h105v-9h-108l-67 -203q-56 -170 -161.5 -264.5t-199.5 -94.5q-15 0 -25 7.5t-10 19.5q0 27 35 27q11 0 43 -8t49 -8
q48 0 96.5 66t86.5 181l92 277h-104z" />
    <glyph glyph-name="uni01B5" unicode="&#x1b5;" horiz-adv-x="557" 
d="M356 -32l-5 2q9 30 -19 30h-390v4l324 337h-129v9h137l311 323h-186q-31 0 -54.5 -12t-56.5 -45q-59 -59 -138 -144l-5 4l146 237l5 -2q-8 -30 19 -30h355v-4l-315 -327h122v-9h-131l-320 -333h220q31 0 54 11t56 44q70 70 149 159l5 -4z" />
    <glyph glyph-name="uni01B6" unicode="&#x1b6;" horiz-adv-x="401" 
d="M253 -7q-32 0 -75.5 28t-81.5 56t-59 28q-16 0 -25 -11t-9 -27q0 -12 0.5 -22t0.5 -19q0 -33 -27 -33t-27 27q0 15 12 32t24 28t36 30l166 134h-107v8h117l156 126q-29 0 -93 26.5t-103 26.5q-49 0 -49 -49q0 -37 29 -76l-6 -4q-36 51 -36 104q0 37 18 64t54 27
q29 0 65 -28t68 -56t52 -28q16 0 25.5 11t9.5 26q0 12 -0.5 22t-0.5 19q0 15 7.5 24.5t20.5 9.5q26 0 26 -28q0 -14 -13 -32t-24 -28t-35 -29l-158 -128h107v-8h-117l-164 -132q40 0 110.5 -26.5t110.5 -26.5q55 0 55 48q0 38 -29 77l6 4q36 -50 36 -105q0 -42 -20 -66
t-53 -24z" />
    <glyph glyph-name="Aringacute" unicode="&#x1fa;" horiz-adv-x="592" 
d="M512 0h-30q-6 0 -27 1.5t-36 1.5q-17 0 -43 -1.5t-30 -1.5h-20v8h11q25 1 40.5 16.5t16.5 41.5l2 123h-297l-50 -67q-34 -45 -35 -71q0 -43 48 -43h11v-8h-24q-11 0 -36 1.5t-35 1.5q-8 0 -35 -1.5t-34 -1.5h-19v8h7q31 0 64 28t80 91l358 476l-2 78q8 0 18.5 -1t16.5 -1
t15.5 1t16.5 1l-7 -616q0 -31 12 -44t40 -13h3v-8zM396 198l4 392l-294 -392h290zM558 828q0 -36 -24 -61t-60 -25t-60 25t-24 61q0 38 30 68q34 35 71 84.5t48 60.5q11 12 25 12q12 0 19 -8t7 -20t-10 -22q-12 -13 -60.5 -42.5t-75.5 -52.5q14 6 30 6q36 0 60 -25t24 -61z
M549 828q0 32 -21.5 54.5t-53.5 22.5t-53.5 -22.5t-21.5 -54.5t21.5 -54.5t53.5 -22.5t53.5 22.5t21.5 54.5z" />
    <glyph glyph-name="aringacute" unicode="&#x1fb;" horiz-adv-x="502" 
d="M306 -8q-23 0 -35 13.5t-12 32.5q0 22 30 98l97 255l-179 -269q-45 -68 -77.5 -99t-65.5 -31q-25 0 -42.5 15.5t-17.5 50.5q0 43 24.5 116t63 145.5t93 125.5t106.5 53q63 0 109 -76q37 14 54 29.5t33 46.5l6 -2l-143 -371q-3 -8 -12.5 -31.5t-14.5 -38.5t-5 -23
q0 -18 17 -18q28 0 113 111l6 -4q-94 -129 -148 -129zM95 14q28 0 106 113l193 289q-16 28 -41.5 50t-49.5 22q-50 0 -106.5 -90t-90 -192.5t-33.5 -154.5q0 -37 22 -37zM473 639q0 -36 -24 -61t-60 -25t-60 25t-24 61q0 38 30 68q34 35 71 84.5t48 60.5q10 12 25 12
q12 0 19 -8t7 -20t-10 -22q-12 -13 -60.5 -42.5t-75.5 -52.5q13 6 30 6q36 0 60 -25t24 -61zM464 639q0 32 -21.5 54.5t-53.5 22.5t-53.5 -22.5t-21.5 -54.5t21.5 -54.5t53.5 -22.5t53.5 22.5t21.5 54.5z" />
    <glyph glyph-name="AEacute" unicode="&#x1fc;" horiz-adv-x="939" 
d="M723 681h203q37 0 41 30h6l9 -231l-6 -1q-27 106 -46 153q-9 23 -20 31.5t-37 8.5h-183l-125 -322h123q42 0 72 34t61 99l7 -2l-108 -280l-7 2q18 52 18 85q0 53 -46 53h-123l-127 -332h194q33 0 54 10t55 43q56 53 140 147l5 -4l-145 -237l-6 2q6 12 1.5 21t-18.5 9
h-251q-11 0 -30 0.5t-34 0.5q-14 0 -35.5 -0.5t-31.5 -0.5h-28v8h11q30 0 45.5 11.5t27.5 43.5l48 126h-304l-81 -77l-7.5 -7.5l-9 -9t-8.5 -9t-8.5 -10t-7 -9.5t-6.5 -10.5t-3.5 -9.5t-1.5 -10q0 -29 41 -29h3v-8h-14q-11 0 -39.5 1.5t-40.5 1.5q-9 0 -37 -1.5t-35 -1.5
h-23v8h4q68 0 186 111l545 507q19 18 19 30q0 17 -31 17h-19v8h35q10 0 29.5 -0.5t35.5 -0.5q15 0 34.5 0.5t29.5 0.5zM441 198l165 429l-464 -429h299zM752 733l-5 5q34 36 74 93.5t52 70.5q11 12 25 12q10 0 18 -7.5t8 -19.5q0 -13 -10 -23q-11 -12 -69.5 -53.5
t-92.5 -77.5z" />
    <glyph glyph-name="aeacute" unicode="&#x1fd;" horiz-adv-x="657" 
d="M292 498q34 0 68.5 -25t51.5 -56q79 81 160 81q42 0 69.5 -18t27.5 -48q0 -39 -51 -81t-120.5 -69t-129.5 -33q-18 -60 -18 -114q0 -105 64 -105q72 0 170 128l5 -4q-118 -162 -210 -162q-44 0 -71 35.5t-27 90.5q0 72 40 164l-121 -171q-47 -66 -77.5 -92.5t-57.5 -26.5
q-29 0 -45 17t-16 47q0 45 24.5 118.5t63 146t93.5 125t107 52.5zM194 116l162 230q34 49 50 65q-14 28 -46 52.5t-57 24.5q-51 0 -107.5 -91.5t-89.5 -194t-33 -151.5q0 -37 22 -37q28 0 99 102zM574 491q-63 0 -118 -69t-85 -165q98 10 169.5 68t71.5 126q0 40 -38 40z
M421 542l-5 5q34 36 74 93.5t52 70.5q10 12 25 12q10 0 18 -7.5t8 -19.5q0 -13 -10 -23q-11 -12 -69.5 -53.5t-92.5 -77.5z" />
    <glyph glyph-name="Oslashacute" unicode="&#x1fe;" horiz-adv-x="627" 
d="M226 -10q-87 0 -136 77l-117 -122l-6 6l118 123q-29 53 -29 126t30 157.5t81 159.5t130 124.5t167 49.5q89 0 138 -80l120 125l6 -6l-122 -126q29 -50 29 -123t-30 -157.5t-81 -159.5t-130.5 -124.5t-167.5 -49.5zM106 132q0 -27 2 -34l473 492q-17 93 -120 93
q-63 0 -122 -45.5t-100 -114t-72 -146t-46 -142.5t-15 -103zM230 -2q63 0 122 45.5t100 114t72 146t46 142.5t15 103q0 12 -2 30l-473 -491q18 -90 120 -90zM460 731l-5 5q34 36 74 93.5t52 70.5q11 12 25 12q10 0 18 -7.5t8 -19.5q0 -13 -10 -23q-11 -12 -69.5 -53.5
t-92.5 -77.5z" />
    <glyph glyph-name="oslashacute" unicode="&#x1ff;" horiz-adv-x="442" 
d="M506 536l-99 -103q17 -31 17 -77q0 -45 -21 -105.5t-57 -119t-94 -99t-123 -40.5q-58 0 -91 58l-96 -100l-6 6l98 102q-16 31 -16 76t21 105.5t57 119t94 99t123 40.5q24 0 49 -14.5t41 -42.5l97 101zM129 -1q88 0 174 175q60 122 69 222l-303 -314v-9q0 -74 60 -74z
M313 491q-60 0 -122 -86q-46 -66 -80.5 -155.5t-40.5 -153.5l303 314v7q0 74 -60 74zM310 542l-5 5q34 36 74 93.5t52 70.5q11 12 25 12q10 0 18 -7.5t8 -19.5q0 -13 -10 -23q-11 -12 -69.5 -53.5t-92.5 -77.5z" />
    <glyph glyph-name="Scommaaccent" unicode="&#x218;" horiz-adv-x="512" 
d="M222 -10q-31 0 -82.5 15t-60.5 15q-26 0 -26 -30l-6 -1l-32 236l6 1q65 -228 201 -228q70 0 110.5 38t40.5 108t-91 174l-28 32q-71 79 -71 161q0 75 53 127.5t125 52.5q23 0 63 -9.5t48 -9.5q25 0 23 31l6 1l41 -211l-6 -2q-57 192 -175 192q-57 0 -94.5 -36t-37.5 -88
q0 -78 73 -161l29 -33q33 -38 49.5 -59.5t31.5 -54t15 -62.5q0 -85 -62.5 -142t-142.5 -57zM182 -155q-18 0 -30 12.5t-12 30.5t12.5 31t32.5 13q21 0 34 -13t13 -36q0 -49 -35.5 -82.5t-79.5 -40.5l-1 6q39 5 69.5 33t37.5 67q-13 -21 -41 -21z" />
    <glyph glyph-name="scommaaccent" unicode="&#x219;" horiz-adv-x="362" 
d="M121 -8q-64 0 -103.5 34.5t-39.5 77.5q0 12 8 19.5t18 7.5q22 0 28 -31q10 -55 31 -78t63 -23q45 0 75 31t30 68q0 52 -47 109l-31 38q-54 67 -54 113q0 62 42.5 101t93.5 39q50 0 88.5 -28t38.5 -57q0 -11 -8 -18.5t-18 -7.5q-24 0 -30 31q-7 38 -24 55.5t-49 17.5
q-36 0 -62.5 -23t-26.5 -64q0 -45 56 -116l35 -42q42 -48 42 -105q0 -65 -47.5 -107t-108.5 -42zM75 -155q-18 0 -30 12.5t-12 30.5t12.5 31t32.5 13q21 0 34 -13t13 -36q0 -49 -35.5 -82.5t-79.5 -40.5l-1 6q39 5 69.5 33t37.5 67q-13 -21 -41 -21z" />
    <glyph glyph-name="uni021A" unicode="&#x21a;" horiz-adv-x="572" 
d="M286 0h-34q-10 0 -30 1.5t-35 1.5t-36 -1.5t-31 -1.5h-28v8h11q29 0 44.5 11.5t28.5 43.5l234 609h-82q-28 0 -44 -7t-38 -33q-10 -11 -33 -39t-52.5 -62.5t-64.5 -73.5l-5 4l145 251l5 -2q-10 -29 19 -29h100q6 0 36 -0.5t50 -0.5q18 0 44 0.5t32 0.5h93q39 0 44 30h6
l-22 -252h-6q-16 128 -26 174q-5 24 -14 31.5t-34 7.5h-87l-234 -610q-7 -15 -7 -30q0 -24 32 -24h19v-8zM141 -155q-18 0 -30 12.5t-12 30.5t12.5 31t32.5 13q21 0 34 -13t13 -36q0 -49 -35.5 -82.5t-79.5 -40.5l-1 6q39 5 69.5 33t37.5 67q-13 -21 -41 -21z" />
    <glyph glyph-name="uni021B" unicode="&#x21b;" horiz-adv-x="269" 
d="M51 -8q-23 0 -35 13.5t-12 32.5q0 27 31 102l137 342h-69v8h72l25 64q63 15 91 76l5 -2l-56 -138h107v-8h-110l-141 -355q-3 -8 -12.5 -31.5t-15 -39t-5.5 -24.5q0 -18 17 -18q31 0 113 111l6 -4q-94 -129 -148 -129zM-6 -155q-18 0 -30 12.5t-12 30.5t12.5 31t32.5 13
q21 0 34 -13t13 -36q0 -49 -35.5 -82.5t-79.5 -40.5l-1 6q39 5 69.5 33t37.5 67q-13 -21 -41 -21z" />
    <glyph glyph-name="dotlessj" unicode="&#x237;" horiz-adv-x="256" 
d="M245 452q0 -23 -28 -98l-90 -236q-44 -115 -108 -197.5t-128.5 -119.5t-125.5 -37q-15 0 -25 7.5t-10 19.5q0 27 35 27q11 0 43 -8t49 -8q93 0 183 247l114 316q2 5 12 30.5t14.5 40t4.5 22.5q0 18 -17 18q-30 0 -114 -111l-6 4q93 129 149 129q23 0 35.5 -13.5
t12.5 -32.5z" />
    <glyph glyph-name="circumflex" unicode="&#x2c6;" horiz-adv-x="309" 
d="M375 543l-6 -2q-17 54 -47 117q-6 -5 -41.5 -31t-59 -45.5t-45.5 -40.5l-5 5q31 31 125 144q28 32 40 32q22 0 25 -32q1 -13 3 -44t4.5 -56.5t6.5 -46.5z" />
    <glyph glyph-name="caron" unicode="&#x2c7;" horiz-adv-x="309" 
d="M239 723l6 2q17 -54 47 -117q6 5 41.5 31t59 45.5t45.5 40.5l5 -5q-31 -31 -125 -144q-28 -32 -40 -32q-22 0 -25 32q-1 13 -3 44t-4.5 56.5t-6.5 46.5z" />
    <glyph glyph-name="breve" unicode="&#x2d8;" horiz-adv-x="365" 
d="M313 569q-37 0 -55.5 36t-18.5 81l6 1q5 -67 85 -67q85 0 136 68l5 -4q-40 -53 -77.5 -84t-80.5 -31z" />
    <glyph glyph-name="dotaccent" unicode="&#x2d9;" horiz-adv-x="193" 
d="M197 624q0 21 14 35t34 14t34.5 -14t14.5 -35t-14 -34.5t-35 -13.5q-20 0 -34 13.5t-14 34.5z" />
    <glyph glyph-name="ring" unicode="&#x2da;" horiz-adv-x="256" 
d="M366 639q0 -36 -24 -61t-60 -25t-60 25t-24 61t24 61t60 25t60 -25t24 -61zM357 639q0 32 -21.5 54.5t-53.5 22.5t-53.5 -22.5t-21.5 -54.5t21.5 -54.5t53.5 -22.5t53.5 22.5t21.5 54.5z" />
    <glyph glyph-name="ogonek" unicode="&#x2db;" horiz-adv-x="284" 
d="M81 0h9q-117 -53 -117 -116q0 -17 10 -27.5t28 -10.5q36 0 82 40l4 -5q-64 -59 -127 -59q-26 0 -40.5 12.5t-14.5 32.5q0 10 3.5 20t12 20t15.5 17.5t21.5 16.5t22 14.5t25.5 14t23.5 11t23.5 10.5t19 9z" />
    <glyph glyph-name="tilde" unicode="&#x2dc;" horiz-adv-x="378" 
d="M381 588q-21 0 -55 21.5t-61 21.5q-11 0 -23.5 -11t-18 -18.5t-17.5 -26.5l-6 4q2 3 13 21t17.5 26.5t18 21.5t24.5 18.5t28 5.5q21 0 55 -21.5t61 -21.5q11 0 23.5 11t18 18.5t17.5 26.5l6 -4q-35 -59 -58 -77q-21 -16 -43 -16z" />
    <glyph glyph-name="hungarumlaut" unicode="&#x2dd;" horiz-adv-x="317" 
d="M168 542l-5 5q34 36 76 95t53 70t21 11t18 -7.5t8 -18.5q0 -9 -9 -20q-10 -11 -69 -55.5t-93 -79.5zM275 542l-5 5q34 36 76 95t53 70t21 11t18 -7.5t8 -18.5q0 -9 -9 -20q-10 -11 -69 -55.5t-93 -79.5z" />
    <glyph glyph-name="pi" unicode="&#x3c0;" horiz-adv-x="545" 
d="M570 490h14v-8h-5q-28 0 -43 -11t-27 -41l-143 -371q-6 -16 -6 -28q0 -23 31 -23h13v-8h-27q-9 0 -29 1.5t-34 1.5t-34 -1.5t-29 -1.5h-22v8h5q28 0 43 11t27 41l162 422h-218l-162 -423q-6 -16 -6 -28q0 -23 31 -23h13v-8h-27q-9 0 -29 1.5t-34 1.5t-34 -1.5t-29 -1.5
h-22v8h5q28 0 43 11t27 41l142 371q6 16 6 28q0 23 -31 23h-13v8h21q11 0 32 -0.5t38 -0.5q16 0 42.5 0.5t37.5 0.5h121q11 0 37 -0.5t42 -0.5t38 0.5t33 0.5z" />
    <glyph glyph-name="Wgrave" unicode="&#x1e80;" horiz-adv-x="907" 
d="M602 78l-1 -78q-9 0 -18 1t-14 1q-6 0 -15.5 -1t-16.5 -1l19 521l-307 -443l-1 -78q-8 0 -17 1t-15 1t-15.5 -1t-16.5 -1l22 616q4 57 -53 57h-3v8h30q6 0 27.5 -1.5t36.5 -1.5q16 0 42 1.5t31 1.5h20v-8h-11q-54 -2 -58 -58l-20 -524l308 447l3 78q4 57 -53 57h-3v8h30
q6 0 28 -1.5t37 -1.5q17 0 42.5 1.5t29.5 1.5h20v-8h-11q-54 -2 -58 -59l-20 -523l319 464q37 51 38 75q0 43 -48 43h-11v8h24q11 0 36 -1.5t35 -1.5q8 0 35 1.5t34 1.5h19v-8h-7q-61 0 -147 -123zM659 729l-7 -2q-11 40 -36.5 90t-25.5 67q0 12 7.5 20t19.5 8q22 0 27 -23
q5 -18 5.5 -67.5t9.5 -92.5z" />
    <glyph glyph-name="wgrave" unicode="&#x1e81;" horiz-adv-x="644" 
d="M322 -9q-57 0 -62 75q-33 -33 -76 -54t-79 -21q-27 0 -46 15t-19 45q0 33 22 80.5t46 83t61 86t46 64.5l42 63q-12 -9 -39 -9q-16 0 -52 12t-48 12q-17 0 -26 -10.5t-9 -23.5q0 -12 7 -32.5t7 -30.5q0 -15 -7.5 -23.5t-18.5 -8.5q-26 0 -26 33q0 32 41 87q44 57 77 57
q12 0 47 -10.5t57 -10.5q4 0 7.5 0.5t6.5 2t4.5 2.5t4 4t4 5t4.5 7t5 7l5 -3l-86 -133q-109 -174 -109 -272q0 -24 14 -38.5t35 -14.5q53 0 97 39q4 69 36 166.5t77.5 172.5t81.5 75q25 0 25 -35q0 -56 -45.5 -155.5t-119.5 -180.5q4 -47 17.5 -65.5t40.5 -18.5
q46 0 101.5 52t92.5 124.5t37 127.5q0 40 -10.5 77t-10.5 48q0 34 27 34q31 0 31 -66q0 -88 -49.5 -191.5t-125 -175.5t-143.5 -74zM438 418q0 30 -19 30q-14 0 -32.5 -26t-35 -67.5t-27.5 -101t-11 -119.5v-6q61 67 93 144t32 146zM487 540l-7 -2q-11 40 -36.5 90t-25.5 67
q0 12 7.5 20t19.5 8q22 0 27 -23q5 -18 5.5 -67.5t9.5 -92.5z" />
    <glyph glyph-name="Wacute" unicode="&#x1e82;" horiz-adv-x="907" 
d="M602 78l-1 -78q-9 0 -18 1t-14 1q-6 0 -15.5 -1t-16.5 -1l19 521l-307 -443l-1 -78q-8 0 -17 1t-15 1t-15.5 -1t-16.5 -1l22 616q4 57 -53 57h-3v8h30q6 0 27.5 -1.5t36.5 -1.5q16 0 42 1.5t31 1.5h20v-8h-11q-54 -2 -58 -58l-20 -524l308 447l3 78q4 57 -53 57h-3v8h30
q6 0 28 -1.5t37 -1.5q17 0 42.5 1.5t29.5 1.5h20v-8h-11q-54 -2 -58 -59l-20 -523l319 464q37 51 38 75q0 43 -48 43h-11v8h24q11 0 36 -1.5t35 -1.5q8 0 35 1.5t34 1.5h19v-8h-7q-61 0 -147 -123zM586 731l-5 5q34 36 74 93.5t52 70.5q11 12 25 12q10 0 18 -7.5t8 -19.5
q0 -13 -10 -23q-11 -12 -69.5 -53.5t-92.5 -77.5z" />
    <glyph glyph-name="wacute" unicode="&#x1e83;" horiz-adv-x="644" 
d="M322 -9q-57 0 -62 75q-33 -33 -76 -54t-79 -21q-27 0 -46 15t-19 45q0 33 22 80.5t46 83t61 86t46 64.5l42 63q-12 -9 -39 -9q-16 0 -52 12t-48 12q-17 0 -26 -10.5t-9 -23.5q0 -12 7 -32.5t7 -30.5q0 -15 -7.5 -23.5t-18.5 -8.5q-26 0 -26 33q0 32 41 87q44 57 77 57
q12 0 47 -10.5t57 -10.5q4 0 7.5 0.5t6.5 2t4.5 2.5t4 4t4 5t4.5 7t5 7l5 -3l-86 -133q-109 -174 -109 -272q0 -24 14 -38.5t35 -14.5q53 0 97 39q4 69 36 166.5t77.5 172.5t81.5 75q25 0 25 -35q0 -56 -45.5 -155.5t-119.5 -180.5q4 -47 17.5 -65.5t40.5 -18.5
q46 0 101.5 52t92.5 124.5t37 127.5q0 40 -10.5 77t-10.5 48q0 34 27 34q31 0 31 -66q0 -88 -49.5 -191.5t-125 -175.5t-143.5 -74zM438 418q0 30 -19 30q-14 0 -32.5 -26t-35 -67.5t-27.5 -101t-11 -119.5v-6q61 67 93 144t32 146zM414 542l-5 5q34 36 74 93.5t52 70.5
q11 12 25 12q10 0 18 -7.5t8 -19.5q0 -13 -10 -23q-11 -12 -69.5 -53.5t-92.5 -77.5z" />
    <glyph glyph-name="Wdieresis" unicode="&#x1e84;" horiz-adv-x="907" 
d="M602 78l-1 -78q-9 0 -18 1t-14 1q-6 0 -15.5 -1t-16.5 -1l19 521l-307 -443l-1 -78q-8 0 -17 1t-15 1t-15.5 -1t-16.5 -1l22 616q4 57 -53 57h-3v8h30q6 0 27.5 -1.5t36.5 -1.5q16 0 42 1.5t31 1.5h20v-8h-11q-54 -2 -58 -58l-20 -524l308 447l3 78q4 57 -53 57h-3v8h30
q6 0 28 -1.5t37 -1.5q17 0 42.5 1.5t29.5 1.5h20v-8h-11q-54 -2 -58 -59l-20 -523l319 464q37 51 38 75q0 43 -48 43h-11v8h24q11 0 36 -1.5t35 -1.5q8 0 35 1.5t34 1.5h19v-8h-7q-61 0 -147 -123zM559 765q-18 0 -30 11.5t-12 30.5t12 31t30 12t30.5 -12t12.5 -31
q0 -18 -12.5 -30t-30.5 -12zM729 765q-18 0 -30 11.5t-12 30.5t12 31t30 12t30.5 -12t12.5 -31q0 -18 -12.5 -30t-30.5 -12z" />
    <glyph glyph-name="wdieresis" unicode="&#x1e85;" horiz-adv-x="644" 
d="M322 -9q-57 0 -62 75q-33 -33 -76 -54t-79 -21q-27 0 -46 15t-19 45q0 33 22 80.5t46 83t61 86t46 64.5l42 63q-12 -9 -39 -9q-16 0 -52 12t-48 12q-17 0 -26 -10.5t-9 -23.5q0 -12 7 -32.5t7 -30.5q0 -15 -7.5 -23.5t-18.5 -8.5q-26 0 -26 33q0 32 41 87q44 57 77 57
q12 0 47 -10.5t57 -10.5q4 0 7.5 0.5t6.5 2t4.5 2.5t4 4t4 5t4.5 7t5 7l5 -3l-86 -133q-109 -174 -109 -272q0 -24 14 -38.5t35 -14.5q53 0 97 39q4 69 36 166.5t77.5 172.5t81.5 75q25 0 25 -35q0 -56 -45.5 -155.5t-119.5 -180.5q4 -47 17.5 -65.5t40.5 -18.5
q46 0 101.5 52t92.5 124.5t37 127.5q0 40 -10.5 77t-10.5 48q0 34 27 34q31 0 31 -66q0 -88 -49.5 -191.5t-125 -175.5t-143.5 -74zM438 418q0 30 -19 30q-14 0 -32.5 -26t-35 -67.5t-27.5 -101t-11 -119.5v-6q61 67 93 144t32 146zM391 586q-18 0 -30 11.5t-12 30.5t12 31
t30 12t30.5 -12t12.5 -31q0 -18 -12.5 -30t-30.5 -12zM561 586q-18 0 -30 11.5t-12 30.5t12 31t30 12t30.5 -12t12.5 -31q0 -18 -12.5 -30t-30.5 -12z" />
    <glyph glyph-name="uni1E8A" unicode="&#x1e8a;" horiz-adv-x="590" 
d="M487 0h-41q-5 0 -24.5 1.5t-35.5 1.5q-15 0 -35.5 -1.5t-25.5 -1.5h-34v8h10q54 0 54 34q0 18 -2 27l-47 247l-202 -194q-58 -53 -58 -84q0 -30 35 -30h9v-8h-18q-9 0 -35 1.5t-36 1.5q-6 0 -33.5 -1.5t-34.5 -1.5h-25v8h9q25 0 59 20.5t57 40.5t65 60l206 198l-57 300
q-5 26 -18.5 36t-40.5 10h-9v8h41q4 0 25 -1.5t37 -1.5t34.5 1.5t23.5 1.5h33v-8h-9q-54 0 -54 -34q0 -19 2 -27l46 -243l184 190q48 52 55 69q3 8 3 15q0 30 -35 30h-9v8h18q9 0 35 -1.5t36 -1.5q6 0 33.5 1.5t34.5 1.5h25v-8h-9q-64 0 -181 -121l-188 -194l58 -304
q5 -26 19 -36t41 -10h9v-8zM445 803q0 21 14 35t34 14t34.5 -14t14.5 -35t-14 -34.5t-35 -13.5q-20 0 -34 13.5t-14 34.5z" />
    <glyph glyph-name="uni1E8B" unicode="&#x1e8b;" horiz-adv-x="476" 
d="M245 -8q-32 0 -49 19t-17 50q0 25 13 95q-33 -73 -83 -118.5t-92 -45.5q-31 0 -48 14.5t-17 39.5q0 20 9.5 39t29.5 38t36 31.5t44 31.5l3 -5q-36 -27 -54 -64.5t-18 -66.5q0 -44 32 -44q38 0 95 65t79 156l10 39q27 106 27 160q0 49 -34 49q-26 0 -64 -44.5t-70 -100.5
l-6 4q94 163 172 163q28 0 44.5 -19t16.5 -52q0 -38 -13 -93q34 75 79 119.5t87 44.5q58 0 58 -50q0 -36 -26 -64.5t-79 -65.5l-3 5q30 21 46 55t16 60q0 46 -33 46t-84.5 -65.5t-76.5 -154.5l-10 -37q-7 -27 -16 -84t-9 -78q0 -50 37 -50q30 0 69.5 46.5t67.5 96.5l6 -4
q-92 -161 -175 -161zM331 624q0 21 14 35t34 14t34.5 -14t14.5 -35t-14 -34.5t-35 -13.5q-20 0 -34 13.5t-14 34.5z" />
    <glyph glyph-name="Ygrave" unicode="&#x1ef2;" horiz-adv-x="561" 
d="M283 0h-34q-9 0 -29 1.5t-36 1.5q-15 0 -35.5 -1.5t-30.5 -1.5h-28v8h11q29 0 44.5 11.5t28.5 43.5l100 261l-65 303q-6 27 -18 36.5t-39 9.5h-10v8h42q4 0 24 -1.5t36 -1.5t36 1.5t24 1.5h34v-8h-10q-54 0 -54 -34q0 -14 3 -27l59 -280l208 227q48 52 55 69q3 8 3 15
q0 30 -35 30h-9v8h18q17 0 39.5 -1.5t31.5 -1.5q11 0 36 1.5t32 1.5h25v-8h-8q-66 0 -182 -122l-213 -233l-98 -256q-7 -18 -7 -30q0 -24 32 -24h19v-8zM499 729l-7 -2q-11 40 -36.5 90t-25.5 67q0 12 7.5 20t19.5 8q22 0 27 -23q5 -18 5.5 -67.5t9.5 -92.5z" />
    <glyph glyph-name="ygrave" unicode="&#x1ef3;" horiz-adv-x="428" 
d="M197 64l-7 -64q-6 0 -15 1t-15 1q-4 0 -11 -1t-10 -1l-21 -22q-83 -88 -178 -151t-168 -63q-42 0 -42 27t35 27q11 0 38 -9t50 -9q36 0 112.5 55.5t146.5 128.5l17 18q24 181 24 358q0 28 -0.5 42t-3 32t-9.5 25.5t-18 7.5q-14 0 -34.5 -26.5t-59.5 -89.5l-6 4
q29 47 45 71t42.5 48t48.5 24q20 0 32.5 -11t17.5 -33t6 -39.5t1 -46.5q0 -130 -17 -291q114 130 155.5 199.5t41.5 128.5q0 6 -2.5 27t-2.5 29q0 37 28 37t28 -31q0 -52 -58 -153.5t-191 -249.5zM340 540l-7 -2q-11 40 -36.5 90t-25.5 67q0 12 7.5 20t19.5 8q22 0 27 -23
q5 -18 5.5 -67.5t9.5 -92.5z" />
    <glyph glyph-name="endash" unicode="&#x2013;" horiz-adv-x="481" 
d="M447 277h-380v9h380v-9z" />
    <glyph glyph-name="emdash" unicode="&#x2014;" horiz-adv-x="910" 
d="M875 277h-808v9h808v-9z" />
    <glyph glyph-name="quoteleft" unicode="&#x2018;" horiz-adv-x="179" 
d="M203 595q20 0 32.5 -13t12.5 -32t-13.5 -32.5t-34.5 -13.5t-34.5 13t-13.5 38q0 53 39.5 90.5t86.5 44.5l1 -6q-43 -9 -75 -38t-40 -72q18 21 39 21z" />
    <glyph glyph-name="quoteright" unicode="&#x2019;" horiz-adv-x="179" 
d="M224 599q-20 0 -32.5 13t-12.5 32t13.5 32.5t34.5 13.5t34.5 -13t13.5 -38q0 -53 -39.5 -90.5t-86.5 -44.5l-1 6q43 9 75 38t40 72q-18 -21 -39 -21z" />
    <glyph glyph-name="quotesinglbase" unicode="&#x201a;" horiz-adv-x="179" 
d="M-5 -9q-20 0 -32.5 13t-12.5 32t13.5 32.5t34.5 13.5t34.5 -13t13.5 -38q0 -53 -39.5 -90.5t-86.5 -44.5l-1 6q43 9 75 38t40 72q-18 -21 -39 -21z" />
    <glyph glyph-name="quotedblleft" unicode="&#x201c;" horiz-adv-x="309" 
d="M203 595q20 0 32.5 -13t12.5 -32t-13.5 -32.5t-34.5 -13.5t-34.5 13t-13.5 38q0 53 39.5 90.5t86.5 44.5l1 -6q-43 -9 -75 -38t-40 -72q18 21 39 21zM333 595q20 0 32.5 -13t12.5 -32t-13.5 -32.5t-34.5 -13.5t-34.5 13t-13.5 38q0 53 39.5 90.5t86.5 44.5l1 -6
q-43 -9 -75 -38t-40 -72q18 21 39 21z" />
    <glyph glyph-name="quotedblright" unicode="&#x201d;" horiz-adv-x="309" 
d="M224 599q-20 0 -32.5 13t-12.5 32t13.5 32.5t34.5 13.5t34.5 -13t13.5 -38q0 -53 -39.5 -90.5t-86.5 -44.5l-1 6q43 9 75 38t40 72q-18 -21 -39 -21zM354 599q-20 0 -32.5 13t-12.5 32t13.5 32.5t34.5 13.5t34.5 -13t13.5 -38q0 -53 -39.5 -90.5t-86.5 -44.5l-1 6
q43 9 75 38t40 72q-18 -21 -39 -21z" />
    <glyph glyph-name="quotedblbase" unicode="&#x201e;" horiz-adv-x="310" 
d="M-6 -9q-20 0 -32.5 13t-12.5 32t13.5 32.5t34.5 13.5t34.5 -13t13.5 -38q0 -53 -39.5 -90.5t-86.5 -44.5l-1 6q43 9 75 38t40 72q-18 -21 -39 -21zM124 -9q-20 0 -32.5 13t-12.5 32t13.5 32.5t34.5 13.5t34.5 -13t13.5 -38q0 -53 -39.5 -90.5t-86.5 -44.5l-1 6
q43 9 75 38t40 72q-18 -21 -39 -21z" />
    <glyph glyph-name="dagger" unicode="&#x2020;" horiz-adv-x="405" 
d="M426 412q-21 0 -62 32t-63 42q0 -1 -8 -55q-3 -21 -3 -47q-84 -159 -163 -374l-7 3q69 185 116 391q46 64 57 85q-20 7 -65 10.5t-62 7.5q-25 7 -25 30q0 13 8 23t22 10q21 0 62 -32t63 -42q15 51 19 103.5t6 58.5q9 27 34 27q17 0 27 -10.5t10 -25.5q0 -13 -13.5 -32.5
t-36.5 -53t-38 -70.5q21 -7 65 -10t62 -8q25 -7 25 -30q0 -13 -8 -23t-22 -10z" />
    <glyph glyph-name="daggerdbl" unicode="&#x2021;" horiz-adv-x="405" 
d="M309 524q14 46 14 78q0 10 -1.5 23t-1.5 17q0 19 10 31.5t28 12.5q14 0 24.5 -10t10.5 -25q0 -17 -10.5 -29t-31 -36.5t-37.5 -63.5q22 -7 68.5 -10.5t59.5 -8.5q26 -11 26 -30q0 -15 -9 -24t-23 -9q-9 0 -16 4q-10 5 -48.5 34.5t-59.5 36.5q-3 -12 -5.5 -44.5
t-3.5 -37.5q-4 -5 -11.5 -13t-10.5 -11.5t-8 -11t-9 -17t-9 -22.5l-7 2q11 31 13 49t-1 40q39 54 46 68q-20 7 -66 10.5t-62 8.5q-26 8 -26 30q0 15 9 24t23 9q9 0 16 -4q10 -5 49.5 -34t59.5 -37zM182 175q-20 7 -67 10.5t-61 8.5q-26 8 -26 30q0 15 9 24t23 9q9 0 16 -4
q10 -5 49 -34t59 -37q3 12 5.5 44.5t3.5 37.5q3 4 9.5 11t9 10t7 9t7.5 11.5t7 14t8 19.5l7 -2q-11 -31 -13 -49.5t1 -39.5q-34 -42 -46 -68q20 -7 65 -10.5t63 -8.5q26 -8 26 -30q0 -15 -9 -24t-23 -9q-9 0 -16 4q-10 5 -49.5 34.5t-59.5 36.5q-14 -46 -14 -78
q0 -10 1.5 -22.5t1.5 -17.5q0 -19 -10 -31.5t-28 -12.5q-14 0 -24.5 10t-10.5 25q0 17 10.5 29t31 36.5t37.5 63.5z" />
    <glyph glyph-name="bullet" unicode="&#x2022;" horiz-adv-x="320" 
d="M198 265q-36 0 -60.5 24t-24.5 61q0 38 24.5 62t60.5 24t60.5 -24t24.5 -62q0 -37 -24.5 -61t-60.5 -24z" />
    <glyph glyph-name="ellipsis" unicode="&#x2026;" horiz-adv-x="626" 
d="M25 -6q-20 0 -35 14.5t-15 35.5t15 35.5t35 14.5t35 -14.5t15 -35.5t-15 -35.5t-35 -14.5zM229 -6q-20 0 -35 14.5t-15 35.5t15 35.5t35 14.5t35 -14.5t15 -35.5t-15 -35.5t-35 -14.5zM433 -6q-20 0 -35 14.5t-15 35.5t15 35.5t35 14.5t35 -14.5t15 -35.5t-15 -35.5
t-35 -14.5z" />
    <glyph glyph-name="perthousand" unicode="&#x2030;" horiz-adv-x="926" 
d="M218 346q-40 0 -65.5 29.5t-25.5 76.5q0 46 24.5 99.5t74 95t108.5 41.5q42 0 64 -36q27 -43 75 -43q90 0 181 78l7 -7l-614 -690l-7 6l587 659q-81 -55 -154 -55q-40 0 -66 26q3 -10 3 -23q0 -81 -58.5 -169t-133.5 -88zM385 -8q-40 0 -65.5 29.5t-25.5 76.5
q0 46 24.5 99.5t74 95t108.5 41.5q35 0 55.5 -24t20.5 -61q0 -81 -58.5 -169t-133.5 -88zM385 1q69 0 126 85t57 163q0 34 -17.5 55t-49.5 21q-37 0 -83 -60q-33 -43 -57 -103.5t-24 -101.5q0 -59 48 -59zM218 355q69 0 126 85t57 163q0 34 -17.5 55t-49.5 21q-33 0 -74 -49
q-37 -45 -63.5 -109t-26.5 -107q0 -59 48 -59zM694 -8q-40 0 -65.5 29.5t-25.5 76.5q0 46 24.5 99.5t74 95t108.5 41.5q35 0 55.5 -24t20.5 -61q0 -81 -58.5 -169t-133.5 -88zM694 1q69 0 126 85t57 163q0 34 -17.5 55t-49.5 21q-38 0 -84 -62q-33 -46 -56.5 -104.5
t-23.5 -98.5q0 -59 48 -59z" />
    <glyph glyph-name="guilsinglleft" unicode="&#x2039;" horiz-adv-x="326" 
d="M328 436l4 -5q-31 -26 -71.5 -66.5t-78 -80.5t-40.5 -43q2 -7 10.5 -38.5t19.5 -68t23 -62.5l-6 -3q-12 25 -43.5 70t-56.5 77t-29 36q14 8 117.5 78t150.5 106z" />
    <glyph glyph-name="guilsinglright" unicode="&#x203a;" horiz-adv-x="326" 
d="M12 69l-4 5q31 27 71 67.5t77.5 79.5t41.5 43q-2 7 -10.5 38.5t-19.5 68t-23 62.5l6 3q13 -25 44 -69.5t56 -77t29 -36.5q-14 -8 -117.5 -78t-150.5 -106z" />
    <glyph glyph-name="fraction" unicode="&#x2044;" horiz-adv-x="71" 
d="M462 690l-750 -710l-6 7l750 710z" />
    <glyph glyph-name="uni2070" unicode="&#x2070;" 
d="M166 436q0 -41 35 -41q47 0 90.5 94t43.5 152q0 42 -35 42q-47 0 -90.5 -94t-43.5 -153zM372 596q0 -72 -51.5 -139.5t-117.5 -67.5q-31 0 -52.5 26t-21.5 67q0 72 51.5 139.5t117.5 67.5q31 0 52.5 -26t21.5 -67z" />
    <glyph glyph-name="uni2074" unicode="&#x2074;" 
d="M288 397h-14q-6 0 -21 1.5t-32 1.5t-32 -1.5t-19 -1.5h-18v7h13q21 0 31.5 9.5t22.5 40.5l8 20h-117v5l201 202q4 0 11 -0.5t10 -0.5q4 0 10.5 0.5t10.5 0.5l-77 -200h2q23 0 84 68l4 -3l-42 -72h-50l-8 -20q-10 -24 -10 -35q0 -15 23 -15h9v-7zM229 481l67 175
l-173 -175h106z" />
    <glyph glyph-name="uni2075" unicode="&#x2075;" 
d="M333 523q0 -51 -39.5 -92.5t-100.5 -41.5q-34 0 -55.5 18t-21.5 42q0 12 7 21t18 9q19 0 19 -19q0 -5 -2 -16.5t-2 -17.5q0 -31 37 -31q51 0 83 88q16 41 16 70q0 25 -29 25q-46 0 -83 -43l-5 3l73 143h98q30 0 47 24l5 -2l-37 -61h-125l-44 -86q33 29 73 29
q31 0 49.5 -16.5t18.5 -45.5z" />
    <glyph glyph-name="uni2076" unicode="&#x2076;" 
d="M362 693v-7q-98 -7 -157 -123q35 22 62 22q32 0 50.5 -18.5t18.5 -50.5q0 -44 -37.5 -85.5t-94.5 -41.5q-27 0 -48.5 25t-21.5 70q0 77 69 140t159 69zM263 578q-27 0 -64 -25q-30 -65 -30 -116q0 -42 34 -42q39 0 66 51t27 92q0 40 -33 40z" />
    <glyph glyph-name="uni2077" unicode="&#x2077;" 
d="M183 389q-11 0 -18 7t-7 17q0 36 61.5 100.5t140.5 128.5h-117q-30 0 -50 -27l-5 3l51 87l5 -2q-3 -7 -3 -12q0 -10 19 -10h147v-4q-67 -60 -89.5 -82.5t-50.5 -66t-52 -109.5q-11 -30 -32 -30z" />
    <glyph glyph-name="uni2078" unicode="&#x2078;" 
d="M370 628q0 -27 -23 -48t-57 -30q40 -38 40 -71q0 -42 -33 -66t-72 -24t-69 21.5t-30 52.5q0 32 27 57t68 37q-24 27 -24 58q0 33 27 53.5t63 20.5q33 0 58 -18.5t25 -42.5zM229 549l-5 4q-55 -27 -55 -92q0 -27 13 -46t43 -19q67 0 67 63q0 28 -34 62zM260 580l26 -26
q47 20 47 78q0 22 -12 36t-34 14q-26 0 -40.5 -14.5t-14.5 -36.5q0 -23 28 -51z" />
    <glyph glyph-name="uni2079" unicode="&#x2079;" 
d="M143 385v7q93 6 157 122q-36 -21 -62 -21q-32 0 -50.5 18.5t-18.5 50.5q0 45 37.5 86t94.5 41q27 0 48.5 -24.5t21.5 -70.5q0 -77 -68.5 -140t-159.5 -69zM242 500q28 0 63 24q31 65 31 117q0 42 -34 42q-39 0 -66 -51t-27 -92q0 -40 33 -40z" />
    <glyph glyph-name="parenleft.sups" unicode="&#x207d;" horiz-adv-x="175" 
d="M317 725l4 -6q-68 -47 -107.5 -130.5t-39.5 -164.5q0 -49 9 -70l-6 -3q-34 74 -34 139q0 133 174 235z" />
    <glyph glyph-name="parenright.sups" unicode="&#x207e;" horiz-adv-x="175" 
d="M89 351l-4 6q69 50 108 132t39 163q0 49 -9 70l6 3q34 -74 34 -139q0 -135 -174 -235z" />
    <glyph glyph-name="uni2080" unicode="&#x2080;" 
d="M14 39q0 -41 35 -41q47 0 90.5 94t43.5 152q0 42 -35 42q-47 0 -90.5 -94t-43.5 -153zM220 199q0 -72 -51.5 -139.5t-117.5 -67.5q-31 0 -52.5 26t-21.5 67q0 72 51.5 139.5t117.5 67.5q31 0 52.5 -26t21.5 -67z" />
    <glyph glyph-name="uni2081" unicode="&#x2081;" 
d="M121 0h-10q-11 0 -26 1.5t-30 1.5q-17 0 -33 -1.5t-26 -1.5h-20v7h20q23 0 33 9t23 41l53 138q4 8 4 15q0 9 -8 9q-2 0 -41 -17l-3 7l17 8q34 15 67.5 41t45.5 44l5 -2l-93 -243q-10 -23 -10 -35q0 -15 24 -15h8v-7z" />
    <glyph glyph-name="uni2082" unicode="&#x2082;" 
d="M218 237q0 -18 -11.5 -37t-34.5 -39t-42 -34t-52 -35.5t-46 -30.5l-31 -22h144l-40 -71l-5 2q4 8 4 17q0 13 -18 13h-141v5l82 61q145 109 145 196q0 24 -22 24q-29 0 -60 -47q-16 -25 -30 -25q-7 0 -13 5t-6 13q0 22 37 41t72 19q25 0 46.5 -15t21.5 -40z" />
    <glyph glyph-name="uni2083" unicode="&#x2083;" 
d="M182 113q0 -48 -39 -84.5t-95 -36.5q-35 0 -56.5 21t-21.5 46q0 13 7 22t19 9q7 0 12.5 -5t5.5 -13q0 -6 -2 -17.5t-2 -18.5q0 -38 38 -38q47 0 78 80q14 37 14 59q0 18 -17 18q-5 0 -19 -6l-36 -16l-3 6l46 21q35 17 54 65q7 17 7 38q0 23 -22 23q-29 0 -58 -44
q-18 -28 -32 -28q-8 0 -13.5 5.5t-5.5 11.5q0 24 37.5 42.5t70.5 18.5q27 0 48 -15t21 -37q0 -45 -92 -79q24 0 40 -12.5t16 -35.5z" />
    <glyph glyph-name="uni2084" unicode="&#x2084;" 
d="M136 0h-14q-6 0 -21 1.5t-32 1.5t-32 -1.5t-19 -1.5h-18v7h13q21 0 31.5 9.5t22.5 40.5l8 20h-117v5l201 202q4 0 11 -0.5t10 -0.5q4 0 10.5 0.5t10.5 0.5l-77 -200h2q23 0 84 68l4 -3l-42 -72h-50l-8 -20q-10 -24 -10 -35q0 -15 23 -15h9v-7zM77 84l67 175l-173 -175
h106z" />
    <glyph glyph-name="uni2085" unicode="&#x2085;" 
d="M181 126q0 -51 -39.5 -92.5t-100.5 -41.5q-34 0 -55.5 18t-21.5 42q0 12 7 21t18 9q19 0 19 -19q0 -5 -2 -16.5t-2 -17.5q0 -31 37 -31q26 0 47.5 26t35.5 63q16 39 16 69q0 25 -29 25q-46 0 -83 -43l-5 3l73 143h98q30 0 47 24l5 -2l-37 -61h-125l-44 -86q33 29 73 29
q31 0 49.5 -16.5t18.5 -45.5z" />
    <glyph glyph-name="uni2086" unicode="&#x2086;" 
d="M210 296v-7q-98 -7 -157 -123q35 22 62 22q32 0 50.5 -18.5t18.5 -50.5q0 -44 -37.5 -85.5t-94.5 -41.5q-27 0 -48.5 25t-21.5 70q0 77 69 140t159 69zM111 181q-27 0 -64 -25q-30 -64 -30 -116q0 -42 34 -42q39 0 66 51t27 92q0 40 -33 40z" />
    <glyph glyph-name="uni2087" unicode="&#x2087;" 
d="M31 -8q-11 0 -18 7t-7 17q0 36 61.5 100.5t140.5 128.5h-117q-30 0 -50 -27l-5 3l51 87l5 -2q-3 -8 -3 -12q0 -10 19 -10h147v-4q-67 -60 -89.5 -82.5t-50.5 -66t-52 -109.5q-11 -30 -32 -30z" />
    <glyph glyph-name="uni2088" unicode="&#x2088;" 
d="M217 231q0 -27 -23 -48t-57 -30q40 -38 40 -71q0 -42 -33 -66t-72 -24t-69 21.5t-30 52.5q0 32 27 57t68 37q-24 27 -24 58q0 33 27 53.5t63 20.5q33 0 58 -18.5t25 -42.5zM76 152l-4 4q-56 -27 -56 -92q0 -27 13 -46t43 -19q67 0 67 63q0 28 -34 62zM107 183l26 -26
q47 20 47 78q0 22 -12 36t-34 14q-26 0 -40.5 -14.5t-14.5 -36.5q0 -23 28 -51z" />
    <glyph glyph-name="uni2089" unicode="&#x2089;" 
d="M-10 -12v7q93 6 157 122q-36 -21 -62 -21q-32 0 -50.5 18.5t-18.5 50.5q0 45 37.5 86t94.5 41q27 0 48.5 -24.5t21.5 -70.5q0 -77 -68.5 -140t-159.5 -69zM89 103q28 0 63 24q31 65 31 117q0 42 -34 42q-39 0 -66 -51t-27 -92q0 -40 33 -40z" />
    <glyph glyph-name="Euro" unicode="&#x20ac;" horiz-adv-x="583" 
d="M632 549q0 -40 -33 -40q-13 0 -21 9t-8 21q0 9 1.5 27t1.5 26q0 40 -21.5 65.5t-66.5 25.5q-71 0 -138.5 -79t-118.5 -197h240v-10h-245q-21 -52 -42 -114h239v-10h-242q-29 -96 -29 -150q0 -65 24 -95t75 -30q85 0 139 99q3 4 11.5 22t16.5 25.5t21 7.5t22 -8.5t9 -22.5
q0 -41 -73 -86t-149 -45q-65 0 -104 57t-39 132q0 48 10 94h-88v10h90q10 48 37 114h-79v10h83q55 122 143.5 203t186.5 81q57 0 102 -44.5t45 -97.5z" />
    <glyph glyph-name="trademark" unicode="&#x2122;" horiz-adv-x="742" 
d="M758 653v-230q0 -14 5.5 -18t28.5 -4v-7h-17q-6 0 -18 1t-20 1t-20.5 -1t-18.5 -1h-16v7q22 0 27.5 4t5.5 18v241l-93 -226l20 -44q-6 0 -13.5 0.5t-10.5 0.5q-2 0 -10 -0.5t-13 -0.5l-111 252v-204q0 -22 10 -31.5t39 -9.5v-7h-11q-2 0 -18 1t-24 1t-24 -1t-18 -1h-7v7
q27 0 35.5 9.5t8.5 31.5v197q0 17 -8.5 26t-33.5 9v7q8 0 23.5 -0.5t20.5 -0.5q6 0 18.5 0.5t18.5 0.5l102 -234l97 234q3 0 12 -0.5t12 -0.5q5 0 21 0.5t34 0.5v-7q-23 0 -28.5 -4t-5.5 -17zM277 680q9 0 21.5 0.5t13.5 0.5h48q17 0 17 13h5l38 -102l-5 -3q-42 61 -56 72
q-13 12 -32 12h-28v-250q0 -14 5.5 -18t28.5 -4v-7h-8q-5 0 -22 1t-26 1q-8 0 -25 -1t-22 -1h-7v7q22 0 27.5 4t5.5 18v250h-28q-22 0 -40 -19q-6 -6 -48 -65l-5 3l38 102h5q0 -13 17 -13h48q1 0 13 -0.5t21 -0.5z" />
    <glyph glyph-name="Omega" unicode="&#x2126;" horiz-adv-x="667" 
d="M119 9h83l31 79q-57 23 -91 88t-34 133q0 61 28.5 128t76 123.5t117.5 93.5t145 37q83 0 131 -61t48 -152q0 -144 -101 -260t-240 -136l-28 -73h96q31 0 49 10.5t53 45.5q61 61 131 144l5 -4l-145 -236l-5 2q2 10 2 12q0 17 -20 17h-180l6 11q2 5 11 29l18 48
q77 13 147 90.5t109.5 178t39.5 186.5q0 141 -127 141q-64 0 -124.5 -48.5t-101 -119t-64.5 -146t-24 -132.5q0 -53 23.5 -93.5t59.5 -51.5l-35 -93h-148q-36 0 -42 -30l-6 1l23 238h6q18 -135 25 -165q5 -22 15 -28.5t37 -6.5z" />
    <glyph glyph-name="uni2153" unicode="&#x2153;" horiz-adv-x="367" 
d="M88 345h271v-8h-271v8zM307 397h-10q-11 0 -26 1.5t-30 1.5q-17 0 -33 -1.5t-26 -1.5h-20v7h20q23 0 33 9t23 41l53 138q4 8 4 15q0 9 -8 9q-2 0 -41 -17l-3 7l17 8q34 15 67.5 41t45.5 44l5 -2l-93 -243q-10 -23 -10 -35q0 -15 24 -15h8v-7zM231 113q0 -48 -39 -84.5
t-95 -36.5q-35 0 -56.5 21t-21.5 46q0 13 7 22t19 9q7 0 12.5 -5t5.5 -13q0 -6 -2 -17.5t-2 -18.5q0 -38 38 -38q47 0 78 80q14 37 14 59q0 18 -17 18q-5 0 -19 -6l-36 -16l-3 6l46 21q35 17 54 65q7 17 7 38q0 23 -22 23q-29 0 -58 -44q-18 -28 -32 -28q-8 0 -13.5 5.5
t-5.5 11.5q0 24 37.5 42.5t70.5 18.5q27 0 48 -15t21 -37q0 -45 -92 -79q24 0 40 -12.5t16 -35.5z" />
    <glyph glyph-name="uni2154" unicode="&#x2154;" horiz-adv-x="367" 
d="M88 345h271v-8h-271v8zM231 113q0 -48 -39 -84.5t-95 -36.5q-35 0 -56.5 21t-21.5 46q0 13 7 22t19 9q7 0 12.5 -5t5.5 -13q0 -6 -2 -17.5t-2 -18.5q0 -38 38 -38q47 0 78 80q14 37 14 59q0 18 -17 18q-5 0 -19 -6l-36 -16l-3 6l46 21q35 17 54 65q7 17 7 38q0 23 -22 23
q-29 0 -58 -44q-18 -28 -32 -28q-8 0 -13.5 5.5t-5.5 11.5q0 24 37.5 42.5t70.5 18.5q27 0 48 -15t21 -37q0 -45 -92 -79q24 0 40 -12.5t16 -35.5zM423 634q0 -18 -11.5 -37t-34.5 -39t-42 -34t-52 -35.5t-46 -30.5l-31 -22h144l-40 -71l-5 2q4 8 4 17q0 13 -18 13h-141v5
l82 61q145 109 145 196q0 24 -22 24q-29 0 -60 -47q-16 -25 -30 -25q-7 0 -13 5t-6 13q0 22 37 41t72 19q25 0 46.5 -15t21.5 -40z" />
    <glyph glyph-name="uni2155" unicode="&#x2155;" horiz-adv-x="367" 
d="M88 345h271v-8h-271v8zM307 397h-10q-11 0 -26 1.5t-30 1.5q-17 0 -33 -1.5t-26 -1.5h-20v7h20q23 0 33 9t23 41l53 138q4 8 4 15q0 9 -8 9q-2 0 -41 -17l-3 7l17 8q34 15 67.5 41t45.5 44l5 -2l-93 -243q-10 -23 -10 -35q0 -15 24 -15h8v-7zM221 126q0 -51 -39.5 -92.5
t-100.5 -41.5q-34 0 -55.5 18t-21.5 42q0 12 7 21t18 9q19 0 19 -19q0 -5 -2 -16.5t-2 -17.5q0 -31 37 -31q26 0 47.5 26t35.5 63q16 39 16 69q0 25 -29 25q-46 0 -83 -43l-5 3l73 143h98q30 0 47 24l5 -2l-37 -61h-125l-44 -86q33 29 73 29q31 0 49.5 -16.5t18.5 -45.5z
" />
    </font>
</defs>
</svg>
